<svg width="16" height="16" viewBox="0 0 16 16" fill="none" xmlns="http://www.w3.org/2000/svg">
<path d="M14.5 6V12C14.5 12.8284 13.8284 13.5 13 13.5H3C2.17157 13.5 1.5 12.8284 1.5 12V4C1.5 3.17157 2.17157 2.5 3 2.5H5.67157C6.0694 2.5 6.45093 2.65803 6.73223 2.93934L7.56066 3.76777C8.0295 4.23661 8.66539 4.5 9.32843 4.5H13C13.8284 4.5 14.5 5.17157 14.5 6Z" stroke="#CED0D6"/>
<path d="M6.69082 8.50908C6.69082 8.58292 6.6988 8.64278 6.71277 8.68668C6.72874 8.73059 6.74869 8.77848 6.77663 8.83036C6.78661 8.84633 6.7906 8.86229 6.7906 8.87626C6.7906 8.89622 6.77863 8.91617 6.75268 8.93613L6.62696 9.01994C6.609 9.03191 6.59104 9.0379 6.57508 9.0379C6.55512 9.0379 6.53517 9.02792 6.51521 9.00996C6.48728 8.98003 6.46333 8.9481 6.44337 8.91617C6.42342 8.88225 6.40346 8.84433 6.38151 8.79843C6.22586 8.98202 6.0303 9.07382 5.79482 9.07382C5.6272 9.07382 5.4935 9.02593 5.39572 8.93014C5.29794 8.83435 5.24805 8.70664 5.24805 8.547C5.24805 8.37737 5.30791 8.23968 5.42964 8.13591C5.55137 8.03215 5.71301 7.98026 5.91855 7.98026C5.9864 7.98026 6.05624 7.98625 6.13007 7.99623C6.20391 8.0062 6.27974 8.02217 6.35956 8.04013V7.89445C6.35956 7.74279 6.32763 7.63703 6.26577 7.57517C6.20191 7.51331 6.09416 7.48337 5.9405 7.48337C5.87065 7.48337 5.79882 7.49136 5.72498 7.50932C5.65115 7.52728 5.57931 7.54923 5.50946 7.57716C5.47753 7.59113 5.45359 7.59911 5.43962 7.60311C5.42565 7.6071 5.41567 7.60909 5.40769 7.60909C5.37975 7.60909 5.36578 7.58914 5.36578 7.54723V7.44945C5.36578 7.41752 5.36977 7.39357 5.37975 7.37961C5.38973 7.36564 5.40769 7.35167 5.43563 7.3377C5.50547 7.30178 5.58928 7.27185 5.68707 7.2479C5.78485 7.22196 5.88861 7.20998 5.99837 7.20998C6.23584 7.20998 6.40945 7.26386 6.5212 7.37162C6.63096 7.47938 6.68683 7.64302 6.68683 7.86253V8.50908H6.69082ZM5.88063 8.8124C5.94649 8.8124 6.01433 8.80043 6.08617 8.77648C6.15801 8.75254 6.22187 8.70863 6.27575 8.64877C6.30768 8.61085 6.33162 8.56895 6.3436 8.52105C6.35557 8.47316 6.36355 8.41529 6.36355 8.34744V8.26363C6.30568 8.24966 6.24382 8.23769 6.17996 8.22971C6.11611 8.22172 6.05424 8.21773 5.99238 8.21773C5.85868 8.21773 5.7609 8.24367 5.69505 8.29755C5.62919 8.35143 5.59727 8.42726 5.59727 8.52704C5.59727 8.62083 5.62121 8.69067 5.6711 8.73857C5.71899 8.78846 5.78884 8.8124 5.88063 8.8124ZM7.48305 9.02792C7.44713 9.02792 7.42318 9.02193 7.40722 9.00797C7.39126 8.99599 7.37729 8.96805 7.36531 8.93014L6.89636 7.38759C6.88439 7.34768 6.8784 7.32173 6.8784 7.30777C6.8784 7.27584 6.89437 7.25788 6.92629 7.25788H7.12186C7.15977 7.25788 7.18572 7.26386 7.19968 7.27783C7.21565 7.28981 7.22762 7.31774 7.23959 7.35566L7.57485 8.67671L7.88615 7.35566C7.89613 7.31575 7.9081 7.28981 7.92406 7.27783C7.94003 7.26586 7.96797 7.25788 8.00389 7.25788H8.16353C8.20144 7.25788 8.22739 7.26386 8.24335 7.27783C8.25931 7.28981 8.27328 7.31774 8.28127 7.35566L8.59656 8.69267L8.94179 7.35566C8.95376 7.31575 8.96773 7.28981 8.9817 7.27783C8.99766 7.26586 9.02361 7.25788 9.05953 7.25788H9.24511C9.27704 7.25788 9.295 7.27384 9.295 7.30777C9.295 7.31774 9.293 7.32772 9.29101 7.33969C9.28901 7.35167 9.28502 7.36763 9.27704 7.38958L8.79611 8.93213C8.78414 8.97205 8.77017 8.99799 8.75421 9.00996C8.73824 9.02193 8.7123 9.02992 8.67838 9.02992H8.50676C8.46885 9.02992 8.4429 9.02393 8.42694 9.00996C8.41098 8.99599 8.39701 8.97005 8.38902 8.93014L8.07972 7.64302L7.7724 8.92814C7.76243 8.96805 7.75045 8.994 7.73449 9.00797C7.71852 9.02193 7.69059 9.02792 7.65467 9.02792H7.48305ZM10.0473 9.0818C9.94355 9.0818 9.83978 9.06983 9.74 9.04588C9.64023 9.02193 9.5624 8.99599 9.51052 8.96606C9.47859 8.9481 9.45664 8.92814 9.44866 8.91018C9.44067 8.89222 9.43668 8.87227 9.43668 8.85431V8.75254C9.43668 8.71063 9.45265 8.69067 9.48258 8.69067C9.49455 8.69067 9.50653 8.69267 9.5185 8.69666C9.53047 8.70065 9.54843 8.70863 9.56839 8.71662C9.63624 8.74655 9.71007 8.7705 9.7879 8.78646C9.86772 8.80242 9.94554 8.81041 10.0254 8.81041C10.1511 8.81041 10.2489 8.78846 10.3167 8.74455C10.3846 8.70065 10.4205 8.63679 10.4205 8.55498C10.4205 8.4991 10.4025 8.45321 10.3666 8.41529C10.3307 8.37737 10.2628 8.34345 10.1651 8.31152L9.8757 8.22172C9.73003 8.17583 9.62227 8.10798 9.55641 8.01818C9.49056 7.93037 9.45664 7.83259 9.45664 7.72882C9.45664 7.64501 9.4746 7.57118 9.51052 7.50732C9.54644 7.44346 9.59433 7.38759 9.6542 7.34369C9.71406 7.29779 9.78191 7.26386 9.86173 7.23992C9.94155 7.21597 10.0254 7.20599 10.1132 7.20599C10.1571 7.20599 10.203 7.20799 10.2469 7.21398C10.2928 7.21996 10.3347 7.22794 10.3766 7.23593C10.4165 7.2459 10.4544 7.25588 10.4903 7.26786C10.5262 7.27983 10.5542 7.2918 10.5741 7.30378C10.6021 7.31974 10.622 7.3357 10.634 7.35366C10.646 7.36963 10.652 7.39158 10.652 7.41952V7.51331C10.652 7.55521 10.636 7.57716 10.6061 7.57716C10.5901 7.57716 10.5642 7.56918 10.5302 7.55322C10.4165 7.50133 10.2888 7.47539 10.1471 7.47539C10.0333 7.47539 9.94355 7.49335 9.88169 7.53127C9.81983 7.56918 9.7879 7.62705 9.7879 7.70887C9.7879 7.76474 9.80785 7.81264 9.84776 7.85055C9.88767 7.88847 9.96151 7.92638 10.0673 7.96031L10.3506 8.05011C10.4943 8.096 10.5981 8.15986 10.6599 8.24168C10.7218 8.3235 10.7517 8.41729 10.7517 8.52105C10.7517 8.60686 10.7338 8.68469 10.6999 8.75254C10.6639 8.82038 10.616 8.88025 10.5542 8.92814C10.4923 8.97803 10.4185 9.01395 10.3327 9.03989C10.2429 9.06783 10.1491 9.0818 10.0473 9.0818Z" fill="white"/>
<path fill-rule="evenodd" clip-rule="evenodd" d="M10.4245 10.0516C9.76798 10.5365 8.81411 10.794 7.99395 10.794C6.84452 10.794 5.80883 10.3689 5.02658 9.6625C4.96472 9.60662 5.02059 9.53079 5.09443 9.5747C5.94054 10.0656 6.9842 10.3629 8.06379 10.3629C8.79216 10.3629 9.59237 10.2113 10.3287 9.89997C10.4385 9.85008 10.5323 9.97181 10.4245 10.0516Z" fill="#FF9900"/>
<path fill-rule="evenodd" clip-rule="evenodd" d="M10.6974 9.7403C10.6136 9.63254 10.1427 9.68842 9.92915 9.71436C9.86529 9.72234 9.85531 9.66647 9.91318 9.62456C10.2883 9.36115 10.905 9.43698 10.9768 9.52478C11.0486 9.61458 10.9568 10.2312 10.6056 10.5265C10.5518 10.5724 10.4999 10.5485 10.5238 10.4886C10.6036 10.2911 10.7812 9.84606 10.6974 9.7403Z" fill="#FF9900"/>
</svg>
