<svg width="16" height="16" viewBox="0 0 16 16" fill="none" xmlns="http://www.w3.org/2000/svg">
<path d="M14.5 6V12C14.5 12.8284 13.8284 13.5 13 13.5H3C2.17157 13.5 1.5 12.8284 1.5 12V4C1.5 3.17157 2.17157 2.5 3 2.5H5.67157C6.0694 2.5 6.45093 2.65803 6.73223 2.93934L7.56066 3.76777C8.0295 4.23661 8.66539 4.5 9.32843 4.5H13C13.8284 4.5 14.5 5.17157 14.5 6Z" fill="#132B38" stroke="#132B38"/>
<path d="M6.97766 9.29153C6.75368 9.35509 6.60674 9.46654 6.50994 9.57791C6.60265 9.49677 6.72684 9.42231 6.89437 9.37482C7.06571 9.32626 7.21189 9.3266 7.33268 9.34991V9.25546C7.22964 9.24604 7.11151 9.25355 6.97766 9.29153ZM6.4997 8.49754L5.66789 8.71669C5.66789 8.71669 5.68305 8.7381 5.71112 8.76668L6.41639 8.58083C6.41639 8.58083 6.4064 8.70961 6.31961 8.82482C6.48378 8.70061 6.4997 8.49754 6.4997 8.49754ZM7.19599 10.4525C6.0254 10.7677 5.40608 9.41115 5.21858 8.70702C5.13195 8.38201 5.09413 8.13585 5.08405 7.977C5.08297 7.96051 5.08347 7.9466 5.08463 7.93386C5.02391 7.93753 4.99484 7.96909 5.00075 8.06031C5.01083 8.21907 5.04865 8.46521 5.13528 8.79033C5.3227 9.49435 5.9421 10.8509 7.1127 10.5357C7.36749 10.467 7.55891 10.342 7.70261 10.1824C7.57016 10.302 7.40439 10.3962 7.19599 10.4525ZM7.41597 7.6673V7.75061H7.87512C7.8657 7.72111 7.85621 7.69453 7.84679 7.6673H7.41597Z" fill="#2D4552"/>
<path d="M7.9778 8.35337C8.18429 8.41202 8.2935 8.55679 8.35122 8.68491L8.58146 8.7503C8.58146 8.7503 8.55005 8.30191 8.14447 8.1867C7.76505 8.0789 7.53156 8.39752 7.50316 8.43875C7.61354 8.36012 7.77471 8.29574 7.9778 8.35337ZM9.81052 8.68698C9.43075 8.57869 9.19736 8.89797 9.16937 8.93863C9.27983 8.86008 9.44092 8.79568 9.64392 8.85358C9.85008 8.91231 9.9592 9.05691 10.0171 9.18511L10.2477 9.25075C10.2477 9.25075 10.2158 8.80227 9.81052 8.68698ZM9.58178 9.86923L7.66652 9.3338C7.66652 9.3338 7.68725 9.43892 7.76681 9.57503L9.37938 10.0258C9.51214 9.94903 9.58178 9.86923 9.58178 9.86923ZM8.25392 11.0217C6.7374 10.6152 6.92074 8.68291 7.16614 7.76729C7.26717 7.38995 7.37105 7.10949 7.45719 6.92149C7.40579 6.91091 7.36323 6.93798 7.32116 7.02353C7.2297 7.20903 7.11274 7.51107 6.99955 7.93389C6.75423 8.84949 6.57089 10.7817 8.08734 11.1883C8.80212 11.3798 9.35895 11.0887 9.77404 10.6317C9.38004 10.9885 8.877 11.1886 8.25392 11.0217Z" fill="#2D4552"/>
<path d="M7.41559 9.99961V9.6097L6.33222 9.9169C6.33222 9.9169 6.41227 9.45177 6.97728 9.29149C7.14862 9.24293 7.29482 9.24326 7.41559 9.26658V7.66726H7.95803C7.89897 7.48475 7.84183 7.34424 7.79384 7.24661C7.71446 7.08502 7.63308 7.19214 7.44833 7.34666C7.31822 7.45536 6.98936 7.68727 6.49449 7.82062C5.99961 7.95406 5.59953 7.91867 5.4326 7.88976C5.19595 7.84893 5.07217 7.79696 5.08375 7.97696C5.09383 8.13573 5.13165 8.38188 5.21828 8.70699C5.4057 9.41102 6.0251 10.7676 7.19569 10.4523C7.50147 10.3699 7.7173 10.2071 7.8669 9.99953H7.41559V9.99961ZM5.66742 8.71665L6.49932 8.49751C6.49932 8.49751 6.47507 8.81753 6.16321 8.89975C5.85126 8.98188 5.66742 8.71665 5.66742 8.71665Z" fill="#E2574C"/>
<path d="M10.5473 7.68576C10.331 7.72367 9.81224 7.7709 9.17111 7.59905C8.5298 7.4273 8.1043 7.12692 7.93572 6.98573C7.69674 6.78557 7.59161 6.64646 7.48816 6.85687C7.3967 7.04246 7.27974 7.3445 7.16653 7.76732C6.92123 8.68292 6.73789 10.6151 8.25432 11.0217C9.77044 11.4279 10.5776 9.66284 10.8229 8.74715C10.9361 8.32441 10.9858 8.0043 10.9994 7.79789C11.015 7.56408 10.8544 7.63195 10.5473 7.68576ZM7.50048 8.44328C7.50048 8.44328 7.73946 8.0716 8.14478 8.1868C8.55036 8.30201 8.58177 8.7504 8.58177 8.7504L7.50048 8.44328ZM8.48989 10.1112C7.77695 9.90232 7.667 9.33381 7.667 9.33381L9.58218 9.86926C9.58218 9.86918 9.1956 10.3174 8.48989 10.1112ZM9.16702 8.94281C9.16702 8.94281 9.40567 8.57139 9.81092 8.68692C10.2162 8.8023 10.2481 9.25069 10.2481 9.25069L9.16702 8.94281Z" fill="#2EAD33"/>
<path d="M7.03708 9.71704L6.33231 9.91679C6.33231 9.91679 6.40886 9.48066 6.92805 9.30781L6.52897 7.81012L6.49449 7.8206C5.99961 7.95406 5.59953 7.91865 5.4326 7.88974C5.19596 7.84893 5.07217 7.79694 5.08375 7.97696C5.09383 8.13573 5.13165 8.38187 5.21828 8.70699C5.4057 9.41101 6.0251 10.7676 7.19569 10.4523L7.23017 10.4415L7.03708 9.71704ZM5.6675 8.71665L6.4994 8.49749C6.4994 8.49749 6.47516 8.81752 6.16329 8.89973C5.85134 8.98186 5.6675 8.71665 5.6675 8.71665Z" fill="#D65348"/>
<path d="M8.52205 10.119L8.4898 10.1111C7.77687 9.90232 7.66691 9.33381 7.66691 9.33381L8.65449 9.60986L9.17735 7.60072L9.17102 7.59905C8.52971 7.4273 8.10423 7.12692 7.93563 6.98573C7.69665 6.78557 7.59153 6.64646 7.48807 6.85687C7.3967 7.04246 7.27974 7.3445 7.16653 7.76732C6.92123 8.68292 6.73789 10.6151 8.25432 11.0217L8.2854 11.0287L8.52205 10.119ZM7.50048 8.44328C7.50048 8.44328 7.73946 8.0716 8.14478 8.1868C8.55036 8.30201 8.58177 8.7504 8.58177 8.7504L7.50048 8.44328Z" fill="#1D8D22"/>
<path d="M7.07287 9.70685L6.88387 9.76049C6.92852 10.0122 7.00722 10.2538 7.13075 10.4672C7.15225 10.4624 7.17358 10.4584 7.19548 10.4524C7.25288 10.4369 7.3061 10.4177 7.35734 10.3968C7.21931 10.192 7.12801 9.95607 7.07287 9.70685ZM6.99907 7.93394C6.90194 8.29645 6.81505 8.81823 6.83897 9.34158C6.88178 9.323 6.92701 9.30569 6.97724 9.29144L7.01223 9.28361C6.96957 8.72459 7.06178 8.15493 7.16565 7.76734C7.19199 7.66929 7.21839 7.57809 7.24471 7.49304C7.20231 7.52002 7.15667 7.54767 7.10468 7.57616C7.06962 7.68438 7.03422 7.80266 6.99907 7.93394Z" fill="#C04B41"/>
</svg>
