<svg width="16" height="16" viewBox="0 0 16 16" fill="none" xmlns="http://www.w3.org/2000/svg">
<path d="M14.5 6V12C14.5 12.8284 13.8284 13.5 13 13.5H3C2.17157 13.5 1.5 12.8284 1.5 12V4C1.5 3.17157 2.17157 2.5 3 2.5H5.67157C6.0694 2.5 6.45093 2.65803 6.73223 2.93934L7.56066 3.76777C8.0295 4.23661 8.66539 4.5 9.32843 4.5H13C13.8284 4.5 14.5 5.17157 14.5 6Z" fill="#CED0D6" stroke="#CED0D6"/>
<path d="M5.78452 10.9846H8.40936C8.9006 10.9846 9.19389 10.7011 9.19389 10.2098V7.78781C9.19389 7.29901 8.92505 7.0155 8.43381 7.0155H5.78452C5.31528 7.0155 5 7.29901 5 7.78781V10.2098C5 10.7011 5.29328 10.9846 5.78452 10.9846ZM9.52626 9.72099L10.4159 10.4909C10.499 10.5642 10.5967 10.6106 10.6847 10.6106C10.8754 10.6106 11 10.4713 11 10.2709V7.72915C11 7.52874 10.8754 7.38943 10.6847 7.38943C10.5967 7.38943 10.499 7.43587 10.4159 7.50919L9.52626 8.2766V9.72099Z" fill="#2B2D30"/>
</svg>
