<svg width="16" height="16" viewBox="0 0 16 16" fill="none" xmlns="http://www.w3.org/2000/svg">
<path d="M3 13.5C2.17157 13.5 1.5 12.8284 1.5 12V4C1.5 3.17157 2.17157 2.5 3 2.5H5.67157C6.0694 2.5 6.45093 2.65803 6.73223 2.93934L7.56066 3.76777C8.0295 4.23661 8.66539 4.5 9.32843 4.5H13C13.8284 4.5 14.5 5.17157 14.5 6V12C14.5 12.8284 13.8284 13.5 13 13.5H3Z" fill="white" stroke="white"/>
<path d="M8.79151 10.729C9.68492 10.6322 10.5272 10.1675 10.9909 9.39205C10.7713 11.3101 8.62238 12.5225 6.8683 11.7781C6.70667 11.7097 6.56754 11.5959 6.47206 11.4496C6.07787 10.8455 5.94829 10.0768 6.13448 9.37918C6.66643 10.2752 7.74807 10.8245 8.79151 10.729Z" fill="#F3B01C"/>
<path d="M6.10167 8.81635C5.73953 9.63316 5.72385 10.5895 6.16782 11.3765C4.60538 10.2292 4.62243 7.77401 6.14873 6.6382C6.2899 6.53322 6.45767 6.47091 6.63362 6.46142C7.35722 6.42417 8.0924 6.69712 8.60799 7.20576C7.56045 7.21592 6.54019 7.87086 6.10167 8.81635Z" fill="#8D2676"/>
<path d="M9.11324 7.45704C8.5847 6.73776 7.75744 6.24808 6.85107 6.23318C8.60311 5.45701 10.7582 6.71541 10.9928 8.57592C11.0146 8.74863 10.986 8.92472 10.9076 9.0805C10.5802 9.72934 9.97323 10.2326 9.26396 10.4188C9.78364 9.47806 9.71953 8.32871 9.11324 7.45704Z" fill="#EE342F"/>
</svg>
