<svg width="16" height="16" viewBox="0 0 16 16" fill="none" xmlns="http://www.w3.org/2000/svg">
<path d="M13 14H3C1.89543 14 1 13.1046 1 12V4C1 2.89543 1.89543 2 3 2H5.67157C6.20201 2 6.71071 2.21071 7.08579 2.58579L7.91421 3.41421C8.28929 3.78929 8.79799 4 9.32843 4H13C14.1046 4 15 4.89543 15 6V12C15 13.1046 14.1046 14 13 14Z" fill="#F03C2E"/>
<path d="M10.887 8.7328L8.2673 6.11327C8.23141 6.07736 8.1888 6.04887 8.1419 6.02944C8.095 6.01 8.04473 6 7.99396 6C7.9432 6 7.89293 6.01 7.84603 6.02944C7.79913 6.04887 7.75652 6.07736 7.72063 6.11327L7.17683 6.65733L7.86676 7.34726C7.94788 7.31971 8.03508 7.31541 8.11851 7.33484C8.20194 7.35427 8.27827 7.39666 8.33886 7.45722C8.39979 7.51821 8.44233 7.59512 8.4616 7.67915C8.48087 7.76318 8.4761 7.85094 8.44784 7.93239L9.11303 8.59737C9.1945 8.56908 9.28229 8.56431 9.36634 8.58362C9.4504 8.60293 9.52731 8.64554 9.58826 8.70655C9.63096 8.74924 9.66482 8.79992 9.68793 8.8557C9.71104 8.91147 9.72293 8.97126 9.72293 9.03163C9.72293 9.09201 9.71104 9.15179 9.68793 9.20757C9.66482 9.26335 9.63096 9.31403 9.58826 9.35672C9.50194 9.44294 9.38493 9.49138 9.26292 9.49138C9.14091 9.49138 9.02389 9.44294 8.93757 9.35672C8.87345 9.29249 8.82976 9.21073 8.81201 9.12172C8.79425 9.03272 8.80323 8.94045 8.8378 8.85654L8.21748 8.23641V9.86865C8.28295 9.90099 8.33978 9.94847 8.38325 10.0071C8.42672 10.0658 8.45559 10.134 8.46746 10.2061C8.47933 10.2781 8.47386 10.352 8.45151 10.4215C8.42916 10.491 8.39057 10.5542 8.33893 10.6059C8.29624 10.6485 8.24556 10.6824 8.18978 10.7055C8.134 10.7286 8.07422 10.7405 8.01385 10.7405C7.95347 10.7405 7.89369 10.7286 7.83791 10.7055C7.78213 10.6824 7.73145 10.6485 7.68876 10.6059C7.64606 10.5632 7.61218 10.5125 7.58907 10.4567C7.56596 10.4009 7.55406 10.3411 7.55406 10.2807C7.55406 10.2204 7.56596 10.1606 7.58907 10.1048C7.61218 10.049 7.64606 9.99831 7.68876 9.95562C7.73178 9.91252 7.78292 9.87836 7.83921 9.85513V8.20788C7.78315 8.18478 7.7322 8.15084 7.68929 8.108C7.64638 8.06516 7.61236 8.01426 7.58919 7.95824C7.56601 7.90221 7.55413 7.84215 7.55423 7.78152C7.55433 7.72089 7.56641 7.66087 7.58977 7.60492L6.90951 6.92452L5.11305 8.72052C5.04066 8.79306 5 8.89135 5 8.99383C5 9.0963 5.04066 9.19459 5.11305 9.26713L7.7329 11.887C7.80544 11.9594 7.90371 12 8.00617 12C8.10863 12 8.20691 11.9594 8.27944 11.887L10.887 9.2794C10.9594 9.20687 11.0001 9.10858 11.0001 9.0061C11.0001 8.90362 10.9594 8.80533 10.887 8.7328Z" fill="white"/>
</svg>
