<svg width="16" height="16" viewBox="0 0 16 16" fill="none" xmlns="http://www.w3.org/2000/svg">
<path d="M13 14H3C1.89543 14 1 13.1046 1 12V4C1 2.89543 1.89543 2 3 2H5.67157C6.20201 2 6.71071 2.21071 7.08579 2.58579L7.91421 3.41421C8.28929 3.78929 8.79799 4 9.32843 4H13C14.1046 4 15 4.89543 15 6V12C15 13.1046 14.1046 14 13 14Z" fill="white"/>
<path fill-rule="evenodd" clip-rule="evenodd" d="M8.00247 6C6.34218 6 5 7.37499 5 9.07605C5 10.4358 5.85998 11.5868 7.05301 11.9942C7.20216 12.0248 7.2568 11.928 7.2568 11.8465C7.2568 11.7752 7.25188 11.5308 7.25188 11.2761C6.41667 11.4595 6.24274 10.9094 6.24274 10.9094C6.10852 10.5529 5.90964 10.4613 5.90964 10.4613C5.63627 10.2729 5.92955 10.2729 5.92955 10.2729C6.23279 10.2932 6.3919 10.5886 6.3919 10.5886C6.66029 11.0571 7.09277 10.9247 7.26676 10.8432C7.29159 10.6446 7.37117 10.5071 7.45568 10.4307C6.78953 10.3594 6.08867 10.0946 6.08867 8.91305C6.08867 8.57693 6.2079 8.30193 6.39682 8.08805C6.36701 8.01168 6.26259 7.69587 6.42669 7.27318C6.42669 7.27318 6.6802 7.19168 7.25182 7.58893C7.49655 7.5216 7.74894 7.48734 8.00247 7.48706C8.25598 7.48706 8.51442 7.52274 8.75306 7.58893C9.32474 7.19168 9.57825 7.27318 9.57825 7.27318C9.74235 7.69587 9.63787 8.01168 9.60806 8.08805C9.80196 8.30193 9.91627 8.57693 9.91627 8.91305C9.91627 10.0946 9.21541 10.3543 8.54428 10.4307C8.65368 10.5275 8.74808 10.7108 8.74808 11.0011C8.74808 11.4136 8.74316 11.7447 8.74316 11.8465C8.74316 11.928 8.79786 12.0248 8.94696 11.9942C10.14 11.5867 11 10.4358 11 9.07605C11.0049 7.37499 9.65778 6 8.00247 6Z" fill="#43454A"/>
</svg>
