<svg width="16" height="16" viewBox="0 0 16 16" fill="none" xmlns="http://www.w3.org/2000/svg">
<path d="M13 14H3C1.89543 14 1 13.1046 1 12V4C1 2.89543 1.89543 2 3 2H5.67157C6.20201 2 6.71071 2.21071 7.08579 2.58579L7.91421 3.41421C8.28929 3.78929 8.79799 4 9.32843 4H13C14.1046 4 15 4.89543 15 6V12C15 13.1046 14.1046 14 13 14Z" fill="white"/>
<path d="M4.19482 10.5V7.5H5.06398L7.0764 9.52493L6.19926 9.0946H6.65246V7.5H7.64617V10.5H6.7834L4.76672 8.44793L5.64413 8.88463H5.18879V10.5H4.19482Z" fill="black"/>
<path d="M7.94629 10.5L9.39751 8.67866L9.15632 9.34183V8.97192L7.94629 7.5H9.18544L9.89024 8.43968H10.3664L9.68442 8.75982L10.5951 7.5H11.8051L10.5555 8.97591V9.34396L10.3081 8.68717L11.7988 10.5H10.5971L9.85489 9.57682H9.38088L10.0836 9.26306L9.1002 10.5H7.94629Z" fill="black"/>
</svg>
