<svg width="16" height="16" viewBox="0 0 16 16" fill="none" xmlns="http://www.w3.org/2000/svg">
<path d="M13 14H3C1.89543 14 1 13.1046 1 12V4C1 2.89543 1.89543 2 3 2H5.67157C6.20201 2 6.71071 2.21071 7.08579 2.58579L7.91421 3.41421C8.28929 3.78929 8.79799 4 9.32843 4H13C14.1046 4 15 4.89543 15 6V12C15 13.1046 14.1046 14 13 14Z" fill="#3178C6"/>
<path d="M5.70224 10.5V8.2713H4.57959V7.5H7.86441V8.2713H6.74383V10.5H5.70224Z" fill="white"/>
<path d="M9.84998 10.5C9.51686 10.5 9.23001 10.4645 8.98942 10.3931C8.74882 10.3216 8.55915 10.2173 8.42034 10.0797C8.28153 9.94086 8.1976 9.77234 8.16851 9.57411L8.16455 9.54442H9.12227L9.12623 9.55812C9.13945 9.61497 9.1758 9.66396 9.23529 9.70508C9.2961 9.74467 9.37871 9.77564 9.48316 9.79822C9.58757 9.81929 9.71448 9.82995 9.86387 9.82995C9.98151 9.82995 10.0826 9.82005 10.1672 9.80025C10.2532 9.77893 10.3192 9.74924 10.3655 9.71091C10.4118 9.67259 10.4349 9.62843 10.4349 9.57817V9.57614C10.4349 9.51269 10.4065 9.4665 10.3497 9.43731C10.2928 9.40812 10.1937 9.38579 10.0522 9.3698L9.32255 9.31624C8.94975 9.28071 8.67414 9.19264 8.49569 9.05254C8.31854 8.91117 8.22998 8.71548 8.22998 8.46574V8.46167C8.22998 8.26091 8.29079 8.08883 8.41239 7.94619C8.53534 7.80203 8.71049 7.69162 8.93785 7.61497C9.16524 7.53832 9.43623 7.5 9.75085 7.5C10.0668 7.5 10.3371 7.53629 10.5618 7.60914C10.7879 7.68046 10.9663 7.7835 11.0972 7.91853C11.2281 8.0533 11.3094 8.21523 11.3411 8.40431L11.347 8.43604H10.3992L10.3953 8.42005C10.3807 8.36447 10.347 8.31904 10.2941 8.28325C10.2426 8.24619 10.1725 8.21853 10.084 8.2C9.99539 8.1802 9.88897 8.1703 9.76473 8.1703C9.64179 8.1703 9.53998 8.17944 9.45935 8.19797C9.37871 8.21523 9.3179 8.24086 9.27694 8.27538C9.23595 8.30838 9.21546 8.34797 9.21546 8.39442V8.39619C9.21546 8.45964 9.24587 8.50736 9.30668 8.53909C9.36882 8.57081 9.47125 8.59391 9.61402 8.60838L10.3576 8.66396C10.5969 8.68782 10.7951 8.73325 10.9524 8.80076C11.1098 8.86701 11.2268 8.95812 11.3034 9.07437C11.3814 9.18934 11.4204 9.33097 11.4204 9.49873V9.50076C11.4204 9.70685 11.3583 9.88553 11.234 10.036C11.1098 10.1855 10.9306 10.3005 10.6967 10.3812C10.4627 10.4604 10.1805 10.5 9.84998 10.5Z" fill="white"/>
</svg>
