<svg width="16" height="16" viewBox="0 0 16 16" fill="none" xmlns="http://www.w3.org/2000/svg">
<g clip-path="url(#clip0_157_5959)">
<rect width="16" height="16" rx="3" fill="#FF61F6"/>
<path d="M8.42671 4.70622L6.35275 8.12827L8.56498 11.7577C8.5788 11.7854 8.58572 11.813 8.5788 11.8407C8.57189 11.8683 8.54424 11.8476 8.50276 11.8545H6.91963C6.80902 11.8545 6.73297 11.8476 6.68458 11.7785C6.5394 11.4881 6.38731 11.2047 6.24213 10.9143C6.09696 10.6309 5.93795 10.3405 5.77204 10.0432C5.60612 9.74596 5.4402 9.44869 5.27428 9.14451H5.26046C5.11528 9.44178 4.95627 9.73905 4.79727 10.0363C4.63827 10.3336 4.47926 10.6309 4.32717 10.9212C4.16817 11.2116 4.00916 11.5088 3.85016 11.7923C3.82251 11.8614 3.7672 11.8683 3.69115 11.8683H2.17025C2.14259 11.8683 2.12185 11.8821 2.12185 11.8476C2.11494 11.8199 2.12185 11.7923 2.13568 11.7715L4.28569 8.24579L2.19098 4.69931C2.17025 4.67166 2.16333 4.644 2.17716 4.63018C2.19098 4.60944 2.21864 4.60252 2.24629 4.60252H3.81559C3.85016 4.60252 3.88473 4.60944 3.91238 4.61635C3.94003 4.63018 3.96077 4.65092 3.98151 4.67857C4.11286 4.97584 4.26495 5.27311 4.42396 5.57038C4.58987 5.86764 4.74888 6.158 4.92171 6.44835C5.08763 6.73871 5.23972 7.02907 5.38489 7.32633H5.39872C5.5439 7.02215 5.69599 6.72488 5.84808 6.43453C6.00017 6.14417 6.15918 5.85382 6.31818 5.56346C6.47718 5.27311 6.62928 4.97584 6.78137 4.6924C6.78828 4.66474 6.80211 4.63709 6.82285 4.62326C6.8505 4.60944 6.87815 4.60252 6.91272 4.60944H8.37141C8.40597 4.60252 8.44054 4.62326 8.44745 4.65783C8.45437 4.66474 8.44054 4.6924 8.42671 4.70622Z" fill="black"/>
<path d="M11.6207 11.9997C11.1091 12.0066 10.5975 11.9029 10.1343 11.6886C9.69881 11.4881 9.33932 11.1563 9.09045 10.7484C8.83466 10.3267 8.71022 9.80127 8.71022 9.17217C8.70331 8.66059 8.83466 8.15592 9.09045 7.71348C9.35315 7.26412 9.73338 6.8908 10.1897 6.64193C10.6736 6.37231 11.2543 6.24096 11.9387 6.24096C11.9733 6.24096 12.0217 6.24096 12.0839 6.24787C12.1461 6.25479 12.2152 6.25479 12.2982 6.2617V4.07712C12.2982 4.02873 12.3189 4.00107 12.3673 4.00107H13.7707C13.8053 3.99416 13.8329 4.02181 13.8398 4.04947C13.8398 4.05638 13.8398 4.06329 13.8398 4.06329V10.6447C13.8398 10.7691 13.8467 10.9074 13.8537 11.0595C13.8675 11.2047 13.8744 11.3429 13.8813 11.4604C13.8813 11.5088 13.8606 11.5503 13.8122 11.5711C13.4527 11.7231 13.0725 11.8338 12.6853 11.9029C12.3328 11.9651 11.9802 11.9997 11.6207 11.9997ZM12.2982 10.617V7.57521C12.236 7.56139 12.1737 7.54756 12.1115 7.54065C12.0355 7.53373 11.9594 7.52682 11.8834 7.52682C11.6138 7.52682 11.3442 7.58213 11.1022 7.70656C10.8671 7.82409 10.6667 7.99692 10.5146 8.21814C10.3625 8.43937 10.2864 8.73663 10.2864 9.09612C10.2795 9.33808 10.321 9.58005 10.404 9.80818C10.4731 9.99484 10.5768 10.1608 10.7151 10.299C10.8464 10.4235 11.0054 10.5202 11.1852 10.5756C11.3718 10.6378 11.5654 10.6654 11.759 10.6654C11.8627 10.6654 11.9594 10.6585 12.0493 10.6516C12.1392 10.6585 12.2152 10.6447 12.2982 10.617Z" fill="black"/>
</g>
<defs>
<clipPath id="clip0_157_5959">
<rect width="16" height="16" fill="white"/>
</clipPath>
</defs>
</svg>
