<svg width="16" height="16" viewBox="0 0 16 16" fill="none" xmlns="http://www.w3.org/2000/svg">
<g clip-path="url(#clip0_157_5944)">
<rect width="16" height="16" rx="3" fill="#9999FF"/>
<path d="M6.41955 9.96552H3.63863L3.07049 11.7298C3.05553 11.797 2.99573 11.8419 2.92845 11.8344H1.52304C1.44081 11.8344 1.41838 11.7896 1.44081 11.6999L3.84795 4.79989C3.87037 4.72513 3.8928 4.65785 3.9227 4.56814C3.9526 4.41116 3.96756 4.24669 3.96756 4.08223C3.96008 4.04485 3.98998 4.00748 4.02736 4H4.04979H5.96354C6.01587 4 6.05324 4.02243 6.06072 4.0598L8.78931 11.6849C8.81174 11.7671 8.78931 11.8045 8.71455 11.8045H7.15216C7.09983 11.812 7.0475 11.7746 7.03255 11.7223L6.41955 9.92814V9.96552ZM4.07221 8.47788H5.97101C5.92616 8.32089 5.86635 8.134 5.79907 7.93963C5.73179 7.73779 5.66451 7.521 5.59723 7.29673C5.52248 7.06499 5.4552 6.84072 5.38044 6.60898C5.30569 6.37724 5.23841 6.16044 5.1786 5.94365C5.1188 5.73434 5.06647 5.53997 5.01414 5.36056H4.99919C4.93191 5.68201 4.84967 6.00346 4.74502 6.32491C4.63288 6.68374 4.52075 7.05752 4.40114 7.43129C4.30396 7.81255 4.18435 8.1639 4.07221 8.47788Z" fill="black"/>
<path d="M13.1921 9.29271H10.8223C10.8522 9.52445 10.927 9.7562 11.054 9.95804C11.1886 10.1599 11.3755 10.3169 11.5998 10.4066C11.8988 10.5337 12.2277 10.6009 12.5566 10.5935C12.8183 10.586 13.0799 10.5636 13.3341 10.5112C13.5658 10.4813 13.7901 10.4215 13.9994 10.3393C14.0368 10.3094 14.0592 10.3243 14.0592 10.3991V11.5429C14.0592 11.5728 14.0517 11.6027 14.0443 11.6326C14.0293 11.655 14.0144 11.6699 13.9919 11.6849C13.7527 11.7896 13.506 11.8643 13.2444 11.9092C12.893 11.9764 12.5417 12.0063 12.1829 11.9989C11.6147 11.9989 11.1363 11.9092 10.7475 11.7372C10.3812 11.5802 10.0598 11.3335 9.80562 11.027C9.5664 10.7355 9.39446 10.4066 9.2898 10.0477C9.18514 9.69639 9.13281 9.33009 9.13281 8.95631C9.13281 8.55263 9.19262 8.15642 9.3197 7.76769C9.43931 7.39391 9.6262 7.05003 9.88037 6.74353C10.1271 6.44451 10.4336 6.20529 10.7849 6.03335C11.1363 5.86142 11.5549 5.80161 12.0333 5.80161C12.4295 5.79414 12.8258 5.86889 13.1921 6.03335C13.4986 6.16791 13.7677 6.36976 13.977 6.6314C14.1714 6.88557 14.3283 7.16964 14.4255 7.48362C14.5227 7.78264 14.5676 8.08914 14.5676 8.39564C14.5676 8.57505 14.5601 8.73204 14.5526 8.87408C14.5377 9.01611 14.5302 9.12077 14.5227 9.18805C14.5152 9.24038 14.4704 9.28523 14.4181 9.28523C14.3732 9.28523 14.291 9.29271 14.1714 9.30019C14.0518 9.31514 13.9097 9.32261 13.7378 9.32261C13.5658 9.32261 13.3864 9.29271 13.1921 9.29271ZM10.8223 8.20127H12.3996C12.594 8.20127 12.736 8.20127 12.8258 8.1938C12.8856 8.18632 12.9454 8.17137 12.9977 8.13399V8.05924C12.9977 7.96206 12.9827 7.87235 12.9528 7.78264C12.8183 7.36401 12.4221 7.07994 11.981 7.09489C11.5699 7.07246 11.1811 7.28925 10.9868 7.66303C10.8971 7.83497 10.8447 8.01438 10.8223 8.20127Z" fill="black"/>
</g>
<defs>
<clipPath id="clip0_157_5944">
<rect width="16" height="16" fill="white"/>
</clipPath>
</defs>
</svg>
