<svg width="16" height="16" viewBox="0 0 16 16" fill="none" xmlns="http://www.w3.org/2000/svg">
<g clip-path="url(#clip0_157_5954)">
<rect width="16" height="16" rx="3" fill="#FF3366"/>
<path d="M5.67727 4.71715V11.788C5.67546 11.8148 5.664 11.84 5.64502 11.859C5.62604 11.878 5.60083 11.8894 5.57405 11.8912H4.23213C4.20535 11.8894 4.18013 11.878 4.16115 11.859C4.14217 11.84 4.13072 11.8148 4.12891 11.788V4.71715C4.18052 4.61392 4.18052 4.61392 4.28374 4.61392H5.62566L5.67727 4.71715Z" fill="black"/>
<path d="M9.65092 11.9999C9.1359 12.0019 8.62612 11.8964 8.15417 11.6902C7.73073 11.482 7.37339 11.1604 7.12193 10.7612C6.85804 10.2894 6.7328 9.75267 6.76064 9.21282C6.74973 8.69989 6.87842 8.19364 7.13296 7.74818C7.38751 7.30273 7.75833 6.93484 8.20578 6.68383C8.74734 6.40256 9.35044 6.26065 9.9606 6.27093H10.3219V4.10322C10.3219 4.05161 10.3219 4 10.3735 4H11.767L11.8186 4.05161V11.0192C11.8103 11.1589 11.8278 11.2989 11.8702 11.4321C11.8702 11.4838 11.8702 11.5354 11.8186 11.5354C11.457 11.6927 11.0746 11.797 10.6832 11.845C10.3494 11.9506 10.001 12.0029 9.65092 11.9999ZM10.3219 10.6064V7.56124C10.2703 7.56124 10.2187 7.50962 10.1154 7.50962H9.90898C9.64338 7.51111 9.38055 7.56368 9.1348 7.66446C8.90036 7.77906 8.70343 7.95809 8.56707 8.18058C8.40849 8.44439 8.33631 8.75115 8.36062 9.05799C8.36964 9.30179 8.40424 9.54398 8.46384 9.78056C8.50359 9.96942 8.61447 10.1357 8.77352 10.2451C8.91675 10.3505 9.07285 10.4372 9.23803 10.5031C9.4219 10.5624 9.6128 10.5971 9.80576 10.6064H10.1154C10.167 10.658 10.2703 10.6064 10.3219 10.6064Z" fill="black"/>
</g>
<defs>
<clipPath id="clip0_157_5954">
<rect width="16" height="16" fill="white"/>
</clipPath>
</defs>
</svg>
