<svg width="16" height="16" viewBox="0 0 16 16" fill="none" xmlns="http://www.w3.org/2000/svg">
<g clip-path="url(#clip0_157_5949)">
<rect width="16" height="16" rx="3" fill="#FF9A00"/>
<path d="M8.0221 10.2053H5.39052L4.86421 11.8368C4.86421 11.8895 4.81157 11.9421 4.70631 11.9421H3.44315C3.41584 11.9403 3.39013 11.9286 3.37078 11.9092C3.35142 11.8899 3.33974 11.8642 3.33789 11.8368L5.60105 5.31053C5.65368 5.2579 5.65368 5.20526 5.65368 5.1C5.6971 4.94606 5.71488 4.78603 5.70631 4.62632L5.75894 4.57368H7.54842C7.60105 4.57368 7.65368 4.57368 7.65368 4.62632L10.2326 11.8368C10.2326 11.8895 10.2326 11.9421 10.18 11.9421H8.70631C8.679 11.9403 8.65329 11.9286 8.63393 11.9092C8.61458 11.8899 8.6029 11.8642 8.60105 11.8368L8.0221 10.2053ZM5.81157 8.78421H7.60105C7.54842 8.62632 7.49579 8.46842 7.44315 8.2579C7.39649 8.05716 7.3258 7.86277 7.23263 7.67895C7.18 7.46842 7.07473 7.2579 7.0221 7.04737C6.97584 6.82961 6.90522 6.61775 6.81157 6.41579C6.74203 6.24588 6.68915 6.06961 6.65368 5.88947C6.59757 6.19612 6.50937 6.49602 6.39052 6.78421C6.28526 7.1 6.18 7.46842 6.07473 7.83684C6.01158 8.15895 5.9236 8.47568 5.81157 8.78421Z" fill="black"/>
<path d="M11.7582 5.78947C11.5228 5.78129 11.2983 5.68776 11.1267 5.52632C10.98 5.3495 10.9049 5.12418 10.9161 4.89474C10.9243 4.65926 11.0179 4.43478 11.1793 4.26316C11.262 4.17977 11.3604 4.11359 11.4688 4.06842C11.5772 4.02325 11.6934 4 11.8109 4C11.9283 4 12.0446 4.02325 12.153 4.06842C12.2614 4.11359 12.3598 4.17977 12.4425 4.26316C12.5256 4.34387 12.5881 4.44337 12.6247 4.55328C12.6614 4.66319 12.671 4.7803 12.653 4.89474C12.666 5.01367 12.6487 5.13396 12.6027 5.2444C12.5567 5.35484 12.4835 5.45183 12.3898 5.52632C12.3077 5.61052 12.2095 5.67724 12.1009 5.72246C11.9924 5.76769 11.8758 5.79048 11.7582 5.78947ZM11.0214 11.8421V6.47368C11.0232 6.44637 11.0349 6.42066 11.0543 6.40131C11.0736 6.38195 11.0994 6.37027 11.1267 6.36842H12.4951C12.5224 6.37027 12.5481 6.38195 12.5675 6.40131C12.5868 6.42066 12.5985 6.44637 12.6003 6.47368V11.8947C12.5985 11.922 12.5868 11.9478 12.5675 11.9671C12.5481 11.9865 12.5224 11.9982 12.4951 12H11.1267C11.0214 12 11.0214 11.9474 11.0214 11.8421Z" fill="black"/>
</g>
<defs>
<clipPath id="clip0_157_5949">
<rect width="16" height="16" fill="white"/>
</clipPath>
</defs>
</svg>
