<svg width="16" height="16" viewBox="0 0 16 16" fill="none" xmlns="http://www.w3.org/2000/svg">
<g clip-path="url(#clip0_157_5970)">
<rect width="16" height="16" rx="3" fill="#4FAF53"/>
<mask id="mask0_157_5970" style="mask-type:alpha" maskUnits="userSpaceOnUse" x="1" y="4" width="14" height="8">
<path d="M14.714 11.1024C14.5066 10.2535 14.139 9.45213 13.6308 8.74129C13.3088 8.28948 12.9334 7.87814 12.5129 7.5162C12.2434 7.28377 11.9563 7.07248 11.6542 6.88419L11.6617 6.87033L12.0777 6.15298L12.4847 5.45164L12.7764 4.94817C12.8517 4.8039 12.8684 4.63616 12.8231 4.47987C12.7778 4.32358 12.6739 4.19079 12.5332 4.10914C12.3924 4.02749 12.2256 4.00328 12.0674 4.04154C11.9093 4.07981 11.772 4.1776 11.6841 4.31456L11.3924 4.81803L10.9854 5.51884L10.5694 6.23672L10.5236 6.31565L10.4606 6.29059C9.67469 5.99156 8.84069 5.83882 7.99979 5.83991H7.92886C7.09392 5.84778 6.26735 6.00717 5.48935 6.31032L5.44669 6.23725L5.03068 5.51938L4.62428 4.81803L4.332 4.31456C4.2694 4.20655 4.17617 4.11954 4.0641 4.06454C3.95203 4.00954 3.82617 3.98902 3.70243 4.00558C3.5787 4.02213 3.46265 4.07503 3.36899 4.15756C3.27533 4.2401 3.20825 4.34856 3.17625 4.46923C3.13337 4.63105 3.15638 4.80328 3.24026 4.94817L3.53199 5.45217L3.93893 6.15298L4.35494 6.87086L4.35867 6.87673C3.30339 7.53203 2.44325 8.45847 1.86797 9.55943C1.61295 10.0487 1.41777 10.567 1.28663 11.1029C1.17036 11.5755 1.55277 12 2.03971 12H13.9593C14.4457 12 14.8303 11.5749 14.714 11.1024Z" fill="#34A853"/>
</mask>
<g mask="url(#mask0_157_5970)">
<path d="M14.9488 3.74763H0.279297V12.0016H14.9488V3.74763Z" fill="black"/>
<g filter="url(#filter0_f_157_5970)">
<path d="M7.72288 6.85592C9.11384 7.95994 5.19431 8.08261 3.67909 10.4906C2.1644 12.8981 3.37615 17.0843 1.9852 15.9808C1.12599 14.6598 0.991588 11.9733 2.50681 9.56476C4.0215 7.15726 6.53567 6.36578 7.71755 6.85592H7.72288Z" fill="black"/>
</g>
<g filter="url(#filter1_f_157_5970)">
<path d="M8.32408 6.84846C6.86273 7.89168 10.9817 8.00741 12.5737 10.2832C14.1658 12.5584 12.8921 16.5142 14.354 15.4715C15.257 14.223 15.3978 11.6843 13.8058 9.4085C12.2137 7.13273 9.5721 6.38499 8.32941 6.84846H8.32408Z" fill="black"/>
</g>
<g opacity="0.6" filter="url(#filter2_f_157_5970)">
<path d="M0.3883 10.2229C-0.170108 11.9803 -0.457579 13.4571 -0.253843 13.5216C-0.0501066 13.5861 0.567502 12.2149 1.12644 10.4576C1.68485 8.70075 3.98835 6.78499 3.78461 6.72045C3.58088 6.65539 0.947241 8.46608 0.3883 10.2229Z" fill="black"/>
</g>
<g opacity="0.5" filter="url(#filter3_f_157_5970)">
<path d="M14.9784 10.0629C15.5368 11.8197 15.8242 13.2965 15.6205 13.3611C15.4168 13.4261 14.7992 12.0544 14.2408 10.297C13.6823 8.54021 11.3783 6.62445 11.5821 6.55992C11.7858 6.49538 14.4194 8.30608 14.9784 10.0629Z" fill="black"/>
</g>
<g opacity="0.7" filter="url(#filter4_f_157_5970)">
<path d="M3.74443 5.37805C4.29697 6.28633 4.53911 6.7194 4.45911 6.76847C4.37911 6.81701 4.0063 6.4634 3.45323 5.55512C2.61802 4.82071 3.50123 3.82656 3.58176 3.7775C3.66176 3.72843 2.92202 4.1743 3.74443 5.37805Z" fill="black"/>
</g>
<g opacity="0.1" filter="url(#filter5_f_157_5970)">
<path d="M4.35344 6.86286C4.41957 6.8202 4.07077 6.16845 3.57316 5.40844C3.07662 4.64843 2.62008 4.06709 2.55394 4.11029C2.48781 4.15296 2.83661 4.8047 3.33422 5.56471C3.83076 6.32526 4.2873 6.9066 4.35344 6.86286Z" fill="black"/>
</g>
<g opacity="0.3" filter="url(#filter6_f_157_5970)">
<path d="M4.4322 4.91456C5.01088 5.86444 5.29301 6.30018 5.35702 6.26071C5.42102 6.22178 5.24341 5.7231 4.66474 4.77269C4.10687 3.50334 3.10098 4.26068 3.20019 4.39935C3.39326 4.77109 3.69246 3.58227 4.4322 4.91456Z" fill="black"/>
</g>
<path opacity="0.15" d="M2.64343 4.57376C2.74477 4.9247 3.14744 5.11617 3.54265 5.0015C3.93785 4.88736 4.17626 4.51082 4.07439 4.15989C3.97305 3.80895 3.57038 3.61748 3.17518 3.73215C2.7805 3.84628 2.5421 4.22282 2.64343 4.57376Z" fill="black"/>
<path opacity="0.15" d="M11.8618 4.48202C11.9664 4.84255 12.3952 5.03562 12.8192 4.91242C13.2437 4.78975 13.5029 4.39775 13.3989 4.03721C13.2944 3.67667 12.8656 3.4836 12.4416 3.6068C12.017 3.72947 11.7578 4.12148 11.8618 4.48202Z" fill="black"/>
<g opacity="0.1" filter="url(#filter7_f_157_5970)">
<path d="M11.613 6.91247C11.5458 6.87033 11.885 6.21379 12.3693 5.44578C12.8541 4.67777 13.301 4.08896 13.3677 4.13109C13.4343 4.17323 13.0957 4.82977 12.6109 5.59778C12.1266 6.36579 11.6802 6.9546 11.613 6.91247Z" fill="black"/>
</g>
<mask id="mask1_157_5970" style="mask-type:alpha" maskUnits="userSpaceOnUse" x="10" y="5" width="3" height="2">
<path d="M11.7174 6.9242C11.3921 6.72153 10.6486 6.37272 10.3174 6.22392L10.5361 5.45004L12.6737 6.30979C12.4902 6.59939 12.0427 7.1274 11.7174 6.9242Z" fill="black"/>
</mask>
<g mask="url(#mask1_157_5970)">
<g style="mix-blend-mode:multiply" opacity="0.3" filter="url(#filter8_f_157_5970)">
<path d="M11.9351 6.81117C11.3532 6.5653 10.8561 6.4245 10.8257 6.49703C10.7948 6.5701 11.2364 6.77437 11.8183 7.02077C12.4007 7.26664 12.9031 7.46131 12.934 7.38878C12.9644 7.31571 12.5175 7.05757 11.9351 6.81117Z" fill="black"/>
</g>
<g style="mix-blend-mode:screen" opacity="0.3" filter="url(#filter9_f_157_5970)">
<path d="M10.7424 6.34658C10.5803 6.26711 10.4357 6.22817 10.4203 6.25964C10.4048 6.29164 10.5269 6.35938 10.6885 6.43938C10.8507 6.51938 10.9925 6.58018 11.008 6.54871C11.0235 6.51671 10.9045 6.42604 10.7424 6.34658Z" fill="black"/>
</g>
</g>
<mask id="mask2_157_5970" style="mask-type:alpha" maskUnits="userSpaceOnUse" x="3" y="5" width="3" height="3">
<path d="M4.20878 6.98872C4.52932 6.77912 5.26533 6.41592 5.59387 6.25965L5.3592 5.49057L3.24023 6.39405C3.42904 6.67992 3.88771 7.19833 4.20878 6.98872Z" fill="black"/>
</mask>
<g mask="url(#mask2_157_5970)">
<g style="mix-blend-mode:multiply" opacity="0.3" filter="url(#filter10_f_157_5970)">
<path d="M3.98681 6.87565C4.56388 6.61751 5.05776 6.46657 5.09029 6.53858C5.12229 6.61058 4.68495 6.82445 4.10788 7.08258C3.5308 7.34072 3.03266 7.54552 3.00066 7.47352C2.96866 7.40152 3.4092 7.13378 3.98681 6.87565Z" fill="black"/>
</g>
<g style="mix-blend-mode:screen" opacity="0.3" filter="url(#filter11_f_157_5970)">
<path d="M5.16905 6.38817C5.32906 6.30497 5.47306 6.26337 5.48906 6.29483C5.50506 6.3263 5.38506 6.39617 5.22452 6.47937C5.06398 6.56257 4.92372 6.62657 4.90772 6.59511C4.89172 6.56417 5.00852 6.47137 5.16905 6.38817Z" fill="black"/>
</g>
</g>
<g opacity="0.7" filter="url(#filter12_f_157_5970)">
<path d="M12.2912 5.41589C11.7595 6.33644 11.5275 6.77538 11.6085 6.82231C11.6907 6.86924 12.0544 6.50711 12.5862 5.58603C13.4043 4.83242 12.4976 3.85854 12.416 3.8116C12.335 3.76467 13.0848 4.19347 12.2912 5.41589Z" fill="black"/>
</g>
<g opacity="0.3" filter="url(#filter13_f_157_5970)">
<path d="M11.5608 4.96577C11.0195 5.90392 10.7539 6.33272 10.6851 6.29326C10.6168 6.25379 10.7715 5.75992 11.3128 4.82284C11.9293 3.19455 13.1518 3.40948 12.9512 4.30016C12.7934 4.6655 12.2456 3.65109 11.5608 4.96577Z" fill="black"/>
</g>
<path d="M5.36016 9.15568C5.4487 9.05541 5.37403 8.84261 5.19323 8.67994C5.01189 8.51727 4.79375 8.4666 4.70522 8.5674C4.61668 8.66767 4.69135 8.88047 4.87215 9.04314C5.05349 9.20581 5.27163 9.25648 5.36016 9.15568Z" fill="black"/>
<path d="M11.3815 9.0533C11.5628 8.89063 11.6375 8.67783 11.5484 8.57756C11.4599 8.47676 11.2418 8.52742 11.061 8.68956C10.8796 8.85276 10.805 9.06556 10.894 9.16583C10.9826 9.26663 11.2007 9.21543 11.3815 9.0533Z" fill="black"/>
<path opacity="0.09" d="M5.28697 9.82343C5.50671 9.27569 5.27631 8.93809 5.13391 8.83355C4.7227 8.32475 4.16856 8.71729 4.00482 8.93862C3.84002 9.15409 3.59895 9.5413 3.83469 10.0725C4.07042 10.6032 5.01337 10.5093 5.28697 9.82343ZM10.9708 9.8357C10.7516 9.29383 10.9815 8.95035 11.1244 8.85115C11.5351 8.34235 12.0887 8.73489 12.2535 8.95622C12.4177 9.17169 12.6588 9.5589 12.4231 10.0848C12.1873 10.6101 11.2444 10.5216 10.9708 9.84103V9.8357Z" fill="black"/>
<path d="M12.21 10.2101C12.5498 9.98344 12.6047 9.45809 12.3306 9.04316C12.0564 8.62822 11.5572 8.47888 11.218 8.70555C10.8783 8.93275 10.8233 9.45756 11.0975 9.8725C11.3711 10.2874 11.8703 10.4368 12.21 10.2101Z" fill="black"/>
<path d="M5.1565 9.85596C5.43063 9.44102 5.38157 8.92634 5.04716 8.69967C4.71276 8.47887 4.22475 8.63354 3.95061 9.04261C3.67648 9.45755 3.72608 9.97169 4.06048 10.1989C4.39489 10.4197 4.88236 10.265 5.1565 9.85596ZM11.099 9.86182C10.8248 9.44742 10.8739 8.93274 11.2083 8.70607C11.5427 8.48474 12.0307 8.63994 12.3049 9.04901C12.579 9.46395 12.5294 9.97809 12.195 10.2048C11.8606 10.4261 11.3731 10.2714 11.099 9.86182Z" fill="white"/>
</g>
</g>
<defs>
<filter id="filter0_f_157_5970" x="0.349609" y="5.71759" width="8.66699" height="11.4449" filterUnits="userSpaceOnUse" color-interpolation-filters="sRGB">
<feFlood flood-opacity="0" result="BackgroundImageFix"/>
<feBlend mode="normal" in="SourceGraphic" in2="BackgroundImageFix" result="shape"/>
<feGaussianBlur stdDeviation="0.5" result="effect1_foregroundBlur_157_5970"/>
</filter>
<filter id="filter1_f_157_5970" x="7.01562" y="5.71759" width="9.00586" height="10.9256" filterUnits="userSpaceOnUse" color-interpolation-filters="sRGB">
<feFlood flood-opacity="0" result="BackgroundImageFix"/>
<feBlend mode="normal" in="SourceGraphic" in2="BackgroundImageFix" result="shape"/>
<feGaussianBlur stdDeviation="0.5" result="effect1_foregroundBlur_157_5970"/>
</filter>
<filter id="filter2_f_157_5970" x="-19.1353" y="-12.0972" width="41.7482" height="44.4371" filterUnits="userSpaceOnUse" color-interpolation-filters="sRGB">
<feFlood flood-opacity="0" result="BackgroundImageFix"/>
<feBlend mode="normal" in="SourceGraphic" in2="BackgroundImageFix" result="shape"/>
<feGaussianBlur stdDeviation="9.408" result="effect1_foregroundBlur_157_5970"/>
</filter>
<filter id="filter3_f_157_5970" x="-7.24666" y="-12.2578" width="41.7482" height="44.4371" filterUnits="userSpaceOnUse" color-interpolation-filters="sRGB">
<feFlood flood-opacity="0" result="BackgroundImageFix"/>
<feBlend mode="normal" in="SourceGraphic" in2="BackgroundImageFix" result="shape"/>
<feGaussianBlur stdDeviation="9.408" result="effect1_foregroundBlur_157_5970"/>
</filter>
<filter id="filter4_f_157_5970" x="-21.9913" y="-21.3141" width="51.553" height="53.1749" filterUnits="userSpaceOnUse" color-interpolation-filters="sRGB">
<feFlood flood-opacity="0" result="BackgroundImageFix"/>
<feBlend mode="normal" in="SourceGraphic" in2="BackgroundImageFix" result="shape"/>
<feGaussianBlur stdDeviation="12.544" result="effect1_foregroundBlur_157_5970"/>
</filter>
<filter id="filter5_f_157_5970" x="-3.7261" y="-2.16397" width="14.3594" height="15.3011" filterUnits="userSpaceOnUse" color-interpolation-filters="sRGB">
<feFlood flood-opacity="0" result="BackgroundImageFix"/>
<feBlend mode="normal" in="SourceGraphic" in2="BackgroundImageFix" result="shape"/>
<feGaussianBlur stdDeviation="3.136" result="effect1_foregroundBlur_157_5970"/>
</filter>
<filter id="filter6_f_157_5970" x="-15.6226" y="-14.7671" width="39.8078" height="39.8463" filterUnits="userSpaceOnUse" color-interpolation-filters="sRGB">
<feFlood flood-opacity="0" result="BackgroundImageFix"/>
<feBlend mode="normal" in="SourceGraphic" in2="BackgroundImageFix" result="shape"/>
<feGaussianBlur stdDeviation="9.408" result="effect1_foregroundBlur_157_5970"/>
</filter>
<filter id="filter7_f_157_5970" x="5.33249" y="-2.14303" width="14.3155" height="15.3296" filterUnits="userSpaceOnUse" color-interpolation-filters="sRGB">
<feFlood flood-opacity="0" result="BackgroundImageFix"/>
<feBlend mode="normal" in="SourceGraphic" in2="BackgroundImageFix" result="shape"/>
<feGaussianBlur stdDeviation="3.136" result="effect1_foregroundBlur_157_5970"/>
</filter>
<filter id="filter8_f_157_5970" x="-1.71978" y="-6.06603" width="27.1993" height="26.0142" filterUnits="userSpaceOnUse" color-interpolation-filters="sRGB">
<feFlood flood-opacity="0" result="BackgroundImageFix"/>
<feBlend mode="normal" in="SourceGraphic" in2="BackgroundImageFix" result="shape"/>
<feGaussianBlur stdDeviation="6.272" result="effect1_foregroundBlur_157_5970"/>
</filter>
<filter id="filter9_f_157_5970" x="2.89295" y="-1.27727" width="15.6428" height="15.3604" filterUnits="userSpaceOnUse" color-interpolation-filters="sRGB">
<feFlood flood-opacity="0" result="BackgroundImageFix"/>
<feBlend mode="normal" in="SourceGraphic" in2="BackgroundImageFix" result="shape"/>
<feGaussianBlur stdDeviation="3.763" result="effect1_foregroundBlur_157_5970"/>
</filter>
<filter id="filter10_f_157_5970" x="-9.54498" y="-6.02339" width="27.1808" height="26.0555" filterUnits="userSpaceOnUse" color-interpolation-filters="sRGB">
<feFlood flood-opacity="0" result="BackgroundImageFix"/>
<feBlend mode="normal" in="SourceGraphic" in2="BackgroundImageFix" result="shape"/>
<feGaussianBlur stdDeviation="6.272" result="effect1_foregroundBlur_157_5970"/>
</filter>
<filter id="filter11_f_157_5970" x="-2.61975" y="-1.24167" width="15.636" height="15.3709" filterUnits="userSpaceOnUse" color-interpolation-filters="sRGB">
<feFlood flood-opacity="0" result="BackgroundImageFix"/>
<feBlend mode="normal" in="SourceGraphic" in2="BackgroundImageFix" result="shape"/>
<feGaussianBlur stdDeviation="3.763" result="effect1_foregroundBlur_157_5970"/>
</filter>
<filter id="filter12_f_157_5970" x="-13.4952" y="-21.2798" width="51.509" height="53.1942" filterUnits="userSpaceOnUse" color-interpolation-filters="sRGB">
<feFlood flood-opacity="0" result="BackgroundImageFix"/>
<feBlend mode="normal" in="SourceGraphic" in2="BackgroundImageFix" result="shape"/>
<feGaussianBlur stdDeviation="12.544" result="effect1_foregroundBlur_157_5970"/>
</filter>
<filter id="filter13_f_157_5970" x="-8.14608" y="-15.2027" width="39.9357" height="40.3144" filterUnits="userSpaceOnUse" color-interpolation-filters="sRGB">
<feFlood flood-opacity="0" result="BackgroundImageFix"/>
<feBlend mode="normal" in="SourceGraphic" in2="BackgroundImageFix" result="shape"/>
<feGaussianBlur stdDeviation="9.408" result="effect1_foregroundBlur_157_5970"/>
</filter>
<clipPath id="clip0_157_5970">
<rect width="16" height="16" fill="white"/>
</clipPath>
</defs>
</svg>
