<svg width="16" height="16" viewBox="0 0 16 16" fill="none" xmlns="http://www.w3.org/2000/svg">
<g clip-path="url(#clip0_157_6109)">
<rect width="16" height="16" rx="3" fill="#33FF66"/>
<path d="M10.8343 3.00034L10.6296 6.21439L8.67268 2L10.8343 3.00034ZM9.47885 7.15628L8.00017 8L6.52147 7.15628L6.82222 6.42742H9.17811L9.47885 7.15628ZM8.00017 3.59972L8.77501 5.48346H7.22532L8.00017 3.59972ZM5.3686 6.21439L5.16602 3.00034L7.32764 2L5.3686 6.21439Z" fill="black"/>
<path d="M6.2455 9.46736V9.61358H9.75463V9.46736C9.75463 9.1671 9.92695 9 10.2377 9H10.6685C10.9818 9 11.1515 9.1671 11.1515 9.46736V11.3264C11.1515 11.6266 10.9818 11.7937 10.6685 11.7937H10.2377C9.92695 11.7937 9.75463 11.6266 9.75463 11.3264V11.1645H8.86044L8.57187 10.6319C8.44394 10.389 8.2481 10.2611 8.00269 10.2611C7.75463 10.2611 7.56402 10.3916 7.43088 10.6319L7.14554 11.1645H6.2455V11.3264C6.2455 11.6266 6.07318 11.7937 5.76508 11.7937H5.33166C5.02096 11.7937 4.84863 11.6266 4.84863 11.3264V9.46736C4.84863 9.1671 5.02096 9 5.33166 9H5.76508C6.07318 9 6.2455 9.1671 6.2455 9.46736Z" fill="black"/>
<path d="M8.00239 14C8.65251 14 9.16948 13.4935 9.16948 12.859C9.16948 12.5118 8.99454 12.1671 8.84832 11.8956L8.26087 10.8016C8.19299 10.6762 8.11727 10.6188 8.00239 10.6188C7.8875 10.6188 7.81178 10.6762 7.7439 10.799L7.15904 11.8956C7.01282 12.1671 6.83789 12.5118 6.83789 12.859C6.83789 13.4935 7.35486 14 8.00239 14Z" fill="black"/>
</g>
<defs>
<clipPath id="clip0_157_6109">
<rect width="16" height="16" fill="white"/>
</clipPath>
</defs>
</svg>
