<svg width="16" height="16" viewBox="0 0 16 16" fill="none" xmlns="http://www.w3.org/2000/svg">
<g clip-path="url(#clip0_157_6075)">
<rect width="16" height="16" rx="3" fill="#31A8FF"/>
<path d="M10.8343 4.00034L10.6296 7.21439L8.67268 3L10.8343 4.00034ZM9.47885 8.15628L8.00017 9L6.52147 8.15628L6.82222 7.42742H9.17811L9.47885 8.15628ZM8.00017 4.59972L8.77501 6.48346H7.22532L8.00017 4.59972ZM5.3686 7.21439L5.16602 4.00034L7.32764 3L5.3686 7.21439Z" fill="black"/>
<path d="M5.75253 13V10.7713H4.62988V10H7.9147V10.7713H6.79413V13H5.75253Z" fill="black"/>
<path d="M9.79969 13C9.46657 13 9.17972 12.9645 8.93913 12.8931C8.69852 12.8216 8.50885 12.7173 8.37005 12.5797C8.23124 12.4409 8.1473 12.2723 8.11822 12.0741L8.11426 12.0444H9.07197L9.07593 12.0581C9.08916 12.115 9.1255 12.164 9.18499 12.2051C9.24581 12.2447 9.32842 12.2756 9.43286 12.2982C9.53728 12.3193 9.66418 12.33 9.81357 12.33C9.93121 12.33 10.0324 12.3201 10.1169 12.3003C10.2029 12.2789 10.269 12.2492 10.3152 12.2109C10.3615 12.1726 10.3846 12.1284 10.3846 12.0782V12.0761C10.3846 12.0127 10.3562 11.9665 10.2994 11.9373C10.2425 11.9081 10.1434 11.8858 10.0019 11.8698L9.27225 11.8162C8.89946 11.7807 8.62385 11.6926 8.4454 11.5525C8.26824 11.4112 8.17969 11.2155 8.17969 10.9657V10.9617C8.17969 10.7609 8.2405 10.5888 8.3621 10.4462C8.48504 10.302 8.6602 10.1916 8.88756 10.115C9.11494 10.0383 9.38593 10 9.70055 10C10.0165 10 10.2868 10.0363 10.5115 10.1091C10.7376 10.1805 10.916 10.2835 11.0469 10.4185C11.1778 10.5533 11.2591 10.7152 11.2908 10.9043L11.2967 10.936H10.349L10.345 10.9201C10.3304 10.8645 10.2967 10.819 10.2439 10.7832C10.1923 10.7462 10.1222 10.7185 10.0337 10.7C9.9451 10.6802 9.83867 10.6703 9.71444 10.6703C9.59149 10.6703 9.48969 10.6794 9.40906 10.698C9.32842 10.7152 9.26761 10.7409 9.22664 10.7754C9.18565 10.8084 9.16517 10.848 9.16517 10.8944V10.8962C9.16517 10.9596 9.19558 11.0074 9.25639 11.0391C9.31852 11.0708 9.42096 11.0939 9.56373 11.1084L10.3073 11.164C10.5466 11.1878 10.7448 11.2332 10.9022 11.3008C11.0595 11.367 11.1765 11.4581 11.2531 11.5744C11.3311 11.6893 11.3701 11.831 11.3701 11.9987V12.0008C11.3701 12.2069 11.308 12.3855 11.1837 12.536C11.0595 12.6855 10.8804 12.8005 10.6464 12.8812C10.4124 12.9604 10.1302 13 9.79969 13Z" fill="black"/>
</g>
<defs>
<clipPath id="clip0_157_6075">
<rect width="16" height="16" fill="white"/>
</clipPath>
</defs>
</svg>
