<svg width="16" height="16" viewBox="0 0 16 16" fill="none" xmlns="http://www.w3.org/2000/svg">
<g clip-path="url(#clip0_157_6123)">
<rect width="16" height="16" rx="3" fill="#FF61F6"/>
<path d="M10.8343 3.00034L10.6296 6.21439L8.67268 2L10.8343 3.00034ZM9.47885 7.15628L8.00017 8L6.52147 7.15628L6.82222 6.42742H9.17811L9.47885 7.15628ZM8.00017 3.59972L8.77501 5.48346H7.22532L8.00017 3.59972ZM5.3686 6.21439L5.16602 3.00034L7.32764 2L5.3686 6.21439Z" fill="black"/>
<path fill-rule="evenodd" clip-rule="evenodd" d="M6.78764 9.55945C6.76468 9.53658 6.74831 9.50796 6.74025 9.47658C6.73218 9.4452 6.73271 9.41223 6.74179 9.38113C6.75087 9.35003 6.76816 9.32195 6.79184 9.29984C6.81553 9.27773 6.84473 9.2624 6.87638 9.25548L8.02277 9.00417C8.05231 8.9977 8.08301 8.99877 8.11203 9.00727C8.14106 9.01578 8.16748 9.03144 8.18886 9.05283C8.21025 9.07421 8.22591 9.10063 8.23441 9.12966C8.24292 9.15868 8.24398 9.18938 8.23752 9.21892L7.98597 10.3653C7.97903 10.3969 7.96372 10.426 7.94166 10.4496C7.9196 10.4733 7.89159 10.4905 7.86056 10.4996C7.82954 10.5087 7.79664 10.5093 7.76531 10.5013C7.73398 10.4934 7.70538 10.4771 7.68248 10.4543L6.7874 9.55921L6.78764 9.55945ZM8.40778 14C8.6055 14 8.79512 13.9215 8.93493 13.7816C9.07474 13.6418 9.15329 13.4522 9.15329 13.2545C9.15329 13.0568 9.07474 12.8672 8.93493 12.7273C8.79512 12.5875 8.6055 12.509 8.40778 12.509C8.21006 12.509 8.02044 12.5875 7.88063 12.7273C7.74082 12.8672 7.66228 13.0568 7.66228 13.2545C7.66228 13.4522 7.74082 13.6418 7.88063 13.7816C8.02044 13.9215 8.21006 14 8.40778 14ZM6.89513 10.3466C6.85004 10.3015 6.78888 10.2761 6.72511 10.2761C6.66134 10.2761 6.60019 10.3015 6.55509 10.3466L6.00125 10.9002C5.90642 10.995 5.8312 11.1075 5.77988 11.2314C5.72856 11.3553 5.70215 11.4881 5.70215 11.6222C5.70215 11.7563 5.72856 11.8891 5.77988 12.013C5.8312 12.1369 5.90642 12.2494 6.00125 12.3443L6.00221 12.345C6.19407 12.5364 6.45403 12.6438 6.72502 12.6436C6.996 12.6435 7.25586 12.5358 7.44753 12.3443L8.89164 10.9002C9.10326 10.6885 9.44595 10.6885 9.65758 10.8997C9.86873 11.1103 9.86897 11.4523 9.6583 11.6635L9.65782 11.6637L9.23216 12.0893C9.18704 12.1344 9.16168 12.1956 9.16165 12.2594C9.16163 12.3232 9.18695 12.3844 9.23204 12.4295C9.27714 12.4746 9.33831 12.5 9.4021 12.5C9.4659 12.5 9.52708 12.4747 9.57221 12.4296L9.99787 12.004L9.99883 12.003C10.19 11.8113 10.2973 11.5515 10.297 11.2807C10.2967 11.01 10.1888 10.7504 9.99715 10.5591C9.80529 10.3678 9.54532 10.2604 9.27434 10.2605C9.00336 10.2606 8.7435 10.3683 8.55183 10.5599L7.10748 12.004C6.8961 12.2156 6.5534 12.2156 6.34154 12.004C6.24034 11.9027 6.1835 11.7654 6.1835 11.6222C6.1835 11.479 6.24034 11.3417 6.34154 11.2404L6.89513 10.6866C6.94022 10.6415 6.96554 10.5803 6.96554 10.5166C6.96554 10.4528 6.94022 10.3917 6.89513 10.3466Z" fill="black"/>
</g>
<defs>
<clipPath id="clip0_157_6123">
<rect width="16" height="16" fill="white"/>
</clipPath>
</defs>
</svg>
