<svg width="16" height="16" viewBox="0 0 16 16" fill="none" xmlns="http://www.w3.org/2000/svg">
<g clip-path="url(#clip0_157_6067)">
<rect width="16" height="16" rx="3" fill="#FF9A00"/>
<path d="M10.8343 4.00034L10.6296 7.21439L8.67268 3L10.8343 4.00034ZM9.47885 8.15628L8.00017 9L6.52147 8.15628L6.82222 7.42742H9.17811L9.47885 8.15628ZM8.00017 4.59972L8.77501 6.48346H7.22532L8.00017 4.59972ZM5.3686 7.21439L5.16602 4.00034L7.32764 3L5.3686 7.21439Z" fill="black"/>
<path d="M0.783203 13V10H1.82693V11.0996H3.36539V10H4.40699V13H3.36539V11.8732H1.82693V13H0.783203Z" fill="black"/>
<path d="M5.73007 13V10.7713H4.60742V10H7.89224V10.7713H6.77167V13H5.73007Z" fill="black"/>
<path d="M8.0918 13V10H9.32261L10.2 11.9209H10.2229L11.0982 10H12.329V13H11.3871V11.2244H11.0004L11.6304 10.5716L10.543 13H9.87773L8.79037 10.5716L9.42033 11.2244H9.03362V13H8.0918Z" fill="black"/>
<path d="M12.5293 13V10H13.573V12.2306H15.2176V13H12.5293Z" fill="black"/>
</g>
<defs>
<clipPath id="clip0_157_6067">
<rect width="16" height="16" fill="white"/>
</clipPath>
</defs>
</svg>
