<svg width="16" height="16" viewBox="0 0 16 16" fill="none" xmlns="http://www.w3.org/2000/svg">
<g clip-path="url(#clip0_157_6059)">
<rect width="16" height="16" rx="3" fill="#31A8FF"/>
<path d="M10.8343 4.00034L10.6296 7.21439L8.67268 3L10.8343 4.00034ZM9.47885 8.15628L8.00017 9L6.52147 8.15628L6.82222 7.42742H9.17811L9.47885 8.15628ZM8.00017 4.59972L8.77501 6.48346H7.22532L8.00017 4.59972ZM5.3686 7.21439L5.16602 4.00034L7.32764 3L5.3686 7.21439Z" fill="black"/>
<path d="M1.66699 13V10H2.7107V12.2306H4.35526V13H1.66699Z" fill="black"/>
<path d="M4.55566 13V10H7.42263V10.7297H5.59933V11.1663H7.29373V11.815H5.59933V12.2703H7.42263V13H4.55566Z" fill="black"/>
<path d="M9.3075 13C8.97438 13 8.68753 12.9645 8.44694 12.8931C8.20633 12.8216 8.01666 12.7173 7.87786 12.5797C7.73905 12.4409 7.65512 12.2723 7.62603 12.0741L7.62207 12.0444H8.57979L8.58375 12.0581C8.59697 12.115 8.63331 12.164 8.69281 12.2051C8.75362 12.2447 8.83623 12.2756 8.94068 12.2982C9.04509 12.3193 9.172 12.33 9.32139 12.33C9.43903 12.33 9.54017 12.3201 9.62476 12.3003C9.71068 12.2789 9.77677 12.2492 9.82304 12.2109C9.8693 12.1726 9.89245 12.1284 9.89245 12.0782V12.0761C9.89245 12.0127 9.86403 11.9665 9.80717 11.9373C9.75035 11.9081 9.65121 11.8858 9.50976 11.8698L8.78007 11.8162C8.40727 11.7807 8.13166 11.6926 7.95321 11.5525C7.77605 11.4112 7.6875 11.2155 7.6875 10.9657V10.9617C7.6875 10.7609 7.74831 10.5888 7.86991 10.4462C7.99286 10.302 8.16801 10.1916 8.39537 10.115C8.62276 10.0383 8.89375 10 9.20837 10C9.52431 10 9.79464 10.0363 10.0194 10.1091C10.2454 10.1805 10.4238 10.2835 10.5547 10.4185C10.6856 10.5533 10.7669 10.7152 10.7986 10.9043L10.8046 10.936H9.85677L9.85278 10.9201C9.83824 10.8645 9.80453 10.819 9.75167 10.7832C9.70012 10.7462 9.63004 10.7185 9.54149 10.7C9.45291 10.6802 9.34649 10.6703 9.22225 10.6703C9.0993 10.6703 8.9975 10.6794 8.91687 10.698C8.83623 10.7152 8.77542 10.7409 8.73446 10.7754C8.69347 10.8084 8.67298 10.848 8.67298 10.8944V10.8962C8.67298 10.9596 8.70339 11.0074 8.7642 11.0391C8.82634 11.0708 8.92877 11.0939 9.07154 11.1084L9.81512 11.164C10.0544 11.1878 10.2527 11.2332 10.41 11.3008C10.5673 11.367 10.6843 11.4581 10.7609 11.5744C10.8389 11.6893 10.8779 11.831 10.8779 11.9987V12.0008C10.8779 12.2069 10.8158 12.3855 10.6915 12.536C10.5673 12.6855 10.3882 12.8005 10.1542 12.8812C9.92022 12.9604 9.63798 13 9.3075 13Z" fill="black"/>
<path d="M12.7636 13C12.4304 13 12.1436 12.9645 11.903 12.8931C11.6624 12.8216 11.4727 12.7173 11.3339 12.5797C11.1951 12.4409 11.1112 12.2723 11.0821 12.0741L11.0781 12.0444H12.0358L12.0398 12.0581C12.053 12.115 12.0894 12.164 12.1489 12.2051C12.2097 12.2447 12.2923 12.2756 12.3967 12.2982C12.5011 12.3193 12.6281 12.33 12.7774 12.33C12.8951 12.33 12.9962 12.3201 13.0808 12.3003C13.1667 12.2789 13.2328 12.2492 13.2791 12.2109C13.3254 12.1726 13.3485 12.1284 13.3485 12.0782V12.0761C13.3485 12.0127 13.3201 11.9665 13.2632 11.9373C13.2064 11.9081 13.1073 11.8858 12.9658 11.8698L12.2361 11.8162C11.8633 11.7807 11.5877 11.6926 11.4093 11.5525C11.2321 11.4112 11.1436 11.2155 11.1436 10.9657V10.9617C11.1436 10.7609 11.2044 10.5888 11.326 10.4462C11.4489 10.302 11.6241 10.1916 11.8514 10.115C12.0788 10.0383 12.3498 10 12.6644 10C12.9804 10 13.2507 10.0363 13.4754 10.1091C13.7015 10.1805 13.8799 10.2835 14.0108 10.4185C14.1417 10.5533 14.2229 10.7152 14.2547 10.9043L14.2606 10.936H13.3128L13.3088 10.9201C13.2943 10.8645 13.2606 10.819 13.2077 10.7832C13.1562 10.7462 13.0861 10.7185 12.9975 10.7C12.909 10.6802 12.8025 10.6703 12.6783 10.6703C12.5554 10.6703 12.4536 10.6794 12.3729 10.698C12.2923 10.7152 12.2315 10.7409 12.1905 10.7754C12.1495 10.8084 12.129 10.848 12.129 10.8944V10.8962C12.129 10.9596 12.1594 11.0074 12.2203 11.0391C12.2824 11.0708 12.3848 11.0939 12.5276 11.1084L13.2712 11.164C13.5104 11.1878 13.7087 11.2332 13.866 11.3008C14.0233 11.367 14.1403 11.4581 14.217 11.5744C14.295 11.6893 14.334 11.831 14.334 11.9987V12.0008C14.334 12.2069 14.2719 12.3855 14.1476 12.536C14.0233 12.6855 13.8442 12.8005 13.6102 12.8812C13.3763 12.9604 13.094 13 12.7636 13Z" fill="black"/>
</g>
<defs>
<clipPath id="clip0_157_6059">
<rect width="16" height="16" fill="white"/>
</clipPath>
</defs>
</svg>
