<svg width="16" height="16" viewBox="0 0 16 16" fill="none" xmlns="http://www.w3.org/2000/svg">
<g clip-path="url(#clip0_157_6099)">
<rect width="16" height="16" rx="3" fill="#33FF66"/>
<path d="M10.8343 3.00034L10.6296 6.21439L8.67268 2L10.8343 3.00034ZM9.47885 7.15628L8.00017 8L6.52147 7.15628L6.82222 6.42742H9.17811L9.47885 7.15628ZM8.00017 3.59972L8.77501 5.48346H7.22532L8.00017 3.59972ZM5.3686 6.21439L5.16602 3.00034L7.32764 2L5.3686 6.21439Z" fill="black"/>
<path d="M8.51733 10.6878C8.50959 10.8241 8.48343 10.9588 8.43954 11.0881L10.3048 13.0522C10.4094 13.1624 10.4675 13.3087 10.4669 13.4606C10.4728 13.5367 10.4596 13.613 10.4285 13.6826C10.3973 13.7523 10.3492 13.813 10.2886 13.8593C10.1678 13.954 10.0178 14.0036 9.8643 13.9998C9.71084 13.9959 9.56349 13.9388 9.44754 13.8382L7.57902 11.8741C7.4471 11.9109 7.31084 11.93 7.17387 11.9308C6.9629 11.9406 6.75211 11.9077 6.55415 11.8341C6.3562 11.7605 6.17514 11.6477 6.02184 11.5024C5.86854 11.3571 5.74616 11.1824 5.66202 10.9887C5.57789 10.795 5.53374 10.5862 5.53223 10.375C5.53823 10.2385 5.56444 10.1036 5.61001 9.97477C5.61001 9.9067 5.67808 9.90832 5.74452 9.94398L6.56291 10.8385C6.57451 10.8543 6.58965 10.8671 6.6071 10.8759C6.62455 10.8847 6.64383 10.8893 6.66339 10.8893C6.68295 10.8893 6.70223 10.8847 6.71968 10.8759C6.73713 10.8671 6.75227 10.8543 6.76387 10.8385L7.35051 10.2827C7.36645 10.2675 7.37914 10.2493 7.38781 10.2291C7.39648 10.2089 7.40096 10.1872 7.40096 10.1652C7.40096 10.1432 7.39648 10.1215 7.38781 10.1013C7.37914 10.0811 7.36645 10.0628 7.35051 10.0477L6.53698 9.19041C6.50457 9.15638 6.50781 9.0559 6.57426 9.05752C6.70692 9.02435 6.84273 9.00534 6.9794 9.0008C7.19629 8.99372 7.41213 9.03375 7.61205 9.11815C7.81196 9.20255 7.9912 9.3293 8.13739 9.48967C8.28358 9.65003 8.39326 9.8402 8.45885 10.047C8.52444 10.2539 8.5444 10.4725 8.51733 10.6878Z" fill="black"/>
</g>
<defs>
<clipPath id="clip0_157_6099">
<rect width="16" height="16" fill="white"/>
</clipPath>
</defs>
</svg>
