<svg width="16" height="16" viewBox="0 0 16 16" fill="none" xmlns="http://www.w3.org/2000/svg">
<g clip-path="url(#clip0_157_6036)">
<rect width="16" height="16" rx="3" fill="#31A8FF"/>
<path d="M10.8343 4.00034L10.6296 7.21439L8.67268 3L10.8343 4.00034ZM9.47885 8.15628L8.00017 9L6.52147 8.15628L6.82222 7.42742H9.17811L9.47885 8.15628ZM8.00017 4.59972L8.77501 6.48346H7.22532L8.00017 4.59972ZM5.3686 7.21439L5.16602 4.00034L7.32764 3L5.3686 7.21439Z" fill="black"/>
<path d="M4.57013 13C4.19834 13 3.87759 12.939 3.60788 12.8174C3.3392 12.6942 3.13222 12.521 2.9867 12.2976C2.84119 12.0741 2.76855 11.8082 2.76855 11.4999V11.4961C2.76855 11.189 2.84119 10.9239 2.9867 10.7004C3.13222 10.4769 3.3392 10.3042 3.60788 10.1826C3.87759 10.0609 4.19834 10 4.57013 10C4.89012 10 5.17658 10.051 5.42901 10.1529C5.68297 10.2534 5.88741 10.3962 6.04232 10.5813C6.19698 10.7652 6.28815 10.9821 6.31609 11.2322L6.3199 11.2678H5.34191L5.33784 11.2479C5.3127 11.1423 5.26521 11.0521 5.19512 10.9782C5.1263 10.9041 5.03893 10.8472 4.93303 10.8076C4.82739 10.768 4.70828 10.7479 4.57597 10.7479C4.41064 10.7479 4.26843 10.7784 4.14932 10.8393C4.03174 10.9 3.94108 10.9869 3.87759 11.0991C3.8141 11.2104 3.78235 11.3427 3.78235 11.4961V11.4999C3.78235 11.6535 3.8141 11.7863 3.87759 11.8988C3.94108 12.0111 4.03225 12.0979 4.15135 12.1586C4.27046 12.2196 4.41268 12.2498 4.578 12.2498C4.70904 12.2498 4.82663 12.2308 4.93126 12.1924C5.03563 12.1528 5.123 12.0959 5.19309 12.0218C5.26318 11.9463 5.31143 11.8557 5.33784 11.75L5.34191 11.7282H6.3199L6.31786 11.7599C6.28891 12.0126 6.19698 12.2315 6.04232 12.4167C5.88741 12.6018 5.68373 12.7453 5.43104 12.8471C5.17988 12.949 4.89291 13 4.57013 13Z" fill="black"/>
<path d="M8.20496 13C7.87184 13 7.58499 12.9645 7.3444 12.8931C7.1038 12.8216 6.91413 12.7173 6.77532 12.5797C6.63651 12.4409 6.55258 12.2723 6.52349 12.0741L6.51953 12.0444H7.47725L7.48121 12.0581C7.49443 12.115 7.53078 12.164 7.59027 12.2051C7.65108 12.2447 7.73369 12.2756 7.83814 12.2982C7.94255 12.3193 8.06946 12.33 8.21885 12.33C8.33649 12.33 8.43763 12.3201 8.52222 12.3003C8.60814 12.2789 8.67423 12.2492 8.7205 12.2109C8.76677 12.1726 8.78991 12.1284 8.78991 12.0782V12.0761C8.78991 12.0127 8.76149 11.9665 8.70463 11.9373C8.64781 11.9081 8.54867 11.8858 8.40722 11.8698L7.67753 11.8162C7.30473 11.7807 7.02913 11.6926 6.85067 11.5525C6.67352 11.4112 6.58496 11.2155 6.58496 10.9657V10.9617C6.58496 10.7609 6.64577 10.5888 6.76737 10.4462C6.89032 10.302 7.06547 10.1916 7.29283 10.115C7.52022 10.0383 7.79121 10 8.10583 10C8.42177 10 8.6921 10.0363 8.91682 10.1091C9.14286 10.1805 9.32131 10.2835 9.4522 10.4185C9.58306 10.5533 9.66436 10.7152 9.69608 10.9043L9.70202 10.936H8.75423L8.75024 10.9201C8.7357 10.8645 8.70199 10.819 8.64913 10.7832C8.59758 10.7462 8.5275 10.7185 8.43895 10.7C8.35037 10.6802 8.24395 10.6703 8.11971 10.6703C7.99677 10.6703 7.89496 10.6794 7.81433 10.698C7.73369 10.7152 7.67288 10.7409 7.63192 10.7754C7.59093 10.8084 7.57045 10.848 7.57045 10.8944V10.8962C7.57045 10.9596 7.60085 11.0074 7.66166 11.0391C7.7238 11.0708 7.82623 11.0939 7.969 11.1084L8.71258 11.164C8.95184 11.1878 9.15012 11.2332 9.30743 11.3008C9.46474 11.367 9.58174 11.4581 9.65839 11.5744C9.73639 11.6893 9.7754 11.831 9.7754 11.9987V12.0008C9.7754 12.2069 9.71326 12.3855 9.589 12.536C9.46474 12.6855 9.28562 12.8005 9.05164 12.8812C8.81768 12.9604 8.53545 13 8.20496 13Z" fill="black"/>
<path d="M11.661 13C11.3279 13 11.041 12.9645 10.8005 12.8931C10.5599 12.8216 10.3702 12.7173 10.2314 12.5797C10.0926 12.4409 10.0086 12.2723 9.97954 12.0741L9.97559 12.0444H10.9333L10.9373 12.0581C10.9505 12.115 10.9868 12.164 11.0463 12.2051C11.1071 12.2447 11.1897 12.2756 11.2942 12.2982C11.3986 12.3193 11.5255 12.33 11.6749 12.33C11.7925 12.33 11.8937 12.3201 11.9783 12.3003C12.0642 12.2789 12.1303 12.2492 12.1766 12.2109C12.2228 12.1726 12.246 12.1284 12.246 12.0782V12.0761C12.246 12.0127 12.2175 11.9665 12.1607 11.9373C12.1039 11.9081 12.0047 11.8858 11.8633 11.8698L11.1336 11.8162C10.7608 11.7807 10.4852 11.6926 10.3067 11.5525C10.1296 11.4112 10.041 11.2155 10.041 10.9657V10.9617C10.041 10.7609 10.1018 10.5888 10.2234 10.4462C10.3464 10.302 10.5215 10.1916 10.7489 10.115C10.9763 10.0383 11.2473 10 11.5619 10C11.8778 10 12.1482 10.0363 12.3729 10.1091C12.5989 10.1805 12.7774 10.2835 12.9083 10.4185C13.0391 10.5533 13.1204 10.7152 13.1521 10.9043L13.1581 10.936H12.2103L12.2063 10.9201C12.1918 10.8645 12.158 10.819 12.1052 10.7832C12.0536 10.7462 11.9836 10.7185 11.895 10.7C11.8064 10.6802 11.7 10.6703 11.5758 10.6703C11.4528 10.6703 11.351 10.6794 11.2704 10.698C11.1897 10.7152 11.1289 10.7409 11.088 10.7754C11.047 10.8084 11.0265 10.848 11.0265 10.8944V10.8962C11.0265 10.9596 11.0569 11.0074 11.1177 11.0391C11.1799 11.0708 11.2823 11.0939 11.4251 11.1084L12.1686 11.164C12.4079 11.1878 12.6062 11.2332 12.7635 11.3008C12.9208 11.367 13.0378 11.4581 13.1144 11.5744C13.1924 11.6893 13.2315 11.831 13.2315 11.9987V12.0008C13.2315 12.2069 13.1693 12.3855 13.0451 12.536C12.9208 12.6855 12.7417 12.8005 12.5077 12.8812C12.2737 12.9604 11.9915 13 11.661 13Z" fill="black"/>
</g>
<defs>
<clipPath id="clip0_157_6036">
<rect width="16" height="16" fill="white"/>
</clipPath>
</defs>
</svg>
