<svg width="16" height="16" viewBox="0 0 16 16" fill="none" xmlns="http://www.w3.org/2000/svg">
<g clip-path="url(#clip0_157_6119)">
<rect width="16" height="16" rx="3" fill="#FF61F6"/>
<path d="M10.8343 3.00034L10.6296 6.21439L8.67268 2L10.8343 3.00034ZM9.47885 7.15628L8.00017 8L6.52147 7.15628L6.82222 6.42742H9.17811L9.47885 7.15628ZM8.00017 3.59972L8.77501 5.48346H7.22532L8.00017 3.59972ZM5.3686 6.21439L5.16602 3.00034L7.32764 2L5.3686 6.21439Z" fill="black"/>
<path d="M7.99973 14C8.03997 14 8.10284 13.9849 8.16572 13.9522C9.59682 13.2027 10.0571 12.828 10.0571 11.9251V10.0287C10.0571 9.76962 9.94641 9.68662 9.73515 9.59859C9.44088 9.47787 8.50023 9.13581 8.20848 9.03521C8.14057 9.01258 8.07015 9 7.99973 9C7.9293 9 7.85888 9.01509 7.79349 9.03521C7.49922 9.13078 6.55858 9.48038 6.26431 9.59859C6.05556 9.6841 5.94238 9.76962 5.94238 10.0287V11.9251C5.94238 12.828 6.4278 13.16 7.83373 13.9522C7.89912 13.9874 7.95948 14 7.99973 14Z" fill="black"/>
</g>
<defs>
<clipPath id="clip0_157_6119">
<rect width="16" height="16" fill="white"/>
</clipPath>
</defs>
</svg>
