<svg width="16" height="16" viewBox="0 0 16 16" fill="none" xmlns="http://www.w3.org/2000/svg">
<g clip-path="url(#clip0_157_6043)">
<rect width="16" height="16" rx="3" fill="#FF61F6"/>
<path d="M10.8343 4.00034L10.6296 7.21439L8.67268 3L10.8343 4.00034ZM9.47885 8.15628L8.00017 9L6.52147 8.15628L6.82222 7.42742H9.17811L9.47885 8.15628ZM8.00017 4.59972L8.77501 6.48346H7.22532L8.00017 4.59972ZM5.3686 7.21439L5.16602 4.00034L7.32764 3L5.3686 7.21439Z" fill="black"/>
<path d="M2.72645 13C2.39333 13 2.10647 12.9645 1.86589 12.8931C1.62528 12.8216 1.43561 12.7173 1.2968 12.5797C1.158 12.4409 1.07406 12.2723 1.04497 12.0741L1.04102 12.0444H1.99873L2.00269 12.0581C2.01591 12.115 2.05226 12.164 2.11175 12.2051C2.17256 12.2447 2.25518 12.2756 2.35962 12.2982C2.46404 12.3193 2.59094 12.33 2.74033 12.33C2.85797 12.33 2.95911 12.3201 3.04371 12.3003C3.12962 12.2789 3.19571 12.2492 3.24198 12.2109C3.28825 12.1726 3.3114 12.1284 3.3114 12.0782V12.0761C3.3114 12.0127 3.28297 11.9665 3.22612 11.9373C3.16929 11.9081 3.07015 11.8858 2.92871 11.8698L2.19901 11.8162C1.82622 11.7807 1.55061 11.6926 1.37216 11.5525C1.195 11.4112 1.10645 11.2155 1.10645 10.9657V10.9617C1.10645 10.7609 1.16726 10.5888 1.28886 10.4462C1.4118 10.302 1.58695 10.1916 1.81432 10.115C2.0417 10.0383 2.31269 10 2.62731 10C2.94325 10 3.21358 10.0363 3.4383 10.1091C3.66434 10.1805 3.84279 10.2835 3.97368 10.4185C4.10455 10.5533 4.18584 10.7152 4.21757 10.9043L4.22351 10.936H3.27571L3.27173 10.9201C3.25718 10.8645 3.22348 10.819 3.17061 10.7832C3.11906 10.7462 3.04899 10.7185 2.96043 10.7C2.87185 10.6802 2.76543 10.6703 2.64119 10.6703C2.51825 10.6703 2.41645 10.6794 2.33581 10.698C2.25518 10.7152 2.19437 10.7409 2.1534 10.7754C2.11241 10.8084 2.09193 10.848 2.09193 10.8944V10.8962C2.09193 10.9596 2.12234 11.0074 2.18315 11.0391C2.24528 11.0708 2.34772 11.0939 2.49048 11.1084L3.23406 11.164C3.47333 11.1878 3.6716 11.2332 3.82891 11.3008C3.98622 11.367 4.10322 11.4581 4.17987 11.5744C4.25787 11.6893 4.29688 11.831 4.29688 11.9987V12.0008C4.29688 12.2069 4.23475 12.3855 4.11048 12.536C3.98622 12.6855 3.80711 12.8005 3.57312 12.8812C3.33916 12.9604 3.05693 13 2.72645 13Z" fill="black"/>
<path d="M6.29864 13C5.92685 13 5.6061 12.939 5.3364 12.8174C5.06771 12.6942 4.86074 12.521 4.71522 12.2976C4.5697 12.0741 4.49707 11.8082 4.49707 11.4999V11.4961C4.49707 11.189 4.5697 10.9239 4.71522 10.7004C4.86074 10.4769 5.06771 10.3042 5.3364 10.1826C5.6061 10.0609 5.92685 10 6.29864 10C6.61863 10 6.90509 10.051 7.15753 10.1529C7.41149 10.2534 7.61592 10.3962 7.77084 10.5813C7.9255 10.7652 8.01667 10.9821 8.0446 11.2322L8.04841 11.2678H7.07042L7.06636 11.2479C7.04122 11.1423 6.99373 11.0521 6.92363 10.9782C6.85481 10.9041 6.76745 10.8472 6.66155 10.8076C6.5559 10.768 6.4368 10.7479 6.30449 10.7479C6.13916 10.7479 5.99694 10.7784 5.87784 10.8393C5.76026 10.9 5.66959 10.9869 5.6061 11.0991C5.54261 11.2104 5.51087 11.3427 5.51087 11.4961V11.4999C5.51087 11.6535 5.54261 11.7863 5.6061 11.8988C5.66959 12.0111 5.76076 12.0979 5.87987 12.1586C5.99897 12.2196 6.14119 12.2498 6.30652 12.2498C6.43756 12.2498 6.55514 12.2308 6.65977 12.1924C6.76415 12.1528 6.85151 12.0959 6.9216 12.0218C6.9917 11.9463 7.03995 11.8557 7.06636 11.75L7.07042 11.7282H8.04841L8.04638 11.7599C8.01743 12.0126 7.9255 12.2315 7.77084 12.4167C7.61592 12.6018 7.41225 12.7453 7.15956 12.8471C6.9084 12.949 6.62142 13 6.29864 13Z" fill="black"/>
<path d="M9.93348 13C9.60036 13 9.3135 12.9645 9.07292 12.8931C8.83231 12.8216 8.64264 12.7173 8.50383 12.5797C8.36503 12.4409 8.28109 12.2723 8.25201 12.0741L8.24805 12.0444H9.20576L9.20972 12.0581C9.22295 12.115 9.25929 12.164 9.31878 12.2051C9.3796 12.2447 9.46221 12.2756 9.56665 12.2982C9.67107 12.3193 9.79797 12.33 9.94736 12.33C10.065 12.33 10.1661 12.3201 10.2507 12.3003C10.3367 12.2789 10.4027 12.2492 10.449 12.2109C10.4953 12.1726 10.5184 12.1284 10.5184 12.0782V12.0761C10.5184 12.0127 10.49 11.9665 10.4331 11.9373C10.3763 11.9081 10.2772 11.8858 10.1357 11.8698L9.40604 11.8162C9.03325 11.7807 8.75764 11.6926 8.57919 11.5525C8.40203 11.4112 8.31348 11.2155 8.31348 10.9657V10.9617C8.31348 10.7609 8.37429 10.5888 8.49589 10.4462C8.61883 10.302 8.79399 10.1916 9.02135 10.115C9.24873 10.0383 9.51972 10 9.83434 10C10.1503 10 10.4206 10.0363 10.6453 10.1091C10.8714 10.1805 11.0498 10.2835 11.1807 10.4185C11.3116 10.5533 11.3929 10.7152 11.4246 10.9043L11.4305 10.936H10.4827L10.4788 10.9201C10.4642 10.8645 10.4305 10.819 10.3776 10.7832C10.3261 10.7462 10.256 10.7185 10.1675 10.7C10.0789 10.6802 9.97246 10.6703 9.84823 10.6703C9.72528 10.6703 9.62348 10.6794 9.54284 10.698C9.46221 10.7152 9.4014 10.7409 9.36043 10.7754C9.31944 10.8084 9.29896 10.848 9.29896 10.8944V10.8962C9.29896 10.9596 9.32937 11.0074 9.39018 11.0391C9.45231 11.0708 9.55475 11.0939 9.69751 11.1084L10.4411 11.164C10.6804 11.1878 10.8786 11.2332 11.0359 11.3008C11.1933 11.367 11.3103 11.4581 11.3869 11.5744C11.4649 11.6893 11.5039 11.831 11.5039 11.9987V12.0008C11.5039 12.2069 11.4418 12.3855 11.3175 12.536C11.1933 12.6855 11.0141 12.8005 10.7802 12.8812C10.5462 12.9604 10.264 13 9.93348 13Z" fill="black"/>
<path d="M13.3895 13C13.0564 13 12.7696 12.9645 12.529 12.8931C12.2884 12.8216 12.0987 12.7173 11.9599 12.5797C11.8211 12.4409 11.7371 12.2723 11.7081 12.0741L11.7041 12.0444H12.6618L12.6658 12.0581C12.679 12.115 12.7153 12.164 12.7748 12.2051C12.8357 12.2447 12.9183 12.2756 13.0227 12.2982C13.1271 12.3193 13.254 12.33 13.4034 12.33C13.5211 12.33 13.6222 12.3201 13.7068 12.3003C13.7927 12.2789 13.8588 12.2492 13.9051 12.2109C13.9513 12.1726 13.9745 12.1284 13.9745 12.0782V12.0761C13.9745 12.0127 13.9461 11.9665 13.8892 11.9373C13.8324 11.9081 13.7332 11.8858 13.5918 11.8698L12.8621 11.8162C12.4893 11.7807 12.2137 11.6926 12.0352 11.5525C11.8581 11.4112 11.7695 11.2155 11.7695 10.9657V10.9617C11.7695 10.7609 11.8303 10.5888 11.9519 10.4462C12.0749 10.302 12.25 10.1916 12.4774 10.115C12.7048 10.0383 12.9758 10 13.2904 10C13.6063 10 13.8767 10.0363 14.1014 10.1091C14.3274 10.1805 14.5059 10.2835 14.6368 10.4185C14.7676 10.5533 14.8489 10.7152 14.8807 10.9043L14.8866 10.936H13.9388L13.9348 10.9201C13.9203 10.8645 13.8866 10.819 13.8337 10.7832C13.7821 10.7462 13.7121 10.7185 13.6235 10.7C13.5349 10.6802 13.4285 10.6703 13.3043 10.6703C13.1813 10.6703 13.0795 10.6794 12.9989 10.698C12.9183 10.7152 12.8575 10.7409 12.8165 10.7754C12.7755 10.8084 12.755 10.848 12.755 10.8944V10.8962C12.755 10.9596 12.7854 11.0074 12.8462 11.0391C12.9084 11.0708 13.0108 11.0939 13.1536 11.1084L13.8971 11.164C14.1364 11.1878 14.3347 11.2332 14.492 11.3008C14.6493 11.367 14.7663 11.4581 14.843 11.5744C14.921 11.6893 14.96 11.831 14.96 11.9987V12.0008C14.96 12.2069 14.8978 12.3855 14.7736 12.536C14.6493 12.6855 14.4702 12.8005 14.2362 12.8812C14.0022 12.9604 13.72 13 13.3895 13Z" fill="black"/>
</g>
<defs>
<clipPath id="clip0_157_6043">
<rect width="16" height="16" fill="white"/>
</clipPath>
</defs>
</svg>
