<svg width="16" height="16" viewBox="0 0 16 16" fill="none" xmlns="http://www.w3.org/2000/svg">
<g clip-path="url(#clip0_157_6051)">
<rect width="16" height="16" rx="3" fill="#FF61F6"/>
<path d="M10.8343 4.00034L10.6296 7.21439L8.67268 3L10.8343 4.00034ZM9.47885 8.15628L8.00017 9L6.52147 8.15628L6.82222 7.42742H9.17811L9.47885 8.15628ZM8.00017 4.59972L8.77501 6.48346H7.22532L8.00017 4.59972ZM5.3686 7.21439L5.16602 4.00034L7.32764 3L5.3686 7.21439Z" fill="black"/>
<path d="M2.52332 13C2.1902 13 1.90335 12.9645 1.66276 12.8931C1.42215 12.8216 1.23249 12.7173 1.09368 12.5797C0.954871 12.4409 0.870936 12.2723 0.84185 12.0741L0.837891 12.0444H1.79561L1.79957 12.0581C1.81279 12.115 1.84914 12.164 1.90863 12.2051C1.96944 12.2447 2.05205 12.2756 2.1565 12.2982C2.26091 12.3193 2.38782 12.33 2.53721 12.33C2.65485 12.33 2.75599 12.3201 2.84058 12.3003C2.9265 12.2789 2.99259 12.2492 3.03886 12.2109C3.08513 12.1726 3.10827 12.1284 3.10827 12.0782V12.0761C3.10827 12.0127 3.07985 11.9665 3.02299 11.9373C2.96617 11.9081 2.86703 11.8858 2.72558 11.8698L1.99589 11.8162C1.62309 11.7807 1.34748 11.6926 1.16903 11.5525C0.991875 11.4112 0.903322 11.2155 0.903322 10.9657V10.9617C0.903322 10.7609 0.964134 10.5888 1.08573 10.4462C1.20868 10.302 1.38383 10.1916 1.61119 10.115C1.83858 10.0383 2.10957 10 2.42419 10C2.74013 10 3.01046 10.0363 3.23518 10.1091C3.46122 10.1805 3.63967 10.2835 3.77056 10.4185C3.90142 10.5533 3.98272 10.7152 4.01444 10.9043L4.02038 10.936H3.07259L3.0686 10.9201C3.05406 10.8645 3.02035 10.819 2.96749 10.7832C2.91594 10.7462 2.84586 10.7185 2.75731 10.7C2.66873 10.6802 2.56231 10.6703 2.43807 10.6703C2.31512 10.6703 2.21332 10.6794 2.13269 10.698C2.05205 10.7152 1.99124 10.7409 1.95028 10.7754C1.90929 10.8084 1.8888 10.848 1.8888 10.8944V10.8962C1.8888 10.9596 1.91921 11.0074 1.98002 11.0391C2.04216 11.0708 2.14459 11.0939 2.28736 11.1084L3.03094 11.164C3.2702 11.1878 3.46848 11.2332 3.62579 11.3008C3.7831 11.367 3.9001 11.4581 3.97675 11.5744C4.05474 11.6893 4.09376 11.831 4.09376 11.9987V12.0008C4.09376 12.2069 4.03162 12.3855 3.90736 12.536C3.78309 12.6855 3.60398 12.8005 3.37 12.8812C3.13604 12.9604 2.85381 13 2.52332 13Z" fill="black"/>
<path d="M4.29395 13L5.59129 10H6.59756V10.763H6.26075L5.3917 13H4.29395ZM5.06112 12.422L5.33347 11.7588H7.16722L7.43544 12.422H5.06112ZM7.15266 13L6.28361 10.763V10H6.95099L8.25042 13H7.15266Z" fill="black"/>
<path d="M10.1356 13C9.80251 13 9.51565 12.9645 9.27507 12.8931C9.03446 12.8216 8.84479 12.7173 8.70598 12.5797C8.56718 12.4409 8.48324 12.2723 8.45415 12.0741L8.4502 12.0444H9.40791L9.41187 12.0581C9.42509 12.115 9.46144 12.164 9.52093 12.2051C9.58174 12.2447 9.66436 12.2756 9.7688 12.2982C9.87322 12.3193 10.0001 12.33 10.1495 12.33C10.2672 12.33 10.3683 12.3201 10.4529 12.3003C10.5388 12.2789 10.6049 12.2492 10.6512 12.2109C10.6974 12.1726 10.7206 12.1284 10.7206 12.0782V12.0761C10.7206 12.0127 10.6922 11.9665 10.6353 11.9373C10.5785 11.9081 10.4793 11.8858 10.3379 11.8698L9.60819 11.8162C9.2354 11.7807 8.95979 11.6926 8.78134 11.5525C8.60418 11.4112 8.51563 11.2155 8.51563 10.9657V10.9617C8.51563 10.7609 8.57644 10.5888 8.69804 10.4462C8.82098 10.302 8.99613 10.1916 9.22349 10.115C9.45088 10.0383 9.72187 10 10.0365 10C10.3524 10 10.6228 10.0363 10.8475 10.1091C11.0735 10.1805 11.252 10.2835 11.3829 10.4185C11.5137 10.5533 11.595 10.7152 11.6267 10.9043L11.6327 10.936H10.6849L10.6809 10.9201C10.6664 10.8645 10.6327 10.819 10.5798 10.7832C10.5282 10.7462 10.4582 10.7185 10.3696 10.7C10.281 10.6802 10.1746 10.6703 10.0504 10.6703C9.92743 10.6703 9.82563 10.6794 9.74499 10.698C9.66436 10.7152 9.60355 10.7409 9.56258 10.7754C9.52159 10.8084 9.50111 10.848 9.50111 10.8944V10.8962C9.50111 10.9596 9.53152 11.0074 9.59233 11.0391C9.65446 11.0708 9.7569 11.0939 9.89966 11.1084L10.6432 11.164C10.8825 11.1878 11.0808 11.2332 11.2381 11.3008C11.3954 11.367 11.5124 11.4581 11.5891 11.5744C11.667 11.6893 11.7061 11.831 11.7061 11.9987V12.0008C11.7061 12.2069 11.6439 12.3855 11.5197 12.536C11.3954 12.6855 11.2163 12.8005 10.9823 12.8812C10.7483 12.9604 10.4661 13 10.1356 13Z" fill="black"/>
<path d="M13.5917 13C13.2586 13 12.9717 12.9645 12.7311 12.8931C12.4905 12.8216 12.3008 12.7173 12.162 12.5797C12.0232 12.4409 11.9393 12.2723 11.9102 12.0741L11.9062 12.0444H12.864L12.8679 12.0581C12.8811 12.115 12.9175 12.164 12.977 12.2051C13.0378 12.2447 13.1204 12.2756 13.2249 12.2982C13.3293 12.3193 13.4562 12.33 13.6056 12.33C13.7232 12.33 13.8243 12.3201 13.9089 12.3003C13.9949 12.2789 14.0609 12.2492 14.1072 12.2109C14.1535 12.1726 14.1766 12.1284 14.1766 12.0782V12.0761C14.1766 12.0127 14.1482 11.9665 14.0914 11.9373C14.0345 11.9081 13.9354 11.8858 13.7939 11.8698L13.0642 11.8162C12.6915 11.7807 12.4158 11.6926 12.2374 11.5525C12.0602 11.4112 11.9717 11.2155 11.9717 10.9657V10.9617C11.9717 10.7609 12.0325 10.5888 12.1541 10.4462C12.277 10.302 12.4522 10.1916 12.6795 10.115C12.9069 10.0383 13.1779 10 13.4925 10C13.8085 10 14.0788 10.0363 14.3035 10.1091C14.5296 10.1805 14.708 10.2835 14.8389 10.4185C14.9698 10.5533 15.0511 10.7152 15.0828 10.9043L15.0887 10.936H14.1409L14.137 10.9201C14.1224 10.8645 14.0887 10.819 14.0358 10.7832C13.9843 10.7462 13.9142 10.7185 13.8257 10.7C13.7371 10.6802 13.6307 10.6703 13.5064 10.6703C13.3835 10.6703 13.2817 10.6794 13.201 10.698C13.1204 10.7152 13.0596 10.7409 13.0186 10.7754C12.9776 10.8084 12.9572 10.848 12.9572 10.8944V10.8962C12.9572 10.9596 12.9876 11.0074 13.0484 11.0391C13.1105 11.0708 13.213 11.0939 13.3557 11.1084L14.0993 11.164C14.3386 11.1878 14.5368 11.2332 14.6941 11.3008C14.8515 11.367 14.9685 11.4581 15.0451 11.5744C15.1231 11.6893 15.1621 11.831 15.1621 11.9987V12.0008C15.1621 12.2069 15.1 12.3855 14.9757 12.536C14.8515 12.6855 14.6723 12.8005 14.4384 12.8812C14.2044 12.9604 13.9222 13 13.5917 13Z" fill="black"/>
</g>
<defs>
<clipPath id="clip0_157_6051">
<rect width="16" height="16" fill="white"/>
</clipPath>
</defs>
</svg>
