<svg width="16" height="16" viewBox="0 0 16 16" fill="none" xmlns="http://www.w3.org/2000/svg">
<g clip-path="url(#clip0_157_6115)">
<rect width="16" height="16" rx="3" fill="#FF61F6"/>
<path d="M10.8343 3.00034L10.6296 6.21439L8.67268 2L10.8343 3.00034ZM9.47885 7.15628L8.00017 8L6.52147 7.15628L6.82222 6.42742H9.17811L9.47885 7.15628ZM8.00017 3.59972L8.77501 5.48346H7.22532L8.00017 3.59972ZM5.3686 6.21439L5.16602 3.00034L7.32764 2L5.3686 6.21439Z" fill="black"/>
<path d="M7.7799 14H8.22009C8.34448 14 8.43302 13.9258 8.46171 13.8038L8.58613 13.2775C8.67942 13.2464 8.77033 13.2105 8.84928 13.1722L9.31099 13.4545C9.41388 13.5191 9.5311 13.5096 9.61721 13.4234L9.92583 13.1172C10.012 13.0311 10.0239 12.9067 9.95454 12.8038L9.67223 12.3469C9.71292 12.2631 9.74881 12.177 9.77512 12.0909L10.3062 11.9641C10.4282 11.9354 10.5 11.8469 10.5 11.7225V11.2895C10.5 11.1675 10.4282 11.0789 10.3062 11.0502L9.77989 10.9234C9.74881 10.8254 9.71052 10.7368 9.67703 10.6627L9.95931 10.1986C10.0239 10.0933 10.0191 9.98086 9.9306 9.89234L9.61721 9.58373C9.5287 9.50239 9.42105 9.48325 9.31816 9.54785L8.84928 9.83732C8.77273 9.79665 8.68419 9.76076 8.58613 9.72966L8.46171 9.19617C8.43302 9.07416 8.34448 9 8.22009 9H7.7799C7.6555 9 7.56698 9.07416 7.53588 9.19617L7.41148 9.72488C7.31818 9.75598 7.22727 9.79186 7.14593 9.83493L6.68182 9.54785C6.57895 9.48325 6.4665 9.49761 6.38038 9.58373L6.06938 9.89234C5.98086 9.98086 5.97368 10.0933 6.04067 10.1986L6.32057 10.6627C6.28947 10.7368 6.2512 10.8254 6.22009 10.9234L5.69378 11.0502C5.57177 11.0789 5.5 11.1675 5.5 11.2895V11.7225C5.5 11.8469 5.57177 11.9354 5.69378 11.9641L6.22488 12.0909C6.2512 12.177 6.28708 12.2631 6.32536 12.3469L6.04545 12.8038C5.97368 12.9067 5.98804 13.0311 6.07416 13.1172L6.38038 13.4234C6.4665 13.5096 6.58612 13.5191 6.68899 13.4545L7.14832 13.1722C7.22966 13.2105 7.31818 13.2464 7.41148 13.2775L7.53588 13.8038C7.56698 13.9258 7.6555 14 7.7799 14ZM8 12.3445C7.53349 12.3445 7.1555 11.9665 7.1555 11.5C7.1555 11.0335 7.53349 10.6555 8 10.6555C8.46651 10.6555 8.84448 11.0335 8.84448 11.5C8.84448 11.9665 8.46651 12.3445 8 12.3445Z" fill="black"/>
</g>
<defs>
<clipPath id="clip0_157_6115">
<rect width="16" height="16" fill="white"/>
</clipPath>
</defs>
</svg>
