<svg width="16" height="16" viewBox="0 0 16 16" fill="none" xmlns="http://www.w3.org/2000/svg">
<g clip-path="url(#clip0_157_6091)">
<rect width="16" height="16" rx="3" fill="#33FF66"/>
<path d="M10.8343 3.00034L10.6296 6.21439L8.67268 2L10.8343 3.00034ZM9.47885 7.15628L8.00017 8L6.52147 7.15628L6.82222 6.42742H9.17811L9.47885 7.15628ZM8.00017 3.59972L8.77501 5.48346H7.22532L8.00017 3.59972ZM5.3686 6.21439L5.16602 3.00034L7.32764 2L5.3686 6.21439Z" fill="black"/>
<path fill-rule="evenodd" clip-rule="evenodd" d="M8 9L10.1875 10.2672V12.7328L8 14L5.8125 12.7328V10.2672L8 9ZM6.28125 10.8094L7.76563 11.6693V13.3221L6.28125 12.4622V10.8094ZM8.23437 13.3221L9.71875 12.4622V10.8094L8.23437 11.6693V13.3221ZM8 11.2629L9.48519 10.4025L8 9.54215L6.51481 10.4025L8 11.2629Z" fill="black"/>
</g>
<defs>
<clipPath id="clip0_157_6091">
<rect width="16" height="16" fill="white"/>
</clipPath>
</defs>
</svg>
