<svg width="16" height="16" viewBox="0 0 16 16" fill="none" xmlns="http://www.w3.org/2000/svg">
<g clip-path="url(#clip0_157_5967)">
<rect width="16" height="16" rx="3" fill="white"/>
<path d="M4.13281 8.1602C4.13281 9.30376 4.46335 10.5651 5.02184 11.5453C5.11682 11.7087 5.29538 11.7543 5.46635 11.6593C5.62592 11.5719 5.67151 11.3934 5.57273 11.2148C5.06363 10.2878 4.77869 9.18218 4.77869 8.1602C4.77869 6.0516 6.06663 4.64587 8.00046 4.64587C9.93046 4.64587 11.2222 6.0516 11.2222 8.1602C11.2222 9.18218 10.9335 10.2878 10.4244 11.2148C10.3256 11.3934 10.3712 11.5719 10.5308 11.6593C10.7017 11.7543 10.8841 11.7087 10.9753 11.5453C11.5337 10.5651 11.8681 9.30376 11.8681 8.1602C11.8681 5.66028 10.3256 4 8.00046 4C5.67151 4 4.13281 5.66028 4.13281 8.1602ZM5.32198 11.4503C5.44736 11.8872 5.81968 12.0886 6.2604 11.9633C6.69731 11.8379 6.90247 11.4579 6.7733 11.021L6.23 9.16697C6.10463 8.73389 5.7323 8.5287 5.29159 8.65409C4.85467 8.78325 4.64951 9.15938 4.77869 9.60009L5.32198 11.4503ZM10.6751 11.4503L11.2184 9.60009C11.3476 9.15561 11.1462 8.78325 10.7055 8.65409C10.2648 8.5287 9.8963 8.73389 9.7671 9.16697L9.2238 11.021C9.09464 11.4617 9.29978 11.8379 9.73672 11.9633C10.1812 12.0886 10.5497 11.8872 10.6751 11.4503Z" fill="black"/>
</g>
<defs>
<clipPath id="clip0_157_5967">
<rect width="16" height="16" fill="white"/>
</clipPath>
</defs>
</svg>
