<svg width="16" height="16" viewBox="0 0 16 16" fill="none" xmlns="http://www.w3.org/2000/svg">
<g clip-path="url(#clip0_157_6127)">
<rect width="16" height="16" rx="3" fill="#31A8FF"/>
<path d="M4.57013 9.5C4.19834 9.5 3.87759 9.43905 3.60788 9.3174C3.3392 9.19423 3.13222 9.02103 2.9867 8.79755C2.84119 8.57407 2.76855 8.30817 2.76855 7.99987V7.99606C2.76855 7.68903 2.84119 7.4239 2.9867 7.20041C3.13222 6.97693 3.3392 6.80424 3.60788 6.68259C3.87759 6.56095 4.19834 6.5 4.57013 6.5C4.89012 6.5 5.17658 6.55104 5.42901 6.65288C5.68297 6.75345 5.88741 6.89617 6.04232 7.08131C6.19698 7.26517 6.28815 7.48205 6.31609 7.7322L6.3199 7.76776H5.34191L5.33784 7.74795C5.3127 7.6423 5.26521 7.55214 5.19512 7.47824C5.1263 7.40409 5.03893 7.3472 4.93303 7.30758C4.82739 7.26797 4.70828 7.2479 4.57597 7.2479C4.41064 7.2479 4.26843 7.27838 4.14932 7.33933C4.03174 7.40002 3.94108 7.48688 3.87759 7.59913C3.8141 7.71036 3.78235 7.84267 3.78235 7.99606V7.99987C3.78235 8.15351 3.8141 8.28633 3.87759 8.39884C3.94108 8.51109 4.03225 8.59794 4.15135 8.65864C4.27046 8.71959 4.41268 8.74981 4.578 8.74981C4.70904 8.74981 4.82663 8.73076 4.93126 8.69241C5.03563 8.6528 5.123 8.59591 5.19309 8.52175C5.26318 8.44633 5.31143 8.35566 5.33784 8.25002L5.34191 8.22818H6.3199L6.31786 8.25992C6.28891 8.51261 6.19698 8.73152 6.04232 8.91666C5.88741 9.10179 5.68373 9.24528 5.43104 9.34712C5.17988 9.44895 4.89291 9.5 4.57013 9.5Z" fill="black"/>
<path d="M8.20496 9.5C7.87184 9.5 7.58499 9.46447 7.3444 9.39315C7.1038 9.32158 6.91413 9.21726 6.77532 9.0797C6.63651 8.94086 6.55258 8.77234 6.52349 8.57411L6.51953 8.54442H7.47725L7.48121 8.55812C7.49443 8.61497 7.53078 8.66396 7.59027 8.70508C7.65108 8.74467 7.73369 8.77564 7.83814 8.79822C7.94255 8.81929 8.06946 8.82995 8.21885 8.82995C8.33649 8.82995 8.43763 8.82005 8.52222 8.80025C8.60814 8.77893 8.67423 8.74924 8.7205 8.71091C8.76677 8.67259 8.78991 8.62843 8.78991 8.57817V8.57614C8.78991 8.51269 8.76149 8.4665 8.70463 8.43731C8.64781 8.40812 8.54867 8.38579 8.40722 8.3698L7.67753 8.31624C7.30473 8.28071 7.02913 8.19264 6.85067 8.05254C6.67352 7.91117 6.58496 7.71548 6.58496 7.46574V7.46167C6.58496 7.26091 6.64577 7.08883 6.76737 6.94619C6.89032 6.80203 7.06547 6.69162 7.29283 6.61497C7.52022 6.53832 7.79121 6.5 8.10583 6.5C8.42177 6.5 8.6921 6.53629 8.91682 6.60914C9.14286 6.68046 9.32131 6.7835 9.4522 6.91853C9.58306 7.0533 9.66436 7.21523 9.69608 7.40431L9.70202 7.43604H8.75423L8.75024 7.42005C8.7357 7.36447 8.70199 7.31904 8.64913 7.28325C8.59758 7.24619 8.5275 7.21853 8.43895 7.2C8.35037 7.1802 8.24395 7.1703 8.11971 7.1703C7.99677 7.1703 7.89496 7.17944 7.81433 7.19797C7.73369 7.21523 7.67288 7.24086 7.63192 7.27538C7.59093 7.30838 7.57045 7.34797 7.57045 7.39442V7.39619C7.57045 7.45964 7.60085 7.50736 7.66166 7.53909C7.7238 7.57081 7.82623 7.59391 7.969 7.60838L8.71258 7.66396C8.95184 7.68782 9.15012 7.73325 9.30743 7.80076C9.46474 7.86701 9.58174 7.95812 9.65839 8.07437C9.73639 8.18934 9.7754 8.33097 9.7754 8.49873V8.50076C9.7754 8.70685 9.71326 8.88553 9.589 9.03604C9.46474 9.18553 9.28562 9.30051 9.05164 9.38122C8.81768 9.46041 8.53545 9.5 8.20496 9.5Z" fill="black"/>
<path d="M11.661 9.5C11.3279 9.5 11.041 9.46447 10.8005 9.39315C10.5599 9.32158 10.3702 9.21726 10.2314 9.0797C10.0926 8.94086 10.0086 8.77234 9.97954 8.57411L9.97559 8.54442H10.9333L10.9373 8.55812C10.9505 8.61497 10.9868 8.66396 11.0463 8.70508C11.1071 8.74467 11.1897 8.77564 11.2942 8.79822C11.3986 8.81929 11.5255 8.82995 11.6749 8.82995C11.7925 8.82995 11.8937 8.82005 11.9783 8.80025C12.0642 8.77893 12.1303 8.74924 12.1766 8.71091C12.2228 8.67259 12.246 8.62843 12.246 8.57817V8.57614C12.246 8.51269 12.2175 8.4665 12.1607 8.43731C12.1039 8.40812 12.0047 8.38579 11.8633 8.3698L11.1336 8.31624C10.7608 8.28071 10.4852 8.19264 10.3067 8.05254C10.1296 7.91117 10.041 7.71548 10.041 7.46574V7.46167C10.041 7.26091 10.1018 7.08883 10.2234 6.94619C10.3464 6.80203 10.5215 6.69162 10.7489 6.61497C10.9763 6.53832 11.2473 6.5 11.5619 6.5C11.8778 6.5 12.1482 6.53629 12.3729 6.60914C12.5989 6.68046 12.7774 6.7835 12.9083 6.91853C13.0391 7.0533 13.1204 7.21523 13.1521 7.40431L13.1581 7.43604H12.2103L12.2063 7.42005C12.1918 7.36447 12.158 7.31904 12.1052 7.28325C12.0536 7.24619 11.9836 7.21853 11.895 7.2C11.8064 7.1802 11.7 7.1703 11.5758 7.1703C11.4528 7.1703 11.351 7.17944 11.2704 7.19797C11.1897 7.21523 11.1289 7.24086 11.088 7.27538C11.047 7.30838 11.0265 7.34797 11.0265 7.39442V7.39619C11.0265 7.45964 11.0569 7.50736 11.1177 7.53909C11.1799 7.57081 11.2823 7.59391 11.4251 7.60838L12.1686 7.66396C12.4079 7.68782 12.6062 7.73325 12.7635 7.80076C12.9208 7.86701 13.0378 7.95812 13.1144 8.07437C13.1924 8.18934 13.2315 8.33097 13.2315 8.49873V8.50076C13.2315 8.70685 13.1693 8.88553 13.0451 9.03604C12.9208 9.18553 12.7417 9.30051 12.5077 9.38122C12.2737 9.46041 11.9915 9.5 11.661 9.5Z" fill="black"/>
</g>
<defs>
<clipPath id="clip0_157_6127">
<rect width="16" height="16" fill="white"/>
</clipPath>
</defs>
</svg>
