<svg width="16" height="16" viewBox="0 0 16 16" fill="none" xmlns="http://www.w3.org/2000/svg">
<g clip-path="url(#clip0_157_6133)">
<rect width="16" height="16" rx="3" fill="#31A8FF"/>
<path d="M4.57013 6.5C4.19834 6.5 3.87759 6.43905 3.60788 6.3174C3.3392 6.19423 3.13222 6.02103 2.9867 5.79755C2.84119 5.57407 2.76855 5.30817 2.76855 4.99987V4.99606C2.76855 4.68903 2.84119 4.4239 2.9867 4.20041C3.13222 3.97693 3.3392 3.80424 3.60788 3.68259C3.87759 3.56095 4.19834 3.5 4.57013 3.5C4.89012 3.5 5.17658 3.55104 5.42901 3.65288C5.68297 3.75345 5.88741 3.89617 6.04232 4.08131C6.19698 4.26517 6.28815 4.48205 6.31609 4.7322L6.3199 4.76776H5.34191L5.33784 4.74795C5.3127 4.6423 5.26521 4.55214 5.19512 4.47824C5.1263 4.40409 5.03893 4.3472 4.93303 4.30758C4.82739 4.26797 4.70828 4.2479 4.57597 4.2479C4.41064 4.2479 4.26843 4.27838 4.14932 4.33933C4.03174 4.40002 3.94108 4.48688 3.87759 4.59913C3.8141 4.71036 3.78235 4.84267 3.78235 4.99606V4.99987C3.78235 5.15351 3.8141 5.28633 3.87759 5.39884C3.94108 5.51109 4.03225 5.59794 4.15135 5.65864C4.27046 5.71959 4.41268 5.74981 4.578 5.74981C4.70904 5.74981 4.82663 5.73076 4.93126 5.69241C5.03563 5.6528 5.123 5.59591 5.19309 5.52175C5.26318 5.44633 5.31143 5.35566 5.33784 5.25002L5.34191 5.22818H6.3199L6.31786 5.25992C6.28891 5.51261 6.19698 5.73152 6.04232 5.91666C5.88741 6.10179 5.68373 6.24528 5.43104 6.34712C5.17988 6.44895 4.89291 6.5 4.57013 6.5Z" fill="black"/>
<path d="M8.20496 6.5C7.87184 6.5 7.58499 6.46447 7.3444 6.39315C7.1038 6.32158 6.91413 6.21726 6.77532 6.0797C6.63651 5.94086 6.55258 5.77234 6.52349 5.57411L6.51953 5.54442H7.47725L7.48121 5.55812C7.49443 5.61497 7.53078 5.66396 7.59027 5.70508C7.65108 5.74467 7.73369 5.77564 7.83814 5.79822C7.94255 5.81929 8.06946 5.82995 8.21885 5.82995C8.33649 5.82995 8.43763 5.82005 8.52222 5.80025C8.60814 5.77893 8.67423 5.74924 8.7205 5.71091C8.76677 5.67259 8.78991 5.62843 8.78991 5.57817V5.57614C8.78991 5.51269 8.76149 5.4665 8.70463 5.43731C8.64781 5.40812 8.54867 5.38579 8.40722 5.3698L7.67753 5.31624C7.30473 5.28071 7.02913 5.19264 6.85067 5.05254C6.67352 4.91117 6.58496 4.71548 6.58496 4.46574V4.46167C6.58496 4.26091 6.64577 4.08883 6.76737 3.94619C6.89032 3.80203 7.06547 3.69162 7.29283 3.61497C7.52022 3.53832 7.79121 3.5 8.10583 3.5C8.42177 3.5 8.6921 3.53629 8.91682 3.60914C9.14286 3.68046 9.32131 3.7835 9.4522 3.91853C9.58306 4.0533 9.66436 4.21523 9.69608 4.40431L9.70202 4.43604H8.75423L8.75024 4.42005C8.7357 4.36447 8.70199 4.31904 8.64913 4.28325C8.59758 4.24619 8.5275 4.21853 8.43895 4.2C8.35037 4.1802 8.24395 4.1703 8.11971 4.1703C7.99677 4.1703 7.89496 4.17944 7.81433 4.19797C7.73369 4.21523 7.67288 4.24086 7.63192 4.27538C7.59093 4.30838 7.57045 4.34797 7.57045 4.39442V4.39619C7.57045 4.45964 7.60085 4.50736 7.66166 4.53909C7.7238 4.57081 7.82623 4.59391 7.969 4.60838L8.71258 4.66396C8.95184 4.68782 9.15012 4.73325 9.30743 4.80076C9.46474 4.86701 9.58174 4.95812 9.65839 5.07437C9.73639 5.18934 9.7754 5.33097 9.7754 5.49873V5.50076C9.7754 5.70685 9.71326 5.88553 9.589 6.03604C9.46474 6.18553 9.28562 6.30051 9.05164 6.38122C8.81768 6.46041 8.53545 6.5 8.20496 6.5Z" fill="black"/>
<path d="M11.661 6.5C11.3279 6.5 11.041 6.46447 10.8005 6.39315C10.5599 6.32158 10.3702 6.21726 10.2314 6.0797C10.0926 5.94086 10.0086 5.77234 9.97954 5.57411L9.97559 5.54442H10.9333L10.9373 5.55812C10.9505 5.61497 10.9868 5.66396 11.0463 5.70508C11.1071 5.74467 11.1897 5.77564 11.2942 5.79822C11.3986 5.81929 11.5255 5.82995 11.6749 5.82995C11.7925 5.82995 11.8937 5.82005 11.9783 5.80025C12.0642 5.77893 12.1303 5.74924 12.1766 5.71091C12.2228 5.67259 12.246 5.62843 12.246 5.57817V5.57614C12.246 5.51269 12.2175 5.4665 12.1607 5.43731C12.1039 5.40812 12.0047 5.38579 11.8633 5.3698L11.1336 5.31624C10.7608 5.28071 10.4852 5.19264 10.3067 5.05254C10.1296 4.91117 10.041 4.71548 10.041 4.46574V4.46167C10.041 4.26091 10.1018 4.08883 10.2234 3.94619C10.3464 3.80203 10.5215 3.69162 10.7489 3.61497C10.9763 3.53832 11.2473 3.5 11.5619 3.5C11.8778 3.5 12.1482 3.53629 12.3729 3.60914C12.5989 3.68046 12.7774 3.7835 12.9083 3.91853C13.0391 4.0533 13.1204 4.21523 13.1521 4.40431L13.1581 4.43604H12.2103L12.2063 4.42005C12.1918 4.36447 12.158 4.31904 12.1052 4.28325C12.0536 4.24619 11.9836 4.21853 11.895 4.2C11.8064 4.1802 11.7 4.1703 11.5758 4.1703C11.4528 4.1703 11.351 4.17944 11.2704 4.19797C11.1897 4.21523 11.1289 4.24086 11.088 4.27538C11.047 4.30838 11.0265 4.34797 11.0265 4.39442V4.39619C11.0265 4.45964 11.0569 4.50736 11.1177 4.53909C11.1799 4.57081 11.2823 4.59391 11.4251 4.60838L12.1686 4.66396C12.4079 4.68782 12.6062 4.73325 12.7635 4.80076C12.9208 4.86701 13.0378 4.95812 13.1144 5.07437C13.1924 5.18934 13.2315 5.33097 13.2315 5.49873V5.50076C13.2315 5.70685 13.1693 5.88553 13.0451 6.03604C12.9208 6.18553 12.7417 6.30051 12.5077 6.38122C12.2737 6.46041 11.9915 6.5 11.661 6.5Z" fill="black"/>
<path d="M5.34277 12.1295C5.34277 12.3161 5.45008 12.4234 5.63404 12.4234C5.70046 12.4234 5.76434 12.4029 5.84865 12.3569L6.92172 11.777V7.54343C6.87574 7.56643 6.82463 7.59198 6.77865 7.61753L5.56761 8.31247C5.41431 8.39678 5.34277 8.51942 5.34277 8.6906V12.1295ZM7.27175 11.7284L8.55943 12.4515C8.59776 12.4719 8.63865 12.4898 8.67695 12.5V8.33035L7.41483 7.55876C7.37139 7.53066 7.32029 7.51022 7.27175 7.5V11.7284ZM9.02444 12.4923C9.04998 12.4847 9.07808 12.4745 9.10107 12.4591L10.4322 11.7029C10.5855 11.6186 10.657 11.4959 10.657 11.3247V7.88324C10.657 7.69418 10.5497 7.58942 10.3658 7.58942C10.2993 7.58942 10.2355 7.60986 10.1512 7.65585L9.02444 8.28181V12.4923Z" fill="black"/>
</g>
<defs>
<clipPath id="clip0_157_6133">
<rect width="16" height="16" fill="white"/>
</clipPath>
</defs>
</svg>
