<svg width="16" height="16" viewBox="0 0 16 16" fill="none" xmlns="http://www.w3.org/2000/svg">
<g clip-path="url(#clip0_157_6161)">
<rect width="16" height="16" rx="3" fill="#FF9A00"/>
<path d="M0.783203 9.5V6.5H1.82693V7.59962H3.36539V6.5H4.40699V9.5H3.36539V8.37324H1.82693V9.5H0.783203Z" fill="black"/>
<path d="M5.73007 9.5V7.2713H4.60742V6.5H7.89224V7.2713H6.77167V9.5H5.73007Z" fill="black"/>
<path d="M8.0918 9.5V6.5H9.32261L10.2 8.42087H10.2229L11.0982 6.5H12.329V9.5H11.3871V7.72443H11.0004L11.6304 7.07163L10.543 9.5H9.87773L8.79037 7.07163L9.42033 7.72443H9.03362V9.5H8.0918Z" fill="black"/>
<path d="M12.5293 9.5V6.5H13.573V8.73064H15.2176V9.5H12.5293Z" fill="black"/>
</g>
<defs>
<clipPath id="clip0_157_6161">
<rect width="16" height="16" fill="white"/>
</clipPath>
</defs>
</svg>
