<svg width="16" height="16" viewBox="0 0 16 16" fill="none" xmlns="http://www.w3.org/2000/svg">
<g clip-path="url(#clip0_157_5964)">
<rect width="16" height="16" rx="3" fill="white"/>
<path d="M13.1235 5.34709V10.6572C13.1235 11.5524 12.6716 12 11.7591 12H4.24143C3.33323 12 2.87695 11.5524 2.87695 10.6572V5.34709C2.87695 4.45193 3.33323 4 4.24143 4H11.7591C12.6716 4 13.1235 4.45193 13.1235 5.34709ZM9.03449 8.11081L6.95735 9.95329L6.12736 9.20586C5.93616 9.02769 5.71454 8.94079 5.50162 8.94079C5.31042 8.94079 5.10183 9.02769 4.91063 9.19719L3.57658 10.3618V10.6268C3.57658 11.0527 3.82861 11.3047 4.25012 11.3047H11.7548C12.1676 11.3047 12.424 11.0527 12.424 10.6355V9.96633L10.425 8.11516C10.2208 7.92396 9.97312 7.8327 9.73412 7.8327C9.4864 7.8327 9.24741 7.91961 9.03449 8.11081ZM5.06272 7.03748C5.06272 7.62847 5.54507 8.11081 6.13605 8.11081C6.72269 8.11081 7.20504 7.62847 7.20504 7.03748C7.20504 6.45084 6.72269 5.96415 6.13605 5.96415C5.54507 5.96415 5.06272 6.45084 5.06272 7.03748Z" fill="black"/>
</g>
<defs>
<clipPath id="clip0_157_5964">
<rect width="16" height="16" fill="white"/>
</clipPath>
</defs>
</svg>
