<svg width="16" height="16" viewBox="0 0 16 16" fill="none" xmlns="http://www.w3.org/2000/svg">
<g clip-path="url(#clip0_157_6188)">
<rect width="16" height="16" rx="3" fill="#33FF66"/>
<path d="M4.51077 11C4.06386 11 3.65645 10.946 3.28853 10.8379C2.92061 10.7267 2.60258 10.5661 2.33443 10.3546C2.06941 10.141 1.86362 9.87962 1.71759 9.57094C1.57105 9.26278 1.49674 8.91097 1.49414 8.5155V8.49524H3.44702L3.45119 8.51135C3.45638 8.71713 3.50263 8.89174 3.5889 9.03516C3.67828 9.17859 3.79987 9.28824 3.95421 9.36411C4.10855 9.43738 4.28576 9.47376 4.48634 9.47376C4.80282 9.47376 5.04394 9.38957 5.20867 9.22224C5.37652 9.05439 5.46071 8.81587 5.46071 8.50771V5H7.49466V8.52798C7.49466 9.03672 7.37981 9.47636 7.1496 9.8474C6.91939 10.2153 6.58266 10.4996 6.13835 10.6996C5.69456 10.9002 5.15203 11 4.51077 11Z" fill="black"/>
<path d="M11.365 11C10.6988 11 10.1251 10.9289 9.64389 10.7863C9.16267 10.6432 8.78333 10.4345 8.50572 10.1594C8.2281 9.88173 8.06023 9.54467 8.00206 9.14822L7.99414 9.08884H9.90957L9.91749 9.11624C9.94394 9.22995 10.0166 9.32792 10.1356 9.41015C10.2572 9.48934 10.4225 9.55127 10.6314 9.59645C10.8402 9.63858 11.094 9.6599 11.3928 9.6599C11.6281 9.6599 11.8303 9.6401 11.9995 9.60051C12.1714 9.55787 12.3035 9.49848 12.3961 9.42183C12.4886 9.34518 12.5349 9.25685 12.5349 9.15635V9.15229C12.5349 9.02538 12.4781 8.933 12.3643 8.87462C12.2507 8.81624 12.0524 8.77157 11.7695 8.7396L10.3101 8.63249C9.56455 8.56142 9.01333 8.38528 8.65642 8.10508C8.30211 7.82234 8.125 7.43097 8.125 6.93147V6.92335C8.125 6.52183 8.24663 6.17766 8.48983 5.89238C8.73571 5.60406 9.08602 5.38325 9.54074 5.22995C9.99551 5.07665 10.5375 5 11.1667 5C11.7986 5 12.3393 5.07259 12.7887 5.21827C13.2408 5.36091 13.5977 5.567 13.8595 5.83705C14.1212 6.1066 14.2838 6.43046 14.3472 6.80863L14.3591 6.87208H12.4635L12.4556 6.8401C12.4265 6.72894 12.3591 6.63807 12.2533 6.5665C12.1502 6.49239 12.0101 6.43705 11.833 6.4C11.6558 6.3604 11.443 6.34061 11.1945 6.34061C10.9486 6.34061 10.745 6.35888 10.5837 6.39594C10.4225 6.43046 10.3008 6.48173 10.2189 6.55076C10.1369 6.61675 10.096 6.69594 10.096 6.78883V6.79239C10.096 6.91929 10.1568 7.01472 10.2784 7.07817C10.4027 7.14162 10.6075 7.18782 10.8931 7.21675L12.3802 7.32792C12.8588 7.37564 13.2553 7.4665 13.5699 7.60152C13.8845 7.73401 14.1186 7.91624 14.2719 8.14873C14.4278 8.37868 14.5059 8.66193 14.5059 8.99746V9.00152C14.5059 9.41371 14.3816 9.77107 14.1331 10.0721C13.8845 10.3711 13.5263 10.601 13.0584 10.7624C12.5904 10.9208 12.026 11 11.365 11Z" fill="black"/>
</g>
<defs>
<clipPath id="clip0_157_6188">
<rect width="16" height="16" fill="white"/>
</clipPath>
</defs>
</svg>
