<svg width="16" height="16" viewBox="0 0 16 16" fill="none" xmlns="http://www.w3.org/2000/svg">
<g clip-path="url(#clip0_157_6172)">
<rect width="16" height="16" rx="3" fill="#F0DB4F"/>
<path d="M4.61038 8C4.16347 8 3.75606 7.94596 3.38814 7.83787C3.02022 7.72666 2.70219 7.56609 2.43404 7.35459C2.16902 7.14101 1.96322 6.87962 1.8172 6.57094C1.67066 6.26278 1.59635 5.91097 1.59375 5.5155V5.49524H3.54663L3.5508 5.51135C3.55599 5.71713 3.60224 5.89174 3.6885 6.03516C3.77789 6.17859 3.89948 6.28824 4.05382 6.36411C4.20816 6.43738 4.38536 6.47376 4.58595 6.47376C4.90243 6.47376 5.14355 6.38957 5.30828 6.22224C5.47613 6.05439 5.56032 5.81587 5.56032 5.50771V2H7.59427V5.52798C7.59427 6.03672 7.47942 6.47636 7.24921 6.8474C7.019 7.21532 6.68226 7.49957 6.23795 7.69964C5.79416 7.90023 5.25164 8 4.61038 8Z" fill="black"/>
<path d="M11.2654 8C10.5992 8 10.0254 7.92894 9.54428 7.7863C9.06306 7.64315 8.68372 7.43452 8.40611 7.15939C8.12849 6.88173 7.96062 6.54467 7.90245 6.14822L7.89453 6.08884H9.80996L9.81788 6.11624C9.84433 6.22995 9.91702 6.32792 10.036 6.41015C10.1576 6.48934 10.3229 6.55127 10.5317 6.59645C10.7406 6.63858 10.9944 6.6599 11.2932 6.6599C11.5284 6.6599 11.7307 6.6401 11.8999 6.60051C12.0717 6.55787 12.2039 6.49848 12.2965 6.42183C12.389 6.34518 12.4353 6.25685 12.4353 6.15635V6.15229C12.4353 6.02538 12.3784 5.933 12.2647 5.87462C12.1511 5.81624 11.9528 5.77157 11.6699 5.7396L10.2105 5.63249C9.46494 5.56142 8.91372 5.38528 8.55682 5.10508C8.2025 4.82234 8.02539 4.43097 8.02539 3.93147V3.92335C8.02539 3.52183 8.14702 3.17766 8.39022 2.89238C8.6361 2.60406 8.98641 2.38325 9.44113 2.22995C9.8959 2.07665 10.4379 2 11.0671 2C11.699 2 12.2397 2.07259 12.6891 2.21827C13.1412 2.36091 13.4981 2.567 13.7599 2.83705C14.0216 3.1066 14.1842 3.43046 14.2476 3.80863L14.2595 3.87208H12.3639L12.356 3.8401C12.3269 3.72894 12.2595 3.63807 12.1537 3.5665C12.0506 3.49239 11.9105 3.43705 11.7334 3.4C11.5562 3.3604 11.3434 3.34061 11.0949 3.34061C10.849 3.34061 10.6454 3.35888 10.4841 3.39594C10.3229 3.43046 10.2012 3.48173 10.1193 3.55076C10.0373 3.61675 9.99636 3.69594 9.99636 3.78883V3.79239C9.99636 3.91929 10.0572 4.01472 10.1788 4.07817C10.3031 4.14162 10.5079 4.18782 10.7935 4.21675L12.2806 4.32792C12.7592 4.37564 13.1557 4.4665 13.4703 4.60152C13.7849 4.73401 14.0189 4.91624 14.1722 5.14873C14.3282 5.37868 14.4063 5.66193 14.4063 5.99746V6.00152C14.4063 6.41371 14.282 6.77107 14.0335 7.07208C13.7849 7.37107 13.4267 7.60101 12.9587 7.76244C12.4908 7.92081 11.9264 8 11.2654 8Z" fill="black"/>
<path d="M5.34277 13.6295C5.34277 13.8161 5.45008 13.9234 5.63404 13.9234C5.70046 13.9234 5.76434 13.9029 5.84865 13.8569L6.92172 13.277V9.04343C6.87574 9.06643 6.82463 9.09198 6.77865 9.11753L5.56761 9.81247C5.41431 9.89678 5.34277 10.0194 5.34277 10.1906V13.6295ZM7.27175 13.2284L8.55943 13.9515C8.59776 13.9719 8.63865 13.9898 8.67695 14V9.83035L7.41483 9.05876C7.37139 9.03066 7.32029 9.01022 7.27175 9V13.2284ZM9.02444 13.9923C9.04998 13.9847 9.07808 13.9745 9.10107 13.9591L10.4322 13.2029C10.5855 13.1186 10.657 12.9959 10.657 12.8247V9.38324C10.657 9.19418 10.5497 9.08942 10.3658 9.08942C10.2993 9.08942 10.2355 9.10986 10.1512 9.15585L9.02444 9.78181V13.9923Z" fill="black"/>
</g>
<defs>
<clipPath id="clip0_157_6172">
<rect width="16" height="16" fill="white"/>
</clipPath>
</defs>
</svg>
