<svg width="16" height="16" viewBox="0 0 16 16" fill="none" xmlns="http://www.w3.org/2000/svg">
<g clip-path="url(#clip0_157_6020)">
<rect width="16" height="16" rx="3" fill="white"/>
<path d="M2.50831 9.5C2.28486 9.5 2.08115 9.47298 1.89719 9.41893C1.71323 9.36333 1.55422 9.28304 1.42015 9.17729C1.28763 9.0705 1.18474 8.93981 1.11173 8.78547C1.03845 8.63139 1.0013 8.45548 1 8.25775V8.24762H1.97644L1.97852 8.25567C1.98112 8.35857 2.00425 8.44587 2.04738 8.51758C2.09207 8.5893 2.15287 8.64412 2.23003 8.68206C2.3072 8.71869 2.39581 8.73688 2.4961 8.73688C2.65434 8.73688 2.7749 8.69479 2.85727 8.61112C2.94119 8.5272 2.98328 8.40793 2.98328 8.25385V6.5H4.00026V8.26399C4.00026 8.51836 3.94284 8.73818 3.82773 8.9237C3.71263 9.10766 3.54426 9.24979 3.3221 9.34982C3.10021 9.45012 2.82894 9.5 2.50831 9.5Z" fill="black"/>
<path d="M5.88563 9.5C5.55251 9.5 5.26565 9.46447 5.02507 9.39315C4.78446 9.32158 4.59479 9.21726 4.45598 9.0797C4.31718 8.94086 4.23324 8.77234 4.20415 8.57411L4.2002 8.54442H5.15791L5.16187 8.55812C5.17509 8.61497 5.21144 8.66396 5.27093 8.70508C5.33174 8.74467 5.41436 8.77564 5.5188 8.79822C5.62322 8.81929 5.75012 8.82995 5.89951 8.82995C6.01715 8.82995 6.11829 8.82005 6.20289 8.80025C6.2888 8.77893 6.35489 8.74924 6.40116 8.71091C6.44743 8.67259 6.47058 8.62843 6.47058 8.57817V8.57614C6.47058 8.51269 6.44215 8.4665 6.3853 8.43731C6.32847 8.40812 6.22933 8.38579 6.08789 8.3698L5.35819 8.31624C4.9854 8.28071 4.70979 8.19264 4.53134 8.05254C4.35418 7.91117 4.26563 7.71548 4.26563 7.46574V7.46167C4.26563 7.26091 4.32644 7.08883 4.44804 6.94619C4.57098 6.80203 4.74613 6.69162 4.97349 6.61497C5.20088 6.53832 5.47187 6.5 5.78649 6.5C6.10243 6.5 6.37276 6.53629 6.59748 6.60914C6.82352 6.68046 7.00197 6.7835 7.13286 6.91853C7.26373 7.0533 7.34502 7.21523 7.37675 7.40431L7.38269 7.43604H6.43489L6.43091 7.42005C6.41636 7.36447 6.38266 7.31904 6.32979 7.28325C6.27824 7.24619 6.20817 7.21853 6.11961 7.2C6.03103 7.1802 5.92461 7.1703 5.80037 7.1703C5.67743 7.1703 5.57563 7.17944 5.49499 7.19797C5.41436 7.21523 5.35355 7.24086 5.31258 7.27538C5.27159 7.30838 5.25111 7.34797 5.25111 7.39442V7.39619C5.25111 7.45964 5.28152 7.50736 5.34233 7.53909C5.40446 7.57081 5.5069 7.59391 5.64966 7.60838L6.39324 7.66396C6.63251 7.68782 6.83078 7.73325 6.98809 7.80076C7.1454 7.86701 7.2624 7.95812 7.33905 8.07437C7.41705 8.18934 7.45606 8.33097 7.45606 8.49873V8.50076C7.45606 8.70685 7.39393 8.88553 7.26966 9.03604C7.1454 9.18553 6.96629 9.30051 6.7323 9.38122C6.49834 9.46041 6.21611 9.5 5.88563 9.5Z" fill="black"/>
<path d="M9.50152 9.5C9.12973 9.5 8.80491 9.43905 8.52733 9.31738C8.25077 9.19568 8.03643 9.02306 7.8843 8.79953C7.73218 8.57467 7.65625 8.3088 7.65625 8.00194V7.99798C7.65625 7.6911 7.73218 7.42591 7.8843 7.20238C8.03643 6.9775 8.25077 6.80422 8.52733 6.68255C8.80491 6.56085 9.12973 6.5 9.50152 6.5C9.87586 6.5 10.2012 6.56085 10.4775 6.68255C10.7541 6.80422 10.9684 6.9775 11.1205 7.20238C11.2726 7.42591 11.3486 7.6911 11.3486 7.99798V8.00194C11.3486 8.3088 11.2726 8.57467 11.1205 8.79953C10.9684 9.02306 10.7541 9.19568 10.4775 9.31738C10.2012 9.43905 9.87586 9.5 9.50152 9.5ZM9.50152 8.75191C9.67066 8.75191 9.81745 8.72149 9.94189 8.66064C10.0676 8.59981 10.1641 8.51316 10.2317 8.40074C10.3002 8.28831 10.3348 8.15539 10.3348 8.00194V7.99798C10.3348 7.84454 10.3002 7.71228 10.2317 7.60117C10.1641 7.48874 10.0676 7.40209 9.94189 7.34124C9.81745 7.27907 9.67066 7.24799 9.50152 7.24799C9.3334 7.24799 9.18661 7.27907 9.0609 7.34124C8.93672 7.40209 8.83996 7.48874 8.77139 7.60117C8.70384 7.71228 8.67006 7.84454 8.67006 7.99798V8.00194C8.67006 8.15539 8.70384 8.28831 8.77139 8.40074C8.83996 8.51316 8.93672 8.59981 9.0609 8.66064C9.18661 8.72149 9.3334 8.75191 9.50152 8.75191Z" fill="black"/>
<path d="M11.5488 9.5V6.5H12.418L14.4304 8.52493L13.5533 8.0946H14.0065V6.5H15.0002V9.5H14.1374L12.1207 7.44793L12.9981 7.88463H12.5428V9.5H11.5488Z" fill="black"/>
</g>
<defs>
<clipPath id="clip0_157_6020">
<rect width="16" height="16" fill="white"/>
</clipPath>
</defs>
</svg>
