<svg width="16" height="16" viewBox="0 0 16 16" fill="none" xmlns="http://www.w3.org/2000/svg">
<g clip-path="url(#clip0_157_6154)">
<rect width="16" height="16" rx="3" fill="#31A8FF"/>
<path d="M1.66699 9.5V6.5H2.7107V8.73064H4.35526V9.5H1.66699Z" fill="black"/>
<path d="M4.55566 9.5V6.5H7.42263V7.22974H5.59933V7.66632H7.29373V8.31497H5.59933V8.77026H7.42263V9.5H4.55566Z" fill="black"/>
<path d="M9.3075 9.5C8.97438 9.5 8.68753 9.46447 8.44694 9.39315C8.20633 9.32158 8.01666 9.21726 7.87786 9.0797C7.73905 8.94086 7.65512 8.77234 7.62603 8.57411L7.62207 8.54442H8.57979L8.58375 8.55812C8.59697 8.61497 8.63331 8.66396 8.69281 8.70508C8.75362 8.74467 8.83623 8.77564 8.94068 8.79822C9.04509 8.81929 9.172 8.82995 9.32139 8.82995C9.43903 8.82995 9.54017 8.82005 9.62476 8.80025C9.71068 8.77893 9.77677 8.74924 9.82304 8.71091C9.8693 8.67259 9.89245 8.62843 9.89245 8.57817V8.57614C9.89245 8.51269 9.86403 8.4665 9.80717 8.43731C9.75035 8.40812 9.65121 8.38579 9.50976 8.3698L8.78007 8.31624C8.40727 8.28071 8.13166 8.19264 7.95321 8.05254C7.77605 7.91117 7.6875 7.71548 7.6875 7.46574V7.46167C7.6875 7.26091 7.74831 7.08883 7.86991 6.94619C7.99286 6.80203 8.16801 6.69162 8.39537 6.61497C8.62276 6.53832 8.89375 6.5 9.20837 6.5C9.52431 6.5 9.79464 6.53629 10.0194 6.60914C10.2454 6.68046 10.4238 6.7835 10.5547 6.91853C10.6856 7.0533 10.7669 7.21523 10.7986 7.40431L10.8046 7.43604H9.85677L9.85278 7.42005C9.83824 7.36447 9.80453 7.31904 9.75167 7.28325C9.70012 7.24619 9.63004 7.21853 9.54149 7.2C9.45291 7.1802 9.34649 7.1703 9.22225 7.1703C9.0993 7.1703 8.9975 7.17944 8.91687 7.19797C8.83623 7.21523 8.77542 7.24086 8.73446 7.27538C8.69347 7.30838 8.67298 7.34797 8.67298 7.39442V7.39619C8.67298 7.45964 8.70339 7.50736 8.7642 7.53909C8.82634 7.57081 8.92877 7.59391 9.07154 7.60838L9.81512 7.66396C10.0544 7.68782 10.2527 7.73325 10.41 7.80076C10.5673 7.86701 10.6843 7.95812 10.7609 8.07437C10.8389 8.18934 10.8779 8.33097 10.8779 8.49873V8.50076C10.8779 8.70685 10.8158 8.88553 10.6915 9.03604C10.5673 9.18553 10.3882 9.30051 10.1542 9.38122C9.92022 9.46041 9.63798 9.5 9.3075 9.5Z" fill="black"/>
<path d="M12.7636 9.5C12.4304 9.5 12.1436 9.46447 11.903 9.39315C11.6624 9.32158 11.4727 9.21726 11.3339 9.0797C11.1951 8.94086 11.1112 8.77234 11.0821 8.57411L11.0781 8.54442H12.0358L12.0398 8.55812C12.053 8.61497 12.0894 8.66396 12.1489 8.70508C12.2097 8.74467 12.2923 8.77564 12.3967 8.79822C12.5011 8.81929 12.6281 8.82995 12.7774 8.82995C12.8951 8.82995 12.9962 8.82005 13.0808 8.80025C13.1667 8.77893 13.2328 8.74924 13.2791 8.71091C13.3254 8.67259 13.3485 8.62843 13.3485 8.57817V8.57614C13.3485 8.51269 13.3201 8.4665 13.2632 8.43731C13.2064 8.40812 13.1073 8.38579 12.9658 8.3698L12.2361 8.31624C11.8633 8.28071 11.5877 8.19264 11.4093 8.05254C11.2321 7.91117 11.1436 7.71548 11.1436 7.46574V7.46167C11.1436 7.26091 11.2044 7.08883 11.326 6.94619C11.4489 6.80203 11.6241 6.69162 11.8514 6.61497C12.0788 6.53832 12.3498 6.5 12.6644 6.5C12.9804 6.5 13.2507 6.53629 13.4754 6.60914C13.7015 6.68046 13.8799 6.7835 14.0108 6.91853C14.1417 7.0533 14.2229 7.21523 14.2547 7.40431L14.2606 7.43604H13.3128L13.3088 7.42005C13.2943 7.36447 13.2606 7.31904 13.2077 7.28325C13.1562 7.24619 13.0861 7.21853 12.9975 7.2C12.909 7.1802 12.8025 7.1703 12.6783 7.1703C12.5554 7.1703 12.4536 7.17944 12.3729 7.19797C12.2923 7.21523 12.2315 7.24086 12.1905 7.27538C12.1495 7.30838 12.129 7.34797 12.129 7.39442V7.39619C12.129 7.45964 12.1594 7.50736 12.2203 7.53909C12.2824 7.57081 12.3848 7.59391 12.5276 7.60838L13.2712 7.66396C13.5104 7.68782 13.7087 7.73325 13.866 7.80076C14.0233 7.86701 14.1403 7.95812 14.217 8.07437C14.295 8.18934 14.334 8.33097 14.334 8.49873V8.50076C14.334 8.70685 14.2719 8.88553 14.1476 9.03604C14.0233 9.18553 13.8442 9.30051 13.6102 9.38122C13.3763 9.46041 13.094 9.5 12.7636 9.5Z" fill="black"/>
</g>
<defs>
<clipPath id="clip0_157_6154">
<rect width="16" height="16" fill="white"/>
</clipPath>
</defs>
</svg>
