<svg width="16" height="16" viewBox="0 0 16 16" fill="none" xmlns="http://www.w3.org/2000/svg">
<g clip-path="url(#clip0_157_6029)">
<rect width="16" height="16" rx="3" fill="#F9AC00"/>
<path d="M8.48827 6.10875L8.48823 8.70795L9.44298 7.75339L9.92489 8.23534L8.1601 10L6.37305 8.21295L6.85497 7.73103L7.80668 8.68273L7.80672 6.10875H8.48827Z" fill="black"/>
<path d="M2.34854 9.86772V7.85476L3.58099 9.0873L4.82279 7.84559V9.84738H5.50434V6.20027L3.58103 8.12345L1.66699 6.20928V9.86772H2.34854Z" fill="black"/>
<path d="M13.8506 6L14.3325 6.48194L12.8889 7.92542L14.2881 9.32459L13.8062 9.80653L12.407 8.40738L11.0078 9.80653L10.5259 9.32459L11.9249 7.92542L10.4814 6.48194L10.9634 6L12.407 7.44345L13.8506 6Z" fill="black"/>
</g>
<defs>
<clipPath id="clip0_157_6029">
<rect width="16" height="16" fill="white"/>
</clipPath>
</defs>
</svg>
