<svg width="16" height="16" viewBox="0 0 16 16" fill="none" xmlns="http://www.w3.org/2000/svg">
<g clip-path="url(#clip0_157_6183)">
<rect width="16" height="16" rx="3" fill="#33FF66"/>
<path d="M8.01562 7.14062C7.54532 7.14062 7.16406 7.52188 7.16406 7.99219C7.16406 8.46249 7.54532 8.84375 8.01562 8.84375C8.48593 8.84375 8.86719 8.46249 8.86719 7.99219C8.86719 7.52188 8.48593 7.14062 8.01562 7.14062Z" fill="black"/>
<path d="M12.4447 7.99991C12.4447 7.33137 11.8256 6.74502 10.8399 6.35914C10.853 6.27224 10.865 6.18628 10.8734 6.10189C10.9707 5.14127 10.7392 4.44795 10.222 4.14928C9.64339 3.81517 8.82609 4.05768 7.99969 4.719C7.17329 4.05768 6.35598 3.81517 5.77734 4.14928C5.26018 4.44795 5.02872 5.14127 5.12595 6.10189C5.13441 6.18628 5.14602 6.27256 5.1595 6.35977C5.07733 6.39114 4.99673 6.4244 4.91927 6.45922C4.03924 6.85483 3.55469 7.40258 3.55469 7.99991C3.55469 8.66845 4.17378 9.2548 5.1595 9.64068C5.14602 9.72758 5.13441 9.81354 5.12595 9.89793C5.02872 10.8586 5.26018 11.5519 5.77734 11.8505C5.95515 11.9514 6.15663 12.0029 6.361 11.9999C6.85088 11.9999 7.42293 11.742 7.99969 11.2808C8.57613 11.742 9.14849 11.9999 9.639 11.9999C9.84336 12.0029 10.0448 11.9513 10.2227 11.8505C10.7398 11.5519 10.9713 10.8586 10.8741 9.89793C10.8656 9.81354 10.8537 9.72758 10.8405 9.64068C11.8262 9.25543 12.4453 8.66814 12.4453 7.99991M9.63524 4.42348C9.76664 4.42031 9.89653 4.45214 10.0116 4.51571C10.3707 4.72308 10.5319 5.28559 10.4535 6.05891C10.4482 6.11162 10.4419 6.16495 10.4344 6.2186C10.0245 6.09513 9.60478 6.00706 9.17985 5.95538C8.92227 5.61288 8.63582 5.29307 8.32366 4.99947C8.81386 4.62049 9.27394 4.42348 9.63492 4.42348M9.46651 8.84696C9.30789 9.12236 9.13517 9.38937 8.94903 9.64695C8.63352 9.67937 8.31654 9.6955 7.99937 9.69527C7.68231 9.69549 7.36544 9.67936 7.05003 9.64695C6.86439 9.38937 6.69219 9.12234 6.53412 8.84696C6.37551 8.57233 6.23136 8.2896 6.10226 7.99991C6.23136 7.71023 6.37551 7.42749 6.53412 7.15286C6.69194 6.87858 6.86361 6.61252 7.04846 6.35569C7.36445 6.32247 7.68196 6.30592 7.99969 6.30612C8.31675 6.30593 8.63362 6.32206 8.94903 6.35444C9.13452 6.61166 9.30681 6.87814 9.46525 7.15286C9.62374 7.42756 9.76789 7.71029 9.89711 7.99991C9.76789 8.28954 9.62374 8.57227 9.46525 8.84696M10.1129 8.53324C10.2124 8.80474 10.2941 9.08245 10.3575 9.3646C10.0825 9.45037 9.80214 9.51797 9.51826 9.56696C9.62614 9.40424 9.73068 9.23493 9.83188 9.05904C9.93193 8.88524 10.0257 8.70987 10.1141 8.53449M7.40411 10.0997C7.59919 10.1116 7.79834 10.1185 8 10.1185C8.20166 10.1185 8.40207 10.1116 8.59745 10.0997C8.4122 10.3216 8.21262 10.5312 8 10.7271C7.78784 10.5312 7.58878 10.3216 7.40411 10.0997ZM6.48143 9.56633C6.19746 9.51756 5.917 9.45017 5.64186 9.3646C5.70498 9.0829 5.78638 8.80561 5.88554 8.53449C5.97273 8.70987 6.06619 8.88524 6.16781 9.05904C6.26942 9.23284 6.37448 9.40413 6.48143 9.56696M5.88554 7.46502C5.78673 7.19491 5.70554 6.91867 5.64249 6.63804C5.91694 6.55238 6.19665 6.48458 6.47986 6.43506C6.3726 6.59726 6.26754 6.76541 6.16624 6.94079C6.06494 7.11616 5.97242 7.28933 5.88398 7.46502M8.59557 5.89985C8.4005 5.88793 8.20135 5.88103 7.99812 5.88103C7.79656 5.88103 7.59793 5.88731 7.40223 5.89985C7.5869 5.67787 7.78596 5.46827 7.99812 5.27241C8.21082 5.46822 8.4104 5.67782 8.59557 5.89985ZM9.83125 6.94079C9.72964 6.76468 9.62457 6.59527 9.51606 6.43255C9.80069 6.48155 10.0818 6.54925 10.3575 6.63522C10.2942 6.91689 10.2129 7.19417 10.1138 7.46533C10.0266 7.28996 9.93287 7.11459 9.83157 6.9411M5.54714 6.05923C5.4678 5.28621 5.62994 4.7234 5.98873 4.51602C6.10382 4.45255 6.23368 4.42073 6.36508 4.42379C6.72606 4.42379 7.18614 4.62081 7.67634 4.99978C7.36397 5.29359 7.07732 5.61361 6.81952 5.95632C6.39471 6.00825 5.97506 6.09599 5.56502 6.2186C5.55781 6.16495 5.55122 6.11193 5.5462 6.05923M5.09302 6.84541C5.14131 6.8245 5.19055 6.80358 5.24073 6.78267C5.33938 7.19899 5.47315 7.6062 5.6406 7.99991C5.47284 8.3944 5.33896 8.80245 5.24042 9.21966C4.4413 8.89182 3.97808 8.43755 3.97808 7.99991C3.97808 7.58517 4.38579 7.16447 5.09302 6.84541ZM5.98873 11.4838C5.62994 11.2764 5.4678 10.7136 5.54714 9.9406C5.55216 9.88789 5.55875 9.83487 5.56596 9.78091C5.97584 9.90435 6.39554 9.99241 6.82046 10.0441C7.07813 10.3868 7.36457 10.7068 7.67665 11.0007C6.99327 11.5287 6.36884 11.7028 5.98967 11.4838M10.4532 9.9406C10.5316 10.7139 10.3704 11.2764 10.0113 11.4838C9.63242 11.7034 9.00768 11.5287 8.3246 11.0007C8.63658 10.7068 8.92292 10.3868 9.18048 10.0441C9.60541 9.99245 10.0251 9.90438 10.435 9.78091C10.4425 9.83487 10.4488 9.88789 10.4541 9.9406M10.7608 9.21904C10.662 8.80207 10.528 8.39424 10.3603 7.99991C10.528 7.60538 10.6618 7.19733 10.7605 6.78016C11.5581 7.108 12.0225 7.56227 12.0225 7.99991C12.0225 8.43755 11.5593 8.89182 10.7602 9.21966" fill="black"/>
</g>
<defs>
<clipPath id="clip0_157_6183">
<rect width="16" height="16" fill="white"/>
</clipPath>
</defs>
</svg>
