<svg width="16" height="16" viewBox="0 0 16 16" fill="none" xmlns="http://www.w3.org/2000/svg">
<g clip-path="url(#clip0_157_6147)">
<rect width="16" height="16" rx="3" fill="#FF61F6"/>
<path d="M2.52332 9.5C2.1902 9.5 1.90335 9.46447 1.66276 9.39315C1.42215 9.32158 1.23249 9.21726 1.09368 9.0797C0.954871 8.94086 0.870936 8.77234 0.84185 8.57411L0.837891 8.54442H1.79561L1.79957 8.55812C1.81279 8.61497 1.84914 8.66396 1.90863 8.70508C1.96944 8.74467 2.05205 8.77564 2.1565 8.79822C2.26091 8.81929 2.38782 8.82995 2.53721 8.82995C2.65485 8.82995 2.75599 8.82005 2.84058 8.80025C2.9265 8.77893 2.99259 8.74924 3.03886 8.71091C3.08513 8.67259 3.10827 8.62843 3.10827 8.57817V8.57614C3.10827 8.51269 3.07985 8.4665 3.02299 8.43731C2.96617 8.40812 2.86703 8.38579 2.72558 8.3698L1.99589 8.31624C1.62309 8.28071 1.34748 8.19264 1.16903 8.05254C0.991875 7.91117 0.903322 7.71548 0.903322 7.46574V7.46167C0.903322 7.26091 0.964134 7.08883 1.08573 6.94619C1.20868 6.80203 1.38383 6.69162 1.61119 6.61497C1.83858 6.53832 2.10957 6.5 2.42419 6.5C2.74013 6.5 3.01046 6.53629 3.23518 6.60914C3.46122 6.68046 3.63967 6.7835 3.77056 6.91853C3.90142 7.0533 3.98272 7.21523 4.01444 7.40431L4.02038 7.43604H3.07259L3.0686 7.42005C3.05406 7.36447 3.02035 7.31904 2.96749 7.28325C2.91594 7.24619 2.84586 7.21853 2.75731 7.2C2.66873 7.1802 2.56231 7.1703 2.43807 7.1703C2.31512 7.1703 2.21332 7.17944 2.13269 7.19797C2.05205 7.21523 1.99124 7.24086 1.95028 7.27538C1.90929 7.30838 1.8888 7.34797 1.8888 7.39442V7.39619C1.8888 7.45964 1.91921 7.50736 1.98002 7.53909C2.04216 7.57081 2.14459 7.59391 2.28736 7.60838L3.03094 7.66396C3.2702 7.68782 3.46848 7.73325 3.62579 7.80076C3.7831 7.86701 3.9001 7.95812 3.97675 8.07437C4.05474 8.18934 4.09376 8.33097 4.09376 8.49873V8.50076C4.09376 8.70685 4.03162 8.88553 3.90736 9.03604C3.78309 9.18553 3.60398 9.30051 3.37 9.38122C3.13604 9.46041 2.85381 9.5 2.52332 9.5Z" fill="black"/>
<path d="M4.29395 9.5L5.59129 6.5H6.59756V7.26297H6.26075L5.3917 9.5H4.29395ZM5.06112 8.92198L5.33347 8.2588H7.16722L7.43544 8.92198H5.06112ZM7.15266 9.5L6.28361 7.26297V6.5H6.95099L8.25042 9.5H7.15266Z" fill="black"/>
<path d="M10.1356 9.5C9.80251 9.5 9.51565 9.46447 9.27507 9.39315C9.03446 9.32158 8.84479 9.21726 8.70598 9.0797C8.56718 8.94086 8.48324 8.77234 8.45415 8.57411L8.4502 8.54442H9.40791L9.41187 8.55812C9.42509 8.61497 9.46144 8.66396 9.52093 8.70508C9.58174 8.74467 9.66436 8.77564 9.7688 8.79822C9.87322 8.81929 10.0001 8.82995 10.1495 8.82995C10.2672 8.82995 10.3683 8.82005 10.4529 8.80025C10.5388 8.77893 10.6049 8.74924 10.6512 8.71091C10.6974 8.67259 10.7206 8.62843 10.7206 8.57817V8.57614C10.7206 8.51269 10.6922 8.4665 10.6353 8.43731C10.5785 8.40812 10.4793 8.38579 10.3379 8.3698L9.60819 8.31624C9.2354 8.28071 8.95979 8.19264 8.78134 8.05254C8.60418 7.91117 8.51563 7.71548 8.51563 7.46574V7.46167C8.51563 7.26091 8.57644 7.08883 8.69804 6.94619C8.82098 6.80203 8.99613 6.69162 9.22349 6.61497C9.45088 6.53832 9.72187 6.5 10.0365 6.5C10.3524 6.5 10.6228 6.53629 10.8475 6.60914C11.0735 6.68046 11.252 6.7835 11.3829 6.91853C11.5137 7.0533 11.595 7.21523 11.6267 7.40431L11.6327 7.43604H10.6849L10.6809 7.42005C10.6664 7.36447 10.6327 7.31904 10.5798 7.28325C10.5282 7.24619 10.4582 7.21853 10.3696 7.2C10.281 7.1802 10.1746 7.1703 10.0504 7.1703C9.92743 7.1703 9.82563 7.17944 9.74499 7.19797C9.66436 7.21523 9.60355 7.24086 9.56258 7.27538C9.52159 7.30838 9.50111 7.34797 9.50111 7.39442V7.39619C9.50111 7.45964 9.53152 7.50736 9.59233 7.53909C9.65446 7.57081 9.7569 7.59391 9.89966 7.60838L10.6432 7.66396C10.8825 7.68782 11.0808 7.73325 11.2381 7.80076C11.3954 7.86701 11.5124 7.95812 11.5891 8.07437C11.667 8.18934 11.7061 8.33097 11.7061 8.49873V8.50076C11.7061 8.70685 11.6439 8.88553 11.5197 9.03604C11.3954 9.18553 11.2163 9.30051 10.9823 9.38122C10.7483 9.46041 10.4661 9.5 10.1356 9.5Z" fill="black"/>
<path d="M13.5917 9.5C13.2586 9.5 12.9717 9.46447 12.7311 9.39315C12.4905 9.32158 12.3008 9.21726 12.162 9.0797C12.0232 8.94086 11.9393 8.77234 11.9102 8.57411L11.9062 8.54442H12.864L12.8679 8.55812C12.8811 8.61497 12.9175 8.66396 12.977 8.70508C13.0378 8.74467 13.1204 8.77564 13.2249 8.79822C13.3293 8.81929 13.4562 8.82995 13.6056 8.82995C13.7232 8.82995 13.8243 8.82005 13.9089 8.80025C13.9949 8.77893 14.0609 8.74924 14.1072 8.71091C14.1535 8.67259 14.1766 8.62843 14.1766 8.57817V8.57614C14.1766 8.51269 14.1482 8.4665 14.0914 8.43731C14.0345 8.40812 13.9354 8.38579 13.7939 8.3698L13.0642 8.31624C12.6915 8.28071 12.4158 8.19264 12.2374 8.05254C12.0602 7.91117 11.9717 7.71548 11.9717 7.46574V7.46167C11.9717 7.26091 12.0325 7.08883 12.1541 6.94619C12.277 6.80203 12.4522 6.69162 12.6795 6.61497C12.9069 6.53832 13.1779 6.5 13.4925 6.5C13.8085 6.5 14.0788 6.53629 14.3035 6.60914C14.5296 6.68046 14.708 6.7835 14.8389 6.91853C14.9698 7.0533 15.0511 7.21523 15.0828 7.40431L15.0887 7.43604H14.1409L14.137 7.42005C14.1224 7.36447 14.0887 7.31904 14.0358 7.28325C13.9843 7.24619 13.9142 7.21853 13.8257 7.2C13.7371 7.1802 13.6307 7.1703 13.5064 7.1703C13.3835 7.1703 13.2817 7.17944 13.201 7.19797C13.1204 7.21523 13.0596 7.24086 13.0186 7.27538C12.9776 7.30838 12.9572 7.34797 12.9572 7.39442V7.39619C12.9572 7.45964 12.9876 7.50736 13.0484 7.53909C13.1105 7.57081 13.213 7.59391 13.3557 7.60838L14.0993 7.66396C14.3386 7.68782 14.5368 7.73325 14.6941 7.80076C14.8515 7.86701 14.9685 7.95812 15.0451 8.07437C15.1231 8.18934 15.1621 8.33097 15.1621 8.49873V8.50076C15.1621 8.70685 15.1 8.88553 14.9757 9.03604C14.8515 9.18553 14.6723 9.30051 14.4384 9.38122C14.2044 9.46041 13.9222 9.5 13.5917 9.5Z" fill="black"/>
</g>
<defs>
<clipPath id="clip0_157_6147">
<rect width="16" height="16" fill="white"/>
</clipPath>
</defs>
</svg>
