<svg width="16" height="16" viewBox="0 0 16 16" fill="none" xmlns="http://www.w3.org/2000/svg">
<g clip-path="url(#clip0_157_6140)">
<rect width="16" height="16" rx="3" fill="#FF61F6"/>
<path d="M2.72645 9.5C2.39333 9.5 2.10647 9.46447 1.86589 9.39315C1.62528 9.32158 1.43561 9.21726 1.2968 9.0797C1.158 8.94086 1.07406 8.77234 1.04497 8.57411L1.04102 8.54442H1.99873L2.00269 8.55812C2.01591 8.61497 2.05226 8.66396 2.11175 8.70508C2.17256 8.74467 2.25518 8.77564 2.35962 8.79822C2.46404 8.81929 2.59094 8.82995 2.74033 8.82995C2.85797 8.82995 2.95911 8.82005 3.04371 8.80025C3.12962 8.77893 3.19571 8.74924 3.24198 8.71091C3.28825 8.67259 3.3114 8.62843 3.3114 8.57817V8.57614C3.3114 8.51269 3.28297 8.4665 3.22612 8.43731C3.16929 8.40812 3.07015 8.38579 2.92871 8.3698L2.19901 8.31624C1.82622 8.28071 1.55061 8.19264 1.37216 8.05254C1.195 7.91117 1.10645 7.71548 1.10645 7.46574V7.46167C1.10645 7.26091 1.16726 7.08883 1.28886 6.94619C1.4118 6.80203 1.58695 6.69162 1.81432 6.61497C2.0417 6.53832 2.31269 6.5 2.62731 6.5C2.94325 6.5 3.21358 6.53629 3.4383 6.60914C3.66434 6.68046 3.84279 6.7835 3.97368 6.91853C4.10455 7.0533 4.18584 7.21523 4.21757 7.40431L4.22351 7.43604H3.27571L3.27173 7.42005C3.25718 7.36447 3.22348 7.31904 3.17061 7.28325C3.11906 7.24619 3.04899 7.21853 2.96043 7.2C2.87185 7.1802 2.76543 7.1703 2.64119 7.1703C2.51825 7.1703 2.41645 7.17944 2.33581 7.19797C2.25518 7.21523 2.19437 7.24086 2.1534 7.27538C2.11241 7.30838 2.09193 7.34797 2.09193 7.39442V7.39619C2.09193 7.45964 2.12234 7.50736 2.18315 7.53909C2.24528 7.57081 2.34772 7.59391 2.49048 7.60838L3.23406 7.66396C3.47333 7.68782 3.6716 7.73325 3.82891 7.80076C3.98622 7.86701 4.10322 7.95812 4.17987 8.07437C4.25787 8.18934 4.29688 8.33097 4.29688 8.49873V8.50076C4.29688 8.70685 4.23475 8.88553 4.11048 9.03604C3.98622 9.18553 3.80711 9.30051 3.57312 9.38122C3.33916 9.46041 3.05693 9.5 2.72645 9.5Z" fill="black"/>
<path d="M6.29864 9.5C5.92685 9.5 5.6061 9.43905 5.3364 9.3174C5.06771 9.19423 4.86074 9.02103 4.71522 8.79755C4.5697 8.57407 4.49707 8.30817 4.49707 7.99987V7.99606C4.49707 7.68903 4.5697 7.4239 4.71522 7.20041C4.86074 6.97693 5.06771 6.80424 5.3364 6.68259C5.6061 6.56095 5.92685 6.5 6.29864 6.5C6.61863 6.5 6.90509 6.55104 7.15753 6.65288C7.41149 6.75345 7.61592 6.89617 7.77084 7.08131C7.9255 7.26517 8.01667 7.48205 8.0446 7.7322L8.04841 7.76776H7.07042L7.06636 7.74795C7.04122 7.6423 6.99373 7.55214 6.92363 7.47824C6.85481 7.40409 6.76745 7.3472 6.66155 7.30758C6.5559 7.26797 6.4368 7.2479 6.30449 7.2479C6.13916 7.2479 5.99694 7.27838 5.87784 7.33933C5.76026 7.40002 5.66959 7.48688 5.6061 7.59913C5.54261 7.71036 5.51087 7.84267 5.51087 7.99606V7.99987C5.51087 8.15351 5.54261 8.28633 5.6061 8.39884C5.66959 8.51109 5.76076 8.59794 5.87987 8.65864C5.99897 8.71959 6.14119 8.74981 6.30652 8.74981C6.43756 8.74981 6.55514 8.73076 6.65977 8.69241C6.76415 8.6528 6.85151 8.59591 6.9216 8.52175C6.9917 8.44633 7.03995 8.35566 7.06636 8.25002L7.07042 8.22818H8.04841L8.04638 8.25992C8.01743 8.51261 7.9255 8.73152 7.77084 8.91666C7.61592 9.10179 7.41225 9.24528 7.15956 9.34712C6.9084 9.44895 6.62142 9.5 6.29864 9.5Z" fill="black"/>
<path d="M9.93348 9.5C9.60036 9.5 9.3135 9.46447 9.07292 9.39315C8.83231 9.32158 8.64264 9.21726 8.50383 9.0797C8.36503 8.94086 8.28109 8.77234 8.25201 8.57411L8.24805 8.54442H9.20576L9.20972 8.55812C9.22295 8.61497 9.25929 8.66396 9.31878 8.70508C9.3796 8.74467 9.46221 8.77564 9.56665 8.79822C9.67107 8.81929 9.79797 8.82995 9.94736 8.82995C10.065 8.82995 10.1661 8.82005 10.2507 8.80025C10.3367 8.77893 10.4027 8.74924 10.449 8.71091C10.4953 8.67259 10.5184 8.62843 10.5184 8.57817V8.57614C10.5184 8.51269 10.49 8.4665 10.4331 8.43731C10.3763 8.40812 10.2772 8.38579 10.1357 8.3698L9.40604 8.31624C9.03325 8.28071 8.75764 8.19264 8.57919 8.05254C8.40203 7.91117 8.31348 7.71548 8.31348 7.46574V7.46167C8.31348 7.26091 8.37429 7.08883 8.49589 6.94619C8.61883 6.80203 8.79399 6.69162 9.02135 6.61497C9.24873 6.53832 9.51972 6.5 9.83434 6.5C10.1503 6.5 10.4206 6.53629 10.6453 6.60914C10.8714 6.68046 11.0498 6.7835 11.1807 6.91853C11.3116 7.0533 11.3929 7.21523 11.4246 7.40431L11.4305 7.43604H10.4827L10.4788 7.42005C10.4642 7.36447 10.4305 7.31904 10.3776 7.28325C10.3261 7.24619 10.256 7.21853 10.1675 7.2C10.0789 7.1802 9.97246 7.1703 9.84823 7.1703C9.72528 7.1703 9.62348 7.17944 9.54284 7.19797C9.46221 7.21523 9.4014 7.24086 9.36043 7.27538C9.31944 7.30838 9.29896 7.34797 9.29896 7.39442V7.39619C9.29896 7.45964 9.32937 7.50736 9.39018 7.53909C9.45231 7.57081 9.55475 7.59391 9.69751 7.60838L10.4411 7.66396C10.6804 7.68782 10.8786 7.73325 11.0359 7.80076C11.1933 7.86701 11.3103 7.95812 11.3869 8.07437C11.4649 8.18934 11.5039 8.33097 11.5039 8.49873V8.50076C11.5039 8.70685 11.4418 8.88553 11.3175 9.03604C11.1933 9.18553 11.0141 9.30051 10.7802 9.38122C10.5462 9.46041 10.264 9.5 9.93348 9.5Z" fill="black"/>
<path d="M13.3895 9.5C13.0564 9.5 12.7696 9.46447 12.529 9.39315C12.2884 9.32158 12.0987 9.21726 11.9599 9.0797C11.8211 8.94086 11.7371 8.77234 11.7081 8.57411L11.7041 8.54442H12.6618L12.6658 8.55812C12.679 8.61497 12.7153 8.66396 12.7748 8.70508C12.8357 8.74467 12.9183 8.77564 13.0227 8.79822C13.1271 8.81929 13.254 8.82995 13.4034 8.82995C13.5211 8.82995 13.6222 8.82005 13.7068 8.80025C13.7927 8.77893 13.8588 8.74924 13.9051 8.71091C13.9513 8.67259 13.9745 8.62843 13.9745 8.57817V8.57614C13.9745 8.51269 13.9461 8.4665 13.8892 8.43731C13.8324 8.40812 13.7332 8.38579 13.5918 8.3698L12.8621 8.31624C12.4893 8.28071 12.2137 8.19264 12.0352 8.05254C11.8581 7.91117 11.7695 7.71548 11.7695 7.46574V7.46167C11.7695 7.26091 11.8303 7.08883 11.9519 6.94619C12.0749 6.80203 12.25 6.69162 12.4774 6.61497C12.7048 6.53832 12.9758 6.5 13.2904 6.5C13.6063 6.5 13.8767 6.53629 14.1014 6.60914C14.3274 6.68046 14.5059 6.7835 14.6368 6.91853C14.7676 7.0533 14.8489 7.21523 14.8807 7.40431L14.8866 7.43604H13.9388L13.9348 7.42005C13.9203 7.36447 13.8866 7.31904 13.8337 7.28325C13.7821 7.24619 13.7121 7.21853 13.6235 7.2C13.5349 7.1802 13.4285 7.1703 13.3043 7.1703C13.1813 7.1703 13.0795 7.17944 12.9989 7.19797C12.9183 7.21523 12.8575 7.24086 12.8165 7.27538C12.7755 7.30838 12.755 7.34797 12.755 7.39442V7.39619C12.755 7.45964 12.7854 7.50736 12.8462 7.53909C12.9084 7.57081 13.0108 7.59391 13.1536 7.60838L13.8971 7.66396C14.1364 7.68782 14.3347 7.73325 14.492 7.80076C14.6493 7.86701 14.7663 7.95812 14.843 8.07437C14.921 8.18934 14.96 8.33097 14.96 8.49873V8.50076C14.96 8.70685 14.8978 8.88553 14.7736 9.03604C14.6493 9.18553 14.4702 9.30051 14.2362 9.38122C14.0022 9.46041 13.72 9.5 13.3895 9.5Z" fill="black"/>
</g>
<defs>
<clipPath id="clip0_157_6140">
<rect width="16" height="16" fill="white"/>
</clipPath>
</defs>
</svg>
