<svg width="16" height="16" viewBox="0 0 16 16" fill="none" xmlns="http://www.w3.org/2000/svg">
<g clip-path="url(#clip0_157_6261)">
<rect width="16" height="16" rx="3" fill="#33FF66"/>
<path fill-rule="evenodd" clip-rule="evenodd" d="M5.59199 2.57601L5.77799 7.529C5.78085 7.60467 5.81205 7.67619 5.86539 7.72993C5.91874 7.78367 5.99034 7.81539 6.06599 7.8188L10.0926 7.9997C10.1333 8.00152 10.1739 7.99508 10.2121 7.98077C10.2502 7.96646 10.2851 7.94457 10.3145 7.91643C10.344 7.88828 10.3675 7.85447 10.3835 7.81701C10.3995 7.77956 10.4078 7.73924 10.4079 7.6985V2.30181C10.4079 2.26057 10.3995 2.21977 10.3831 2.18191C10.3668 2.14406 10.3428 2.10996 10.3128 2.08173C10.2827 2.0535 10.2472 2.03174 10.2084 2.01778C10.1696 2.00383 10.1283 1.99799 10.0872 2.00061L9.7555 2.02135L9.7798 2.71369C9.7801 2.72228 9.77795 2.73078 9.77358 2.73818C9.76921 2.74558 9.76281 2.75158 9.75515 2.75546C9.74748 2.75934 9.73886 2.76094 9.73031 2.76008C9.72176 2.75922 9.71363 2.75593 9.7069 2.75059L9.4837 2.57479L9.2197 2.77519C9.21289 2.78031 9.20477 2.78339 9.19628 2.78408C9.18779 2.78476 9.17928 2.78302 9.17174 2.77906C9.1642 2.77511 9.15794 2.76909 9.15368 2.76171C9.14943 2.75434 9.14735 2.7459 9.1477 2.73739L9.17588 2.0576L5.87519 2.26401C5.79662 2.26881 5.72303 2.30412 5.67013 2.36241C5.61722 2.42069 5.58918 2.49734 5.59199 2.57601ZM8.4076 4.31959C8.4076 4.43689 9.1984 4.38079 9.3043 4.29829C9.3043 3.49909 8.8756 3.07909 8.0902 3.07909C7.3051 3.07909 6.865 3.50569 6.865 4.14529C6.865 4.78639 7.3624 5.06569 7.7851 5.30299C8.0974 5.47819 8.3686 5.63059 8.3686 5.88889C8.3686 6.05929 8.2852 6.16069 8.1013 6.16069C7.8619 6.16069 7.7671 6.03829 7.7785 5.62249C7.7785 5.53249 6.865 5.50429 6.8371 5.62249C6.7663 6.63018 7.3942 6.92088 8.1127 6.92088C8.8087 6.92088 9.3547 6.55008 9.3547 5.87809C9.3547 5.17735 8.82889 4.89864 8.39481 4.66855L8.3947 4.66849C8.089 4.50649 7.8286 4.36849 7.8286 4.12399C7.8286 3.88399 8.0068 3.85219 8.1124 3.85219C8.224 3.85219 8.4244 3.87169 8.4076 4.31959Z" fill="black"/>
<path d="M5.06055 9L7.99966 14L10.9387 9H9.76363L8.00092 12.0007L6.22309 9H5.06181H5.06055Z" fill="black"/>
<path d="M6.22168 9L8.00706 12.0398L9.76344 9H8.68016L8.00706 10.1688L7.31882 9H6.22168Z" fill="black"/>
</g>
<defs>
<clipPath id="clip0_157_6261">
<rect width="16" height="16" fill="white"/>
</clipPath>
</defs>
</svg>
