<svg width="16" height="16" viewBox="0 0 16 16" fill="none" xmlns="http://www.w3.org/2000/svg">
<g clip-path="url(#clip0_157_6237)">
<rect width="16" height="16" rx="3" fill="#31A8FF"/>
<path fill-rule="evenodd" clip-rule="evenodd" d="M5.59199 3.07601L5.77799 8.029C5.78085 8.10467 5.81205 8.17619 5.86539 8.22993C5.91874 8.28367 5.99034 8.31539 6.06599 8.3188L10.0926 8.4997C10.1333 8.50152 10.1739 8.49508 10.2121 8.48077C10.2502 8.46646 10.2851 8.44457 10.3145 8.41643C10.344 8.38828 10.3675 8.35447 10.3835 8.31701C10.3995 8.27956 10.4078 8.23924 10.4079 8.1985V2.80181C10.4079 2.76057 10.3995 2.71977 10.3831 2.68191C10.3668 2.64406 10.3428 2.60996 10.3128 2.58173C10.2827 2.5535 10.2472 2.53174 10.2084 2.51778C10.1696 2.50383 10.1283 2.49799 10.0872 2.50061L9.7555 2.52135L9.7798 3.21369C9.7801 3.22228 9.77795 3.23078 9.77358 3.23818C9.76921 3.24558 9.76281 3.25158 9.75515 3.25546C9.74748 3.25934 9.73886 3.26094 9.73031 3.26008C9.72176 3.25922 9.71363 3.25593 9.7069 3.25059L9.4837 3.07479L9.2197 3.27519C9.21289 3.28031 9.20477 3.28339 9.19628 3.28408C9.18779 3.28476 9.17928 3.28302 9.17174 3.27906C9.1642 3.27511 9.15794 3.26909 9.15368 3.26171C9.14943 3.25434 9.14735 3.2459 9.1477 3.23739L9.17588 2.5576L5.87519 2.76401C5.79662 2.76881 5.72303 2.80412 5.67013 2.86241C5.61722 2.92069 5.58918 2.99734 5.59199 3.07601ZM8.4076 4.81959C8.4076 4.93689 9.1984 4.88079 9.3043 4.79829C9.3043 3.99909 8.8756 3.57909 8.0902 3.57909C7.3051 3.57909 6.865 4.00569 6.865 4.64529C6.865 5.28639 7.3624 5.56569 7.7851 5.80299C8.0974 5.97819 8.3686 6.13059 8.3686 6.38889C8.3686 6.55929 8.2852 6.66069 8.1013 6.66069C7.8619 6.66069 7.7671 6.53829 7.7785 6.12249C7.7785 6.03249 6.865 6.00429 6.8371 6.12249C6.7663 7.13018 7.3942 7.42088 8.1127 7.42088C8.8087 7.42088 9.3547 7.05008 9.3547 6.37809C9.3547 5.67735 8.82889 5.39864 8.39481 5.16855L8.3947 5.16849C8.089 5.00649 7.8286 4.86849 7.8286 4.62399C7.8286 4.38399 8.0068 4.35219 8.1124 4.35219C8.224 4.35219 8.4244 4.37169 8.4076 4.81959Z" fill="black"/>
<path d="M4.88652 13.5V10.5284H3.38965V9.5H7.76941V10.5284H6.27531V13.5H4.88652Z" fill="black"/>
<path d="M10.5168 13.5C10.0726 13.5 9.69014 13.4526 9.36936 13.3575C9.04855 13.2621 8.79566 13.123 8.61058 12.9396C8.4255 12.7545 8.31359 12.5298 8.27481 12.2655L8.26953 12.2259H9.54649L9.55176 12.2442C9.5694 12.32 9.61786 12.3853 9.69718 12.4401C9.77826 12.4929 9.88842 12.5342 10.0277 12.5643C10.1669 12.5924 10.3361 12.6066 10.5353 12.6066C10.6921 12.6066 10.827 12.5934 10.9398 12.567C11.0543 12.5386 11.1425 12.499 11.2042 12.4479C11.2658 12.3968 11.2967 12.3379 11.2967 12.2709V12.2682C11.2967 12.1836 11.2588 12.122 11.183 12.0831C11.1072 12.0442 10.975 12.0144 10.7865 11.9931L9.81353 11.9217C9.31647 11.8743 8.94899 11.7569 8.71105 11.5701C8.47484 11.3816 8.35677 11.1206 8.35677 10.7876V10.7822C8.35677 10.5146 8.43786 10.2851 8.59999 10.0949C8.76391 9.90271 8.99745 9.7555 9.3006 9.6533C9.60378 9.5511 9.9651 9.5 10.3846 9.5C10.8058 9.5 11.1663 9.54839 11.4659 9.64552C11.7673 9.74061 12.0052 9.878 12.1798 10.058C12.3542 10.2377 12.4626 10.4536 12.5049 10.7058L12.5129 10.7481H11.2491L11.2438 10.7267C11.2244 10.6526 11.1795 10.592 11.109 10.5443C11.0403 10.4949 10.9468 10.458 10.8288 10.4333C10.7106 10.4069 10.5688 10.3937 10.4031 10.3937C10.2392 10.3937 10.1034 10.4059 9.99593 10.4306C9.88841 10.4536 9.80733 10.4878 9.75271 10.5338C9.69806 10.5778 9.67075 10.6306 9.67075 10.6926V10.6949C9.67075 10.7795 9.71129 10.8431 9.79237 10.8854C9.87522 10.9277 10.0118 10.9585 10.2022 10.9778L11.1936 11.0519C11.5126 11.0838 11.777 11.1443 11.9867 11.2343C12.1965 11.3227 12.3525 11.4442 12.4547 11.5992C12.5587 11.7525 12.6107 11.9413 12.6107 12.165V12.1677C12.6107 12.4425 12.5278 12.6807 12.3622 12.8814C12.1965 13.0807 11.9577 13.234 11.6457 13.3416C11.3337 13.4472 10.9574 13.5 10.5168 13.5Z" fill="black"/>
</g>
<defs>
<clipPath id="clip0_157_6237">
<rect width="16" height="16" fill="white"/>
</clipPath>
</defs>
</svg>
