<svg width="16" height="16" viewBox="0 0 16 16" fill="none" xmlns="http://www.w3.org/2000/svg">
<g clip-path="url(#clip0_157_6253)">
<rect width="16" height="16" rx="3" fill="#FF3E00"/>
<path fill-rule="evenodd" clip-rule="evenodd" d="M5.59199 2.57601L5.77799 7.529C5.78085 7.60467 5.81205 7.67619 5.86539 7.72993C5.91874 7.78367 5.99034 7.81539 6.06599 7.8188L10.0926 7.9997C10.1333 8.00152 10.1739 7.99508 10.2121 7.98077C10.2502 7.96646 10.2851 7.94457 10.3145 7.91643C10.344 7.88828 10.3675 7.85447 10.3835 7.81701C10.3995 7.77956 10.4078 7.73924 10.4079 7.6985V2.30181C10.4079 2.26057 10.3995 2.21977 10.3831 2.18191C10.3668 2.14406 10.3428 2.10996 10.3128 2.08173C10.2827 2.0535 10.2472 2.03174 10.2084 2.01778C10.1696 2.00383 10.1283 1.99799 10.0872 2.00061L9.7555 2.02135L9.7798 2.71369C9.7801 2.72228 9.77795 2.73078 9.77358 2.73818C9.76921 2.74558 9.76281 2.75158 9.75515 2.75546C9.74748 2.75934 9.73886 2.76094 9.73031 2.76008C9.72176 2.75922 9.71363 2.75593 9.7069 2.75059L9.4837 2.57479L9.2197 2.77519C9.21289 2.78031 9.20477 2.78339 9.19628 2.78408C9.18779 2.78476 9.17928 2.78302 9.17174 2.77906C9.1642 2.77511 9.15794 2.76909 9.15368 2.76171C9.14943 2.75434 9.14735 2.7459 9.1477 2.73739L9.17588 2.0576L5.87519 2.26401C5.79662 2.26881 5.72303 2.30412 5.67013 2.36241C5.61722 2.42069 5.58918 2.49734 5.59199 2.57601ZM8.4076 4.31959C8.4076 4.43689 9.1984 4.38079 9.3043 4.29829C9.3043 3.49909 8.8756 3.07909 8.0902 3.07909C7.3051 3.07909 6.865 3.50569 6.865 4.14529C6.865 4.78639 7.3624 5.06569 7.7851 5.30299C8.0974 5.47819 8.3686 5.63059 8.3686 5.88889C8.3686 6.05929 8.2852 6.16069 8.1013 6.16069C7.8619 6.16069 7.7671 6.03829 7.7785 5.62249C7.7785 5.53249 6.865 5.50429 6.8371 5.62249C6.7663 6.63018 7.3942 6.92088 8.1127 6.92088C8.8087 6.92088 9.3547 6.55008 9.3547 5.87809C9.3547 5.17735 8.82889 4.89864 8.39481 4.66855L8.3947 4.66849C8.089 4.50649 7.8286 4.36849 7.8286 4.12399C7.8286 3.88399 8.0068 3.85219 8.1124 3.85219C8.224 3.85219 8.4244 3.87169 8.4076 4.31959Z" fill="black"/>
<g clip-path="url(#clip1_157_6253)">
<path d="M9.81519 9.66156C9.3509 8.99705 8.43389 8.80008 7.7709 9.22249L6.60675 9.96464C6.4494 10.0636 6.31443 10.1943 6.21047 10.3483C6.10651 10.5024 6.03584 10.6765 6.003 10.8594C5.94747 11.1675 5.9963 11.4854 6.14175 11.7626C6.04206 11.9138 5.97407 12.0836 5.94188 12.2618C5.90872 12.4484 5.91315 12.6398 5.95492 12.8247C5.99668 13.0095 6.07494 13.1842 6.1851 13.3384C6.64938 14.003 7.56644 14.2 8.22934 13.7775L9.39376 13.0354C9.55107 12.9364 9.686 12.8057 9.78991 12.6516C9.89383 12.4976 9.96444 12.3235 9.99724 12.1406C10.0529 11.8325 10.0042 11.5147 9.85885 11.2374C9.95846 11.0862 10.0264 10.9163 10.0586 10.7382C10.0918 10.5516 10.0874 10.3602 10.0456 10.1753C10.0039 9.99045 9.92559 9.81577 9.81541 9.66156" fill="black"/>
<path d="M7.65706 13.401C7.47381 13.4486 7.28037 13.4389 7.10284 13.3731C6.92531 13.3073 6.77225 13.1886 6.66433 13.033C6.5981 12.9403 6.55104 12.8352 6.52593 12.7241C6.50082 12.6129 6.49815 12.4979 6.51808 12.3857C6.52483 12.3488 6.53412 12.3125 6.54589 12.277L6.56781 12.21L6.6275 12.2538C6.76522 12.3551 6.91922 12.4321 7.08286 12.4815L7.12612 12.4946L7.12214 12.5378C7.11689 12.5992 7.13354 12.6605 7.16915 12.7108C7.20165 12.7577 7.24776 12.7935 7.30125 12.8133C7.35475 12.8332 7.41304 12.8361 7.46826 12.8217C7.49352 12.815 7.51761 12.8045 7.53969 12.7905L8.70406 12.0483C8.73256 12.0303 8.75701 12.0067 8.77585 11.9787C8.79469 11.9508 8.8075 11.9193 8.81348 11.8862C8.81946 11.8523 8.81863 11.8177 8.81106 11.7842C8.80349 11.7507 8.78932 11.719 8.76938 11.691C8.73688 11.6441 8.69077 11.6084 8.63728 11.5885C8.58379 11.5686 8.5255 11.5657 8.47027 11.58C8.44501 11.5867 8.42092 11.5973 8.39884 11.6113L7.95451 11.8945C7.88139 11.941 7.8016 11.976 7.7179 11.9984C7.53466 12.046 7.34121 12.0363 7.16368 11.9704C6.98616 11.9046 6.8331 11.7859 6.72518 11.6304C6.65893 11.5376 6.61186 11.4326 6.58674 11.3215C6.56161 11.2103 6.55895 11.0952 6.57889 10.983C6.59867 10.873 6.6412 10.7684 6.70375 10.6757C6.7663 10.5831 6.8475 10.5046 6.94214 10.4451L8.10665 9.703C8.17976 9.65648 8.25955 9.62141 8.34326 9.59903C8.5265 9.55139 8.71995 9.56114 8.89748 9.62695C9.075 9.69275 9.22806 9.81145 9.33598 9.96702C9.40223 10.0597 9.44929 10.1648 9.47441 10.2759C9.49953 10.3871 9.50221 10.5021 9.48228 10.6143C9.47547 10.6512 9.46617 10.6875 9.45442 10.723L9.4325 10.79L9.37286 10.7463C9.23515 10.645 9.08115 10.568 8.9175 10.5186L8.8742 10.5055L8.87822 10.4623C8.88346 10.4008 8.86682 10.3395 8.83125 10.2892C8.79875 10.2423 8.75264 10.2065 8.69915 10.1866C8.64566 10.1668 8.58736 10.1639 8.53214 10.1782C8.50688 10.1849 8.4828 10.1955 8.46072 10.2095L7.29603 10.9517C7.26754 10.9697 7.2431 10.9933 7.22427 11.0212C7.20545 11.0491 7.19265 11.0807 7.1867 11.1138C7.1807 11.1476 7.1815 11.1823 7.18906 11.2158C7.19661 11.2493 7.21078 11.281 7.23072 11.309C7.26322 11.3559 7.30933 11.3917 7.36282 11.4115C7.41631 11.4314 7.4746 11.4343 7.52982 11.42C7.55508 11.4133 7.57917 11.4027 7.60125 11.3888L8.04554 11.1056C8.11863 11.0591 8.19843 11.024 8.28214 11.0017C8.46538 10.9541 8.65882 10.9638 8.83634 11.0296C9.01386 11.0954 9.16691 11.2141 9.27482 11.3697C9.34108 11.4624 9.38815 11.5674 9.41327 11.6786C9.43839 11.7898 9.44106 11.9048 9.42112 12.017C9.40137 12.127 9.35889 12.2317 9.2964 12.3244C9.2339 12.417 9.15277 12.4956 9.05817 12.5551L7.89366 13.297C7.82056 13.3435 7.74077 13.3786 7.65706 13.401Z" fill="#FF3E00"/>
</g>
</g>
<defs>
<clipPath id="clip0_157_6253">
<rect width="16" height="16" fill="white"/>
</clipPath>
<clipPath id="clip1_157_6253">
<rect width="4.16179" height="5" fill="white" transform="translate(5.91895 9)"/>
</clipPath>
</defs>
</svg>
