<svg width="16" height="16" viewBox="0 0 16 16" fill="none" xmlns="http://www.w3.org/2000/svg">
<g clip-path="url(#clip0_157_6229)">
<rect width="16" height="16" rx="3" fill="#F0DB4F"/>
<path fill-rule="evenodd" clip-rule="evenodd" d="M5.59199 2.57601L5.77799 7.529C5.78085 7.60467 5.81205 7.67619 5.86539 7.72993C5.91874 7.78367 5.99034 7.81539 6.06599 7.8188L10.0926 7.9997C10.1333 8.00152 10.1739 7.99508 10.2121 7.98077C10.2502 7.96646 10.2851 7.94457 10.3145 7.91643C10.344 7.88828 10.3675 7.85447 10.3835 7.81701C10.3995 7.77956 10.4078 7.73924 10.4079 7.6985V2.30181C10.4079 2.26057 10.3995 2.21977 10.3831 2.18191C10.3668 2.14406 10.3428 2.10996 10.3128 2.08173C10.2827 2.0535 10.2472 2.03174 10.2084 2.01778C10.1696 2.00383 10.1283 1.99799 10.0872 2.00061L9.7555 2.02135L9.7798 2.71369C9.7801 2.72228 9.77795 2.73078 9.77358 2.73818C9.76921 2.74558 9.76281 2.75158 9.75515 2.75546C9.74748 2.75934 9.73886 2.76094 9.73031 2.76008C9.72176 2.75922 9.71363 2.75593 9.7069 2.75059L9.4837 2.57479L9.2197 2.77519C9.21289 2.78031 9.20477 2.78339 9.19628 2.78408C9.18779 2.78476 9.17928 2.78302 9.17174 2.77906C9.1642 2.77511 9.15794 2.76909 9.15368 2.76171C9.14943 2.75434 9.14735 2.7459 9.1477 2.73739L9.17588 2.0576L5.87519 2.26401C5.79662 2.26881 5.72303 2.30412 5.67013 2.36241C5.61722 2.42069 5.58918 2.49734 5.59199 2.57601ZM8.4076 4.31959C8.4076 4.43689 9.1984 4.38079 9.3043 4.29829C9.3043 3.49909 8.8756 3.07909 8.0902 3.07909C7.3051 3.07909 6.865 3.50569 6.865 4.14529C6.865 4.78639 7.3624 5.06569 7.7851 5.30299C8.0974 5.47819 8.3686 5.63059 8.3686 5.88889C8.3686 6.05929 8.2852 6.16069 8.1013 6.16069C7.8619 6.16069 7.7671 6.03829 7.7785 5.62249C7.7785 5.53249 6.865 5.50429 6.8371 5.62249C6.7663 6.63018 7.3942 6.92088 8.1127 6.92088C8.8087 6.92088 9.3547 6.55008 9.3547 5.87809C9.3547 5.17735 8.82889 4.89864 8.39481 4.66855L8.3947 4.66849C8.089 4.50649 7.8286 4.36849 7.8286 4.12399C7.8286 3.88399 8.0068 3.85219 8.1124 3.85219C8.224 3.85219 8.4244 3.87169 8.4076 4.31959Z" fill="black"/>
<path d="M8.00977 10.9629C7.71583 10.9629 7.47754 11.2012 7.47754 11.4951C7.47754 11.7891 7.71583 12.0273 8.00977 12.0273C8.30371 12.0273 8.54199 11.7891 8.54199 11.4951C8.54199 11.2012 8.30371 10.9629 8.00977 10.9629Z" fill="black"/>
<path d="M10.7779 11.4999C10.7779 11.0821 10.391 10.7156 9.77492 10.4745C9.78315 10.4202 9.7906 10.3664 9.79589 10.3137C9.85666 9.7133 9.712 9.27997 9.38877 9.0933C9.02712 8.88448 8.5163 9.03605 7.9998 9.44938C7.4833 9.03605 6.97249 8.88448 6.61084 9.0933C6.28761 9.27997 6.14295 9.7133 6.20372 10.3137C6.20901 10.3664 6.21626 10.4203 6.22469 10.4749C6.17333 10.4945 6.12296 10.5152 6.07454 10.537C5.52452 10.7843 5.22168 11.1266 5.22168 11.4999C5.22168 11.9178 5.60861 12.2843 6.22469 12.5254C6.21626 12.5797 6.20901 12.6335 6.20372 12.6862C6.14295 13.2866 6.28761 13.7199 6.61084 13.9066C6.72197 13.9696 6.84789 14.0018 6.97562 13.9999C7.2818 13.9999 7.63933 13.8387 7.9998 13.5505C8.36008 13.8387 8.71781 13.9999 9.02438 13.9999C9.1521 14.0018 9.27802 13.9696 9.38916 13.9066C9.71239 13.7199 9.85705 13.2866 9.79628 12.6862C9.79099 12.6335 9.78354 12.5797 9.77531 12.5254C10.3914 12.2846 10.7783 11.9176 10.7783 11.4999M9.02202 9.26467C9.10415 9.26269 9.18533 9.28259 9.25724 9.32232C9.48168 9.45193 9.58243 9.80349 9.53343 10.2868C9.5301 10.3198 9.52617 10.3531 9.52147 10.3866C9.2653 10.3095 9.00299 10.2544 8.73741 10.2221C8.57642 10.008 8.39739 9.80817 8.20229 9.62467C8.50866 9.38781 8.79621 9.26467 9.02183 9.26467M8.91657 12.0294C8.81743 12.2015 8.70948 12.3684 8.59314 12.5293C8.39595 12.5496 8.19784 12.5597 7.99961 12.5595C7.80144 12.5597 7.6034 12.5496 7.40627 12.5293C7.29024 12.3684 7.18262 12.2015 7.08382 12.0294C6.98469 11.8577 6.8946 11.681 6.81391 11.4999C6.8946 11.3189 6.98469 11.1422 7.08382 10.9705C7.18246 10.7991 7.28976 10.6328 7.40529 10.4723C7.60278 10.4515 7.80123 10.4412 7.9998 10.4413C8.19797 10.4412 8.39601 10.4513 8.59314 10.4715C8.70907 10.6323 8.81676 10.7988 8.91578 10.9705C9.01484 11.1422 9.10493 11.3189 9.1857 11.4999C9.10493 11.681 9.01484 11.8577 8.91578 12.0294M9.32055 11.8333C9.38277 12.003 9.43384 12.1765 9.47345 12.3529C9.30156 12.4065 9.12634 12.4487 8.94891 12.4793C9.01634 12.3776 9.08168 12.2718 9.14493 12.1619C9.20745 12.0533 9.26606 11.9437 9.32134 11.8341M7.62757 12.8123C7.74949 12.8197 7.87396 12.824 8 12.824C8.12604 12.824 8.25129 12.8197 8.37341 12.8123C8.25762 12.951 8.13289 13.082 8 13.2044C7.8674 13.082 7.74299 12.951 7.62757 12.8123ZM7.05089 12.479C6.87341 12.4485 6.69812 12.4064 6.52616 12.3529C6.56561 12.1768 6.61649 12.0035 6.67847 11.8341C6.73296 11.9437 6.79137 12.0533 6.85488 12.1619C6.91839 12.2705 6.98405 12.3776 7.05089 12.4793M6.67847 11.1656C6.61671 10.9968 6.56596 10.8242 6.52655 10.6488C6.69809 10.5952 6.87291 10.5529 7.04991 10.5219C6.98288 10.6233 6.91721 10.7284 6.8539 10.838C6.79059 10.9476 6.73276 11.0558 6.67748 11.1656M8.37223 10.1874C8.25031 10.18 8.12584 10.1756 7.99882 10.1756C7.87285 10.1756 7.74871 10.1796 7.62639 10.1874C7.74181 10.0487 7.86622 9.91767 7.99882 9.79526C8.13176 9.91764 8.2565 10.0486 8.37223 10.1874ZM9.14453 10.838C9.08102 10.7279 9.01536 10.622 8.94754 10.5203C9.12543 10.551 9.30112 10.5933 9.47345 10.647C9.43391 10.8231 9.38303 10.9964 9.32114 11.1658C9.26665 11.0562 9.20804 10.9466 9.14473 10.8382M6.46696 10.287C6.41737 9.80388 6.51871 9.45212 6.74295 9.32252C6.81489 9.28284 6.89605 9.26295 6.97817 9.26487C7.20379 9.26487 7.49134 9.38801 7.79771 9.62487C7.60248 9.80849 7.42332 10.0085 7.2622 10.2227C6.9967 10.2552 6.73441 10.31 6.47814 10.3866C6.47363 10.3531 6.46951 10.32 6.46638 10.287M6.18313 10.7784C6.21332 10.7653 6.2441 10.7522 6.27546 10.7392C6.33711 10.9994 6.42072 11.2539 6.52538 11.4999C6.42052 11.7465 6.33685 12.0015 6.27526 12.2623C5.77581 12.0574 5.4863 11.7735 5.4863 11.4999C5.4863 11.2407 5.74112 10.9778 6.18313 10.7784ZM6.74295 13.6774C6.51871 13.5478 6.41737 13.196 6.46696 12.7129C6.4701 12.6799 6.47422 12.6468 6.47873 12.6131C6.7349 12.6902 6.99721 12.7453 7.26279 12.7776C7.42383 12.9917 7.60285 13.1917 7.79791 13.3754C7.37079 13.7054 6.98052 13.8142 6.74354 13.6774M9.53323 12.7129C9.58224 13.1962 9.48148 13.5478 9.25705 13.6774C9.02026 13.8146 8.6298 13.7054 8.20288 13.3754C8.39786 13.1917 8.57682 12.9917 8.7378 12.7776C9.00338 12.7453 9.26569 12.6902 9.52186 12.6131C9.52657 12.6468 9.53049 12.6799 9.53382 12.7129M9.72552 12.2619C9.66376 12.0013 9.58002 11.7464 9.47521 11.4999C9.57998 11.2534 9.66365 10.9983 9.72533 10.7376C10.2238 10.9425 10.5141 11.2264 10.5141 11.4999C10.5141 11.7735 10.2246 12.0574 9.72513 12.2623" fill="black"/>
</g>
<defs>
<clipPath id="clip0_157_6229">
<rect width="16" height="16" fill="white"/>
</clipPath>
</defs>
</svg>
