<svg width="16" height="16" viewBox="0 0 16 16" fill="none" xmlns="http://www.w3.org/2000/svg">
<g clip-path="url(#clip0_157_6211)">
<rect width="16" height="16" rx="3" fill="#F9AC00"/>
<path fill-rule="evenodd" clip-rule="evenodd" d="M5.59199 3.07601L5.77799 8.029C5.78085 8.10467 5.81205 8.17619 5.86539 8.22993C5.91874 8.28367 5.99034 8.31539 6.06599 8.3188L10.0926 8.4997C10.1333 8.50152 10.1739 8.49508 10.2121 8.48077C10.2502 8.46646 10.2851 8.44457 10.3145 8.41643C10.344 8.38828 10.3675 8.35447 10.3835 8.31701C10.3995 8.27956 10.4078 8.23924 10.4079 8.1985V2.80181C10.4079 2.76057 10.3995 2.71977 10.3831 2.68191C10.3668 2.64406 10.3428 2.60996 10.3128 2.58173C10.2827 2.5535 10.2472 2.53174 10.2084 2.51778C10.1696 2.50383 10.1283 2.49799 10.0872 2.50061L9.7555 2.52135L9.7798 3.21369C9.7801 3.22228 9.77795 3.23078 9.77358 3.23818C9.76921 3.24558 9.76281 3.25158 9.75515 3.25546C9.74748 3.25934 9.73886 3.26094 9.73031 3.26008C9.72176 3.25922 9.71363 3.25593 9.7069 3.25059L9.4837 3.07479L9.2197 3.27519C9.21289 3.28031 9.20477 3.28339 9.19628 3.28408C9.18779 3.28476 9.17928 3.28302 9.17174 3.27906C9.1642 3.27511 9.15794 3.26909 9.15368 3.26171C9.14943 3.25434 9.14735 3.2459 9.1477 3.23739L9.17588 2.5576L5.87519 2.76401C5.79662 2.76881 5.72303 2.80412 5.67013 2.86241C5.61722 2.92069 5.58918 2.99734 5.59199 3.07601ZM8.4076 4.81959C8.4076 4.93689 9.1984 4.88079 9.3043 4.79829C9.3043 3.99909 8.8756 3.57909 8.0902 3.57909C7.3051 3.57909 6.865 4.00569 6.865 4.64529C6.865 5.28639 7.3624 5.56569 7.7851 5.80299C8.0974 5.97819 8.3686 6.13059 8.3686 6.38889C8.3686 6.55929 8.2852 6.66069 8.1013 6.66069C7.8619 6.66069 7.7671 6.53829 7.7785 6.12249C7.7785 6.03249 6.865 6.00429 6.8371 6.12249C6.7663 7.13018 7.3942 7.42088 8.1127 7.42088C8.8087 7.42088 9.3547 7.05008 9.3547 6.37809C9.3547 5.67735 8.82889 5.39864 8.39481 5.16855L8.3947 5.16849C8.089 5.00649 7.8286 4.86849 7.8286 4.62399C7.8286 4.38399 8.0068 4.35219 8.1124 4.35219C8.224 4.35219 8.4244 4.37169 8.4076 4.81959Z" fill="black"/>
<path d="M8.48827 9.60875L8.48823 12.2079L9.44298 11.2534L9.92489 11.7353L8.1601 13.5L6.37305 11.713L6.85497 11.231L7.80668 12.1827L7.80672 9.60875H8.48827Z" fill="black"/>
<path d="M2.34854 13.3677V11.3548L3.58099 12.5873L4.82279 11.3456V13.3474H5.50434V9.70027L3.58103 11.6234L1.66699 9.70928V13.3677H2.34854Z" fill="black"/>
<path d="M13.8506 9.5L14.3325 9.98194L12.8889 11.4254L14.2881 12.8246L13.8062 13.3065L12.407 11.9074L11.0078 13.3065L10.5259 12.8246L11.9249 11.4254L10.4814 9.98194L10.9634 9.5L12.407 10.9434L13.8506 9.5Z" fill="black"/>
</g>
<defs>
<clipPath id="clip0_157_6211">
<rect width="16" height="16" fill="white"/>
</clipPath>
</defs>
</svg>
