<svg width="16" height="16" viewBox="0 0 16 16" fill="none" xmlns="http://www.w3.org/2000/svg">
<g clip-path="url(#clip0_157_6245)">
<rect width="16" height="16" rx="3" fill="#F0DB4F"/>
<path fill-rule="evenodd" clip-rule="evenodd" d="M5.59199 3.07601L5.77799 8.029C5.78085 8.10467 5.81205 8.17619 5.86539 8.22993C5.91874 8.28367 5.99034 8.31539 6.06599 8.3188L10.0926 8.4997C10.1333 8.50152 10.1739 8.49508 10.2121 8.48077C10.2502 8.46646 10.2851 8.44457 10.3145 8.41643C10.344 8.38828 10.3675 8.35447 10.3835 8.31701C10.3995 8.27956 10.4078 8.23924 10.4079 8.1985V2.80181C10.4079 2.76057 10.3995 2.71977 10.3831 2.68191C10.3668 2.64406 10.3428 2.60996 10.3128 2.58173C10.2827 2.5535 10.2472 2.53174 10.2084 2.51778C10.1696 2.50383 10.1283 2.49799 10.0872 2.50061L9.7555 2.52135L9.7798 3.21369C9.7801 3.22228 9.77795 3.23078 9.77358 3.23818C9.76921 3.24558 9.76281 3.25158 9.75515 3.25546C9.74748 3.25934 9.73886 3.26094 9.73031 3.26008C9.72176 3.25922 9.71363 3.25593 9.7069 3.25059L9.4837 3.07479L9.2197 3.27519C9.21289 3.28031 9.20477 3.28339 9.19628 3.28408C9.18779 3.28476 9.17928 3.28302 9.17174 3.27906C9.1642 3.27511 9.15794 3.26909 9.15368 3.26171C9.14943 3.25434 9.14735 3.2459 9.1477 3.23739L9.17588 2.5576L5.87519 2.76401C5.79662 2.76881 5.72303 2.80412 5.67013 2.86241C5.61722 2.92069 5.58918 2.99734 5.59199 3.07601ZM8.4076 4.81959C8.4076 4.93689 9.1984 4.88079 9.3043 4.79829C9.3043 3.99909 8.8756 3.57909 8.0902 3.57909C7.3051 3.57909 6.865 4.00569 6.865 4.64529C6.865 5.28639 7.3624 5.56569 7.7851 5.80299C8.0974 5.97819 8.3686 6.13059 8.3686 6.38889C8.3686 6.55929 8.2852 6.66069 8.1013 6.66069C7.8619 6.66069 7.7671 6.53829 7.7785 6.12249C7.7785 6.03249 6.865 6.00429 6.8371 6.12249C6.7663 7.13018 7.3942 7.42088 8.1127 7.42088C8.8087 7.42088 9.3547 7.05008 9.3547 6.37809C9.3547 5.67735 8.82889 5.39864 8.39481 5.16855L8.3947 5.16849C8.089 5.00649 7.8286 4.86849 7.8286 4.62399C7.8286 4.38399 8.0068 4.35219 8.1124 4.35219C8.224 4.35219 8.4244 4.37169 8.4076 4.81959Z" fill="black"/>
<path d="M5.59019 13.5C5.29225 13.5 5.02064 13.464 4.77536 13.3919C4.53008 13.3178 4.31806 13.2107 4.1393 13.0697C3.96261 12.9273 3.82542 12.7531 3.72807 12.5473C3.63037 12.3419 3.58083 12.1073 3.5791 11.8437V11.8302H4.88102L4.8838 11.8409C4.88726 11.9781 4.9181 12.0945 4.9756 12.1901C5.03519 12.2857 5.11626 12.3588 5.21915 12.4094C5.32204 12.4583 5.44018 12.4825 5.5739 12.4825C5.78489 12.4825 5.94563 12.4264 6.05546 12.3148C6.16736 12.2029 6.22348 12.0439 6.22348 11.8385V9.5H7.57945V11.852C7.57945 12.1911 7.50288 12.4842 7.34941 12.7316C7.19594 12.9769 6.97144 13.1664 6.67524 13.2998C6.37938 13.4335 6.01769 13.5 5.59019 13.5Z" fill="black"/>
<path d="M10.3263 13.5C9.88218 13.5 9.49971 13.4526 9.17893 13.3575C8.85812 13.2621 8.60523 13.123 8.42015 12.9396C8.23507 12.7545 8.12316 12.5298 8.08438 12.2655L8.0791 12.2259H9.35606L9.36134 12.2442C9.37897 12.32 9.42743 12.3853 9.50675 12.4401C9.58783 12.4929 9.69799 12.5342 9.83724 12.5643C9.97646 12.5924 10.1457 12.6066 10.3449 12.6066C10.5017 12.6066 10.6366 12.5934 10.7494 12.567C10.8639 12.5386 10.952 12.499 11.0137 12.4479C11.0754 12.3968 11.1063 12.3379 11.1063 12.2709V12.2682C11.1063 12.1836 11.0684 12.122 10.9926 12.0831C10.9168 12.0442 10.7846 12.0144 10.596 11.9931L9.6231 11.9217C9.12604 11.8743 8.75856 11.7569 8.52062 11.5701C8.28441 11.3816 8.16634 11.1206 8.16634 10.7876V10.7822C8.16634 10.5146 8.24743 10.2851 8.40956 10.0949C8.57348 9.90271 8.80702 9.7555 9.11017 9.6533C9.41335 9.5511 9.77467 9.5 10.1942 9.5C10.6154 9.5 10.9759 9.54839 11.2755 9.64552C11.5769 9.74061 11.8148 9.878 11.9893 10.058C12.1638 10.2377 12.2722 10.4536 12.3145 10.7058L12.3224 10.7481H11.0587L11.0534 10.7267C11.034 10.6526 10.9891 10.592 10.9186 10.5443C10.8498 10.4949 10.7564 10.458 10.6383 10.4333C10.5202 10.4069 10.3783 10.3937 10.2127 10.3937C10.0487 10.3937 9.91301 10.4059 9.8055 10.4306C9.69799 10.4536 9.6169 10.4878 9.56228 10.5338C9.50763 10.5778 9.48032 10.6306 9.48032 10.6926V10.6949C9.48032 10.7795 9.52086 10.8431 9.60195 10.8854C9.68479 10.9277 9.82137 10.9585 10.0117 10.9778L11.0032 11.0519C11.3222 11.0838 11.5865 11.1443 11.7963 11.2343C12.006 11.3227 12.162 11.4442 12.2642 11.5992C12.3682 11.7525 12.4203 11.9413 12.4203 12.165V12.1677C12.4203 12.4425 12.3374 12.6807 12.1717 12.8814C12.006 13.0807 11.7672 13.234 11.4552 13.3416C11.1433 13.4472 10.767 13.5 10.3263 13.5Z" fill="black"/>
</g>
<defs>
<clipPath id="clip0_157_6245">
<rect width="16" height="16" fill="white"/>
</clipPath>
</defs>
</svg>
