<svg width="16" height="16" viewBox="0 0 16 16" fill="none" xmlns="http://www.w3.org/2000/svg">
<g clip-path="url(#clip0_157_6192)">
<rect width="16" height="16" rx="3" fill="#31A8FF"/>
<path d="M3.45429 11V6.5426H1.20898V5H7.77862V6.5426H5.53747V11H3.45429Z" fill="black"/>
<path d="M11.6502 11C10.9839 11 10.4102 10.9289 9.92904 10.7863C9.44783 10.6432 9.06849 10.4345 8.79087 10.1594C8.51326 9.88173 8.34539 9.54467 8.28721 9.14822L8.2793 9.08884H10.1947L10.2026 9.11624C10.2291 9.22995 10.3018 9.32792 10.4208 9.41015C10.5424 9.48934 10.7076 9.55127 10.9165 9.59645C11.1253 9.63858 11.3791 9.6599 11.6779 9.6599C11.9132 9.6599 12.1155 9.6401 12.2847 9.60051C12.4565 9.55787 12.5887 9.49848 12.6812 9.42183C12.7738 9.34518 12.8201 9.25685 12.8201 9.15635V9.15229C12.8201 9.02538 12.7632 8.933 12.6495 8.87462C12.5358 8.81624 12.3376 8.77157 12.0547 8.7396L10.5953 8.63249C9.8497 8.56142 9.29848 8.38528 8.94158 8.10508C8.58727 7.82234 8.41016 7.43097 8.41016 6.93147V6.92335C8.41016 6.52183 8.53178 6.17766 8.77498 5.89238C9.02087 5.60406 9.37118 5.38325 9.8259 5.22995C10.2807 5.07665 10.8226 5 11.4519 5C12.0838 5 12.6244 5.07259 13.0739 5.21827C13.526 5.36091 13.8829 5.567 14.1446 5.83705C14.4064 6.1066 14.5689 6.43046 14.6324 6.80863L14.6443 6.87208H12.7487L12.7407 6.8401C12.7116 6.72894 12.6442 6.63807 12.5385 6.5665C12.4354 6.49239 12.2952 6.43705 12.1181 6.4C11.941 6.3604 11.7281 6.34061 11.4797 6.34061C11.2338 6.34061 11.0302 6.35888 10.8689 6.39594C10.7076 6.43046 10.586 6.48173 10.5041 6.55076C10.4221 6.61675 10.3811 6.69594 10.3811 6.78883V6.79239C10.3811 6.91929 10.4419 7.01472 10.5636 7.07817C10.6878 7.14162 10.8927 7.18782 11.1782 7.21675L12.6654 7.32792C13.1439 7.37564 13.5405 7.4665 13.8551 7.60152C14.1697 7.73401 14.4037 7.91624 14.557 8.14873C14.713 8.37868 14.791 8.66193 14.791 8.99746V9.00152C14.791 9.41371 14.6668 9.77107 14.4182 10.0721C14.1697 10.3711 13.8115 10.601 13.3435 10.7624C12.8756 10.9208 12.3111 11 11.6502 11Z" fill="black"/>
</g>
<defs>
<clipPath id="clip0_157_6192">
<rect width="16" height="16" fill="white"/>
</clipPath>
</defs>
</svg>
