<svg width="16" height="16" viewBox="0 0 16 16" fill="none" xmlns="http://www.w3.org/2000/svg">
<path d="M13 14H3C1.89543 14 1 13.1046 1 12V4C1 2.89543 1.89543 2 3 2H5.67157C6.20201 2 6.71071 2.21071 7.08579 2.58579L7.91421 3.41421C8.28929 3.78929 8.79799 4 9.32843 4H13C14.1046 4 15 4.89543 15 6V12C15 13.1046 14.1046 14 13 14Z" fill="white"/>
<path d="M7.99985 11.4C8.63637 11.4 9.24682 11.1471 9.69691 10.6971C10.147 10.247 10.3999 9.63652 10.3999 9C10.3999 8.36348 10.147 7.75303 9.69691 7.30294C9.24682 6.85286 8.63637 6.6 7.99985 6.6C7.36333 6.6 6.75288 6.85286 6.3028 7.30294C5.85271 7.75303 5.59985 8.36348 5.59985 9C5.59985 9.63652 5.85271 10.247 6.3028 10.6971C6.75288 11.1471 7.36333 11.4 7.99985 11.4Z" stroke="black" stroke-width="0.6" stroke-linecap="round" stroke-linejoin="round"/>
<path d="M8.00015 9.6C8.15928 9.6 8.31189 9.53679 8.42441 9.42427C8.53693 9.31174 8.60015 9.15913 8.60015 9C8.60015 8.84087 8.53693 8.68826 8.42441 8.57574C8.31189 8.46322 8.15928 8.4 8.00015 8.4C7.84102 8.4 7.6884 8.46322 7.57588 8.57574C7.46336 8.68826 7.40015 8.84087 7.40015 9C7.40015 9.15913 7.46336 9.31174 7.57588 9.42427C7.6884 9.53679 7.84102 9.6 8.00015 9.6Z" stroke="black" stroke-width="0.6" stroke-linecap="round" stroke-linejoin="round"/>
<path d="M8 6V6.6" stroke="black" stroke-width="0.6" stroke-linecap="round" stroke-linejoin="round"/>
<path d="M8 12V11.4" stroke="black" stroke-width="0.6" stroke-linecap="round" stroke-linejoin="round"/>
<path d="M9.49995 11.598L9.19995 11.079" stroke="black" stroke-width="0.6" stroke-linecap="round" stroke-linejoin="round"/>
<path d="M7.69976 8.481L6.49976 6.402" stroke="black" stroke-width="0.6" stroke-linecap="round" stroke-linejoin="round"/>
<path d="M10.5979 10.5L10.0789 10.2" stroke="black" stroke-width="0.6" stroke-linecap="round" stroke-linejoin="round"/>
<path d="M5.4021 7.5L5.9211 7.8" stroke="black" stroke-width="0.6" stroke-linecap="round" stroke-linejoin="round"/>
<path d="M8.59985 9H10.9999" stroke="black" stroke-width="0.6" stroke-linecap="round" stroke-linejoin="round"/>
<path d="M5 9H5.6" stroke="black" stroke-width="0.6" stroke-linecap="round" stroke-linejoin="round"/>
<path d="M10.5979 7.5L10.0789 7.8" stroke="black" stroke-width="0.6" stroke-linecap="round" stroke-linejoin="round"/>
<path d="M5.4021 10.5L5.9211 10.2" stroke="black" stroke-width="0.6" stroke-linecap="round" stroke-linejoin="round"/>
<path d="M9.49995 6.402L9.19995 6.921" stroke="black" stroke-width="0.6" stroke-linecap="round" stroke-linejoin="round"/>
<path d="M7.69976 9.519L6.49976 11.598" stroke="black" stroke-width="0.6" stroke-linecap="round" stroke-linejoin="round"/>
</svg>
