<svg width="16" height="16" viewBox="0 0 16 16" fill="none" xmlns="http://www.w3.org/2000/svg">
<path d="M13 14H3C1.89543 14 1 13.1046 1 12V4C1 2.89543 1.89543 2 3 2H5.67157C6.20201 2 6.71071 2.21071 7.08579 2.58579L7.91421 3.41421C8.28929 3.78929 8.79799 4 9.32843 4H13C14.1046 4 15 4.89543 15 6V12C15 13.1046 14.1046 14 13 14Z" fill="#264DE4"/>
<path d="M5.7467 10C5.49884 10 5.28501 9.95937 5.10521 9.87827C4.92608 9.79616 4.7881 9.68069 4.69109 9.5317C4.59408 9.38271 4.54565 9.20545 4.54565 8.99991V8.99737C4.54565 8.79268 4.59408 8.61593 4.69109 8.46694C4.7881 8.31795 4.92608 8.20283 5.10521 8.12173C5.28501 8.04063 5.49884 8 5.7467 8C5.96003 8 6.151 8.03403 6.31929 8.10192C6.4886 8.16896 6.62489 8.26412 6.72816 8.38754C6.83127 8.51012 6.89205 8.6547 6.91068 8.82147L6.91321 8.84517H6.26122L6.25851 8.83196C6.24175 8.76153 6.21009 8.70143 6.16336 8.65216C6.11748 8.60272 6.05924 8.5648 5.98864 8.53839C5.91821 8.51198 5.83881 8.4986 5.7506 8.4986C5.64038 8.4986 5.54557 8.51892 5.46617 8.55955C5.38778 8.60002 5.32734 8.65792 5.28501 8.73275C5.24268 8.80691 5.22152 8.89511 5.22152 8.99737V8.99991C5.22152 9.10234 5.24268 9.19089 5.28501 9.26589C5.32734 9.34072 5.38812 9.39863 5.46752 9.43909C5.54692 9.47973 5.64173 9.49987 5.75195 9.49987C5.83931 9.49987 5.9177 9.48717 5.98746 9.46161C6.05704 9.4352 6.11528 9.39727 6.16201 9.34784C6.20874 9.29755 6.24091 9.23711 6.25851 9.16668L6.26122 9.15212H6.91321L6.91186 9.17328C6.89256 9.34174 6.83127 9.48768 6.72816 9.6111C6.62489 9.73453 6.48911 9.83019 6.32065 9.89808C6.15321 9.96597 5.96189 10 5.7467 10Z" fill="white"/>
<path d="M8.13681 10C7.91472 10 7.72349 9.97631 7.5631 9.92877C7.40269 9.88105 7.27625 9.81151 7.18371 9.7198C7.09117 9.62724 7.03521 9.51489 7.01582 9.38274L7.01318 9.36295H7.65166L7.6543 9.37208C7.66312 9.40998 7.68735 9.44264 7.72701 9.47005C7.76755 9.49645 7.82263 9.51709 7.89225 9.53215C7.96186 9.54619 8.04647 9.5533 8.14606 9.5533C8.22449 9.5533 8.29192 9.5467 8.34831 9.5335C8.40559 9.51929 8.44965 9.49949 8.48049 9.47394C8.51134 9.44839 8.52677 9.41895 8.52677 9.38545V9.3841C8.52677 9.34179 8.50782 9.311 8.46992 9.29154C8.43203 9.27208 8.36594 9.25719 8.27164 9.24653L7.78518 9.21083C7.53665 9.18714 7.35291 9.12843 7.23394 9.03503C7.11584 8.94078 7.0568 8.81032 7.0568 8.64382V8.64112C7.0568 8.50728 7.09735 8.39255 7.17841 8.29746C7.26037 8.20135 7.37714 8.12775 7.52872 8.07665C7.68031 8.02555 7.86097 8 8.07071 8C8.28134 8 8.46156 8.0242 8.61137 8.07276C8.76207 8.1203 8.88104 8.189 8.9683 8.27902C9.05554 8.36887 9.10973 8.47682 9.13088 8.60288L9.13484 8.62403H8.50298L8.50032 8.61337C8.49063 8.57631 8.46816 8.54602 8.43291 8.52217C8.39855 8.49746 8.35183 8.47902 8.2928 8.46667C8.23374 8.45347 8.16279 8.44687 8.07997 8.44687C7.99801 8.44687 7.93014 8.45296 7.87638 8.46531C7.82263 8.47682 7.78208 8.49391 7.75477 8.51692C7.72745 8.53892 7.71379 8.56531 7.71379 8.59628V8.59746C7.71379 8.63976 7.73406 8.67157 7.77461 8.69272C7.81603 8.71387 7.88432 8.72927 7.9795 8.73892L8.47521 8.77597C8.63472 8.79188 8.76691 8.82217 8.87178 8.86717C8.97665 8.91134 9.05466 8.97208 9.10576 9.04958C9.15775 9.12623 9.18376 9.22064 9.18376 9.33249V9.33384C9.18376 9.47124 9.14234 9.59036 9.0595 9.69069C8.97665 9.79036 8.85725 9.867 8.70126 9.92081C8.54528 9.9736 8.35713 10 8.13681 10Z" fill="white"/>
<path d="M10.4073 10C10.1852 10 9.994 9.97631 9.83361 9.92877C9.6732 9.88105 9.54675 9.81151 9.45422 9.7198C9.36168 9.62724 9.30572 9.51489 9.28633 9.38274L9.28369 9.36295H9.92217L9.92481 9.37208C9.93362 9.40998 9.95785 9.44264 9.99752 9.47005C10.0381 9.49645 10.0931 9.51709 10.1628 9.53215C10.2324 9.54619 10.317 9.5533 10.4166 9.5533C10.495 9.5533 10.5624 9.5467 10.6188 9.5335C10.6761 9.51929 10.7202 9.49949 10.751 9.47394C10.7818 9.44839 10.7973 9.41895 10.7973 9.38545V9.3841C10.7973 9.34179 10.7783 9.311 10.7404 9.29154C10.7025 9.27208 10.6365 9.25719 10.5422 9.24653L10.0557 9.21083C9.80716 9.18714 9.62342 9.12843 9.50445 9.03503C9.38635 8.94078 9.32731 8.81032 9.32731 8.64382V8.64112C9.32731 8.50728 9.36785 8.39255 9.44892 8.29746C9.53088 8.20135 9.64765 8.12775 9.79922 8.07665C9.95082 8.02555 10.1315 8 10.3412 8C10.5518 8 10.7321 8.0242 10.8819 8.07276C11.0326 8.1203 11.1515 8.189 11.2388 8.27902C11.326 8.36887 11.3802 8.47682 11.4014 8.60288L11.4054 8.62403H10.7735L10.7708 8.61337C10.7611 8.57631 10.7387 8.54602 10.7034 8.52217C10.6691 8.49746 10.6223 8.47902 10.5633 8.46667C10.5043 8.45347 10.4333 8.44687 10.3505 8.44687C10.2685 8.44687 10.2006 8.45296 10.1469 8.46531C10.0931 8.47682 10.0526 8.49391 10.0253 8.51692C9.99796 8.53892 9.9843 8.56531 9.9843 8.59628V8.59746C9.9843 8.63976 10.0046 8.67157 10.0451 8.69272C10.0865 8.71387 10.1548 8.72927 10.25 8.73892L10.7457 8.77597C10.9052 8.79188 11.0374 8.82217 11.1423 8.86717C11.2472 8.91134 11.3252 8.97208 11.3763 9.04958C11.4283 9.12623 11.4543 9.22064 11.4543 9.33249V9.33384C11.4543 9.47124 11.4128 9.59036 11.33 9.69069C11.2472 9.79036 11.1278 9.867 10.9718 9.92081C10.8158 9.9736 10.6276 10 10.4073 10Z" fill="white"/>
</svg>
