<svg width="16" height="16" viewBox="0 0 16 16" fill="none" xmlns="http://www.w3.org/2000/svg">
<path d="M13 14H3C1.89543 14 1 13.1046 1 12V4C1 2.89543 1.89543 2 3 2H5.67157C6.20201 2 6.71071 2.21071 7.08579 2.58579L7.91421 3.41421C8.28929 3.78929 8.79799 4 9.32843 4H13C14.1046 4 15 4.89543 15 6V12C15 13.1046 14.1046 14 13 14Z" fill="#0A84FF"/>
<path d="M3.82764 10V8H4.52344V9.48709H5.61981V10H3.82764Z" fill="white"/>
<path d="M5.71997 10V8H7.63128V8.48649H6.41575V8.77755H7.54535V9.20998H6.41575V9.51351H7.63128V10H5.71997Z" fill="white"/>
<path d="M8.85482 10C8.63274 10 8.44151 9.97631 8.28112 9.92877C8.12071 9.88105 7.99426 9.81151 7.90173 9.7198C7.80919 9.62724 7.75323 9.51489 7.73384 9.38274L7.7312 9.36295H8.36968L8.37232 9.37208C8.38113 9.40998 8.40536 9.44264 8.44503 9.47005C8.48557 9.49645 8.54064 9.51709 8.61027 9.53215C8.67988 9.54619 8.76448 9.5533 8.86408 9.5533C8.94251 9.5533 9.00993 9.5467 9.06633 9.5335C9.1236 9.51929 9.16767 9.49949 9.19851 9.47394C9.22936 9.44839 9.24479 9.41895 9.24479 9.38545V9.3841C9.24479 9.34179 9.22584 9.311 9.18794 9.29154C9.15005 9.27208 9.08396 9.25719 8.98966 9.24653L8.5032 9.21083C8.25467 9.18714 8.07093 9.12843 7.95196 9.03503C7.83386 8.94078 7.77482 8.81032 7.77482 8.64382V8.64112C7.77482 8.50728 7.81536 8.39255 7.89643 8.29746C7.97839 8.20135 8.09516 8.12775 8.24673 8.07665C8.39832 8.02555 8.57899 8 8.78873 8C8.99936 8 9.17958 8.0242 9.32939 8.07276C9.48009 8.1203 9.59905 8.189 9.68631 8.27902C9.77355 8.36887 9.82775 8.47682 9.8489 8.60288L9.85286 8.62403H9.221L9.21834 8.61337C9.20865 8.57631 9.18618 8.54602 9.15093 8.52217C9.11657 8.49746 9.06985 8.47902 9.01081 8.46667C8.95176 8.45347 8.88081 8.44687 8.79799 8.44687C8.71602 8.44687 8.64816 8.45296 8.5944 8.46531C8.54064 8.47682 8.5001 8.49391 8.47279 8.51692C8.44547 8.53892 8.43181 8.56531 8.43181 8.59628V8.59746C8.43181 8.63976 8.45208 8.67157 8.49262 8.69272C8.53404 8.71387 8.60234 8.72927 8.69751 8.73892L9.19323 8.77597C9.35274 8.79188 9.48492 8.82217 9.5898 8.86717C9.69467 8.91134 9.77267 8.97208 9.82377 9.04958C9.87577 9.12623 9.90178 9.22064 9.90178 9.33249V9.33384C9.90178 9.47124 9.86036 9.59036 9.77751 9.69069C9.69467 9.79036 9.57526 9.867 9.41927 9.92081C9.2633 9.9736 9.07514 10 8.85482 10Z" fill="white"/>
<path d="M11.1253 10C10.9032 10 10.712 9.97631 10.5516 9.92877C10.3912 9.88105 10.2648 9.81151 10.1722 9.7198C10.0797 9.62724 10.0237 9.51489 10.0043 9.38274L10.0017 9.36295H10.6402L10.6428 9.37208C10.6516 9.40998 10.6759 9.44264 10.7155 9.47005C10.7561 9.49645 10.8112 9.51709 10.8808 9.53215C10.9504 9.54619 11.035 9.5533 11.1346 9.5533C11.213 9.5533 11.2804 9.5467 11.3368 9.5335C11.3941 9.51929 11.4382 9.49949 11.469 9.47394C11.4999 9.44839 11.5153 9.41895 11.5153 9.38545V9.3841C11.5153 9.34179 11.4963 9.311 11.4584 9.29154C11.4206 9.27208 11.3545 9.25719 11.2602 9.24653L10.7737 9.21083C10.5252 9.18714 10.3414 9.12843 10.2225 9.03503C10.1044 8.94078 10.0453 8.81032 10.0453 8.64382V8.64112C10.0453 8.50728 10.0859 8.39255 10.1669 8.29746C10.2489 8.20135 10.3657 8.12775 10.5172 8.07665C10.6688 8.02555 10.8495 8 11.0592 8C11.2699 8 11.4501 8.0242 11.5999 8.07276C11.7506 8.1203 11.8696 8.189 11.9568 8.27902C12.0441 8.36887 12.0983 8.47682 12.1194 8.60288L12.1234 8.62403H11.4915L11.4888 8.61337C11.4792 8.57631 11.4567 8.54602 11.4214 8.52217C11.3871 8.49746 11.3404 8.47902 11.2813 8.46667C11.2223 8.45347 11.1513 8.44687 11.0685 8.44687C10.9865 8.44687 10.9187 8.45296 10.8649 8.46531C10.8112 8.47682 10.7706 8.49391 10.7433 8.51692C10.716 8.53892 10.7023 8.56531 10.7023 8.59628V8.59746C10.7023 8.63976 10.7226 8.67157 10.7631 8.69272C10.8046 8.71387 10.8728 8.72927 10.968 8.73892L11.4637 8.77597C11.6232 8.79188 11.7554 8.82217 11.8603 8.86717C11.9652 8.91134 12.0432 8.97208 12.0943 9.04958C12.1463 9.12623 12.1723 9.22064 12.1723 9.33249V9.33384C12.1723 9.47124 12.1309 9.59036 12.048 9.69069C11.9652 9.79036 11.8458 9.867 11.6898 9.92081C11.5338 9.9736 11.3457 10 11.1253 10Z" fill="white"/>
</svg>
