<svg width="16" height="16" viewBox="0 0 16 16" fill="none" xmlns="http://www.w3.org/2000/svg">
<path d="M13 14H3C1.89543 14 1 13.1046 1 12V4C1 2.89543 1.89543 2 3 2H5.67157C6.20201 2 6.71071 2.21071 7.08579 2.58579L7.91421 3.41421C8.28929 3.78929 8.79799 4 9.32843 4H13C14.1046 4 15 4.89543 15 6V12C15 13.1046 14.1046 14 13 14Z" fill="black"/>
<path d="M11 8.67224C11 8.27477 10.5022 7.89808 9.7391 7.66449C9.91521 6.88667 9.83693 6.26784 9.49205 6.06971C9.41256 6.02324 9.31961 6.00122 9.2181 6.00122V6.27395C9.27436 6.27395 9.31961 6.28496 9.35752 6.30575C9.52385 6.40114 9.59601 6.76437 9.53975 7.23155C9.52629 7.34651 9.50428 7.46759 9.47737 7.59111C9.23767 7.53241 8.97595 7.48716 8.70077 7.45781C8.53567 7.23155 8.36445 7.02609 8.19201 6.84631C8.59071 6.47574 8.96494 6.27273 9.21932 6.27273V6C8.883 6 8.44272 6.23971 7.99755 6.65552C7.55238 6.24215 7.11211 6.00489 6.77578 6.00489V6.27762C7.02894 6.27762 7.4044 6.47941 7.8031 6.84753C7.63188 7.02731 7.46066 7.23155 7.298 7.45781C7.02161 7.48716 6.75989 7.53241 6.52018 7.59234C6.49205 7.47004 6.47126 7.35141 6.45658 7.23767C6.3991 6.77049 6.47004 6.40726 6.63514 6.31064C6.67183 6.28863 6.71953 6.27884 6.77578 6.27884V6.00611C6.67305 6.00611 6.58011 6.02813 6.49939 6.0746C6.15573 6.27273 6.07868 6.89034 6.25601 7.66572C5.49531 7.90053 5 8.27599 5 8.67224C5 9.06971 5.49776 9.44639 6.2609 9.67998C6.08479 10.4578 6.16307 11.0766 6.50795 11.2748C6.58744 11.3212 6.68039 11.3433 6.78312 11.3433C7.11945 11.3433 7.55972 11.1035 8.00489 10.6877C8.45006 11.1011 8.89034 11.3384 9.22666 11.3384C9.32939 11.3384 9.42234 11.3163 9.50306 11.2699C9.84672 11.0717 9.92377 10.4541 9.74643 9.67876C10.5047 9.44517 11 9.06849 11 8.67224ZM9.40766 7.8565C9.36241 8.01427 9.30616 8.17693 9.24256 8.33958C9.19242 8.24174 9.13983 8.14391 9.08235 8.04607C9.02609 7.94823 8.96616 7.85283 8.90624 7.75989C9.0799 7.78557 9.24745 7.81737 9.40766 7.8565ZM8.84753 9.15899C8.75214 9.32409 8.6543 9.48064 8.55279 9.62617C8.37057 9.64207 8.18589 9.65063 8 9.65063C7.81533 9.65063 7.63066 9.64207 7.44965 9.6274C7.34815 9.48186 7.24908 9.32654 7.15369 9.16266C7.06074 9.00245 6.97636 8.83979 6.89931 8.67591C6.97513 8.51203 7.06074 8.34815 7.15247 8.18793C7.24786 8.02283 7.3457 7.86629 7.44721 7.72075C7.62943 7.70485 7.81411 7.69629 8 7.69629C8.18467 7.69629 8.36934 7.70485 8.55035 7.71953C8.65185 7.86506 8.75092 8.02038 8.84631 8.18426C8.93926 8.34448 9.02364 8.50713 9.10069 8.67102C9.02364 8.8349 8.93926 8.99878 8.84753 9.15899ZM9.24256 9C9.3086 9.16388 9.36486 9.32776 9.41133 9.48675C9.25112 9.52589 9.08235 9.55891 8.90746 9.58459C8.96739 9.49042 9.02731 9.3938 9.08357 9.29474C9.13983 9.1969 9.19242 9.09784 9.24256 9ZM8.00245 10.3049C7.88871 10.1875 7.77497 10.0567 7.66245 9.91358C7.77252 9.91847 7.88504 9.92214 7.99878 9.92214C8.11374 9.92214 8.22748 9.91969 8.33877 9.91358C8.2287 10.0567 8.11496 10.1875 8.00245 10.3049ZM7.09254 9.58459C6.91887 9.55891 6.75132 9.52711 6.59111 9.48797C6.63636 9.33021 6.69262 9.16755 6.75622 9.00489C6.80636 9.10273 6.85895 9.20057 6.91643 9.29841C6.97391 9.39625 7.03261 9.49164 7.09254 9.58459ZM7.99633 7.03954C8.11007 7.15695 8.22381 7.28781 8.33632 7.4309C8.22625 7.42601 8.11374 7.42234 8 7.42234C7.88504 7.42234 7.7713 7.42479 7.66001 7.4309C7.77008 7.28781 7.88382 7.15695 7.99633 7.03954ZM7.09132 7.75989C7.03139 7.85406 6.97146 7.95067 6.91521 8.04974C6.85895 8.14757 6.80636 8.24541 6.75622 8.34325C6.69018 8.17937 6.63392 8.01549 6.58744 7.8565C6.74766 7.81859 6.91643 7.78557 7.09132 7.75989ZM5.98451 9.29107C5.55157 9.1064 5.2715 8.86425 5.2715 8.67224C5.2715 8.48023 5.55157 8.23685 5.98451 8.0534C6.08969 8.00815 6.20465 7.96779 6.32328 7.92988C6.39299 8.16959 6.48471 8.41908 6.59845 8.67468C6.48594 8.92907 6.39543 9.17733 6.32695 9.41582C6.20587 9.3779 6.09091 9.33632 5.98451 9.29107ZM6.64248 11.0387C6.47615 10.9433 6.404 10.5801 6.46025 10.1129C6.47371 9.99796 6.49572 9.87689 6.52263 9.75336C6.76233 9.81207 7.02405 9.85732 7.29923 9.88667C7.46433 10.1129 7.63555 10.3184 7.80799 10.4982C7.40929 10.8687 7.03506 11.0717 6.78068 11.0717C6.72564 11.0705 6.67917 11.0595 6.64248 11.0387ZM9.54342 10.1068C9.6009 10.574 9.52996 10.9372 9.36486 11.0338C9.32817 11.0559 9.28047 11.0656 9.22422 11.0656C8.97106 11.0656 8.5956 10.8638 8.1969 10.4957C8.36812 10.3159 8.53934 10.1117 8.702 9.88545C8.97839 9.85609 9.24011 9.81084 9.47982 9.75092C9.50795 9.87444 9.52996 9.99307 9.54342 10.1068ZM10.0143 9.29107C9.90909 9.33632 9.79413 9.37668 9.6755 9.41459C9.60579 9.17489 9.51406 8.9254 9.40033 8.66979C9.51284 8.41541 9.60334 8.16714 9.67183 7.92866C9.79291 7.96657 9.90787 8.00815 10.0155 8.0534C10.4484 8.23808 10.7285 8.48023 10.7285 8.67224C10.7273 8.86425 10.4472 9.10762 10.0143 9.29107Z" fill="#61DAFB"/>
<path d="M7.99885 9.23115C8.30752 9.23115 8.55776 8.98091 8.55776 8.67224C8.55776 8.36356 8.30752 8.11333 7.99885 8.11333C7.69017 8.11333 7.43994 8.36356 7.43994 8.67224C7.43994 8.98091 7.69017 9.23115 7.99885 9.23115Z" fill="#61DAFB"/>
</svg>
