<svg width="16" height="16" viewBox="0 0 16 16" fill="none" xmlns="http://www.w3.org/2000/svg">
<path d="M13 14H3C1.89543 14 1 13.1046 1 12V4C1 2.89543 1.89543 2 3 2H5.67157C6.20201 2 6.71071 2.21071 7.08579 2.58579L7.91421 3.41421C8.28929 3.78929 8.79799 4 9.32843 4H13C14.1046 4 15 4.89543 15 6V12C15 13.1046 14.1046 14 13 14Z" fill="#CC499C"/>
<path d="M4.53085 10C4.30877 10 4.11753 9.97631 3.95714 9.92877C3.79674 9.88105 3.67029 9.81151 3.57775 9.7198C3.48521 9.62724 3.42926 9.51489 3.40987 9.38274L3.40723 9.36295H4.0457L4.04834 9.37208C4.05716 9.40998 4.08139 9.44264 4.12105 9.47005C4.16159 9.49645 4.21667 9.51709 4.2863 9.53215C4.35591 9.54619 4.44051 9.5533 4.5401 9.5533C4.61853 9.5533 4.68596 9.5467 4.74235 9.5335C4.79963 9.51929 4.84369 9.49949 4.87454 9.47394C4.90538 9.44839 4.92081 9.41895 4.92081 9.38545V9.3841C4.92081 9.34179 4.90186 9.311 4.86396 9.29154C4.82608 9.27208 4.75999 9.25719 4.66569 9.24653L4.17922 9.21083C3.9307 9.18714 3.74696 9.12843 3.62799 9.03503C3.50988 8.94078 3.45085 8.81032 3.45085 8.64382V8.64112C3.45085 8.50728 3.49139 8.39255 3.57245 8.29746C3.65442 8.20135 3.77119 8.12775 3.92276 8.07665C4.07435 8.02555 4.25501 8 4.46476 8C4.67538 8 4.8556 8.0242 5.00542 8.07276C5.15611 8.1203 5.27508 8.189 5.36234 8.27902C5.44958 8.36887 5.50378 8.47682 5.52493 8.60288L5.52889 8.62403H4.89702L4.89437 8.61337C4.88467 8.57631 4.8622 8.54602 4.82696 8.52217C4.79259 8.49746 4.74587 8.47902 4.68684 8.46667C4.62779 8.45347 4.55684 8.44687 4.47401 8.44687C4.39205 8.44687 4.32418 8.45296 4.27042 8.46531C4.21667 8.47682 4.17613 8.49391 4.14882 8.51692C4.12149 8.53892 4.10784 8.56531 4.10784 8.59628V8.59746C4.10784 8.63976 4.12811 8.67157 4.16865 8.69272C4.21007 8.71387 4.27836 8.72927 4.37354 8.73892L4.86926 8.77597C5.02877 8.79188 5.16095 8.82217 5.26582 8.86717C5.3707 8.91134 5.4487 8.97208 5.4998 9.04958C5.5518 9.12623 5.5778 9.22064 5.5778 9.33249V9.33384C5.5778 9.47124 5.53638 9.59036 5.45354 9.69069C5.3707 9.79036 5.25129 9.867 5.0953 9.92081C4.93933 9.9736 4.75117 10 4.53085 10Z" fill="white"/>
<path d="M5.67773 9.9L6.45614 8.1H7.0599V8.55778H6.85782L6.33639 9.9H5.67773ZM6.13804 9.55319L6.30145 9.15528H7.4017L7.56263 9.55319H6.13804ZM7.39296 9.9L6.87153 8.55778V8.1H7.27196L8.05162 9.9H7.39296Z" fill="white"/>
<path d="M9.27523 10C9.05315 10 8.86192 9.97631 8.70153 9.92877C8.54112 9.88105 8.41467 9.81151 8.32214 9.7198C8.2296 9.62724 8.17364 9.51489 8.15425 9.38274L8.15161 9.36295H8.79009L8.79273 9.37208C8.80154 9.40998 8.82577 9.44264 8.86544 9.47005C8.90598 9.49645 8.96105 9.51709 9.03068 9.53215C9.10029 9.54619 9.18489 9.5533 9.28449 9.5533C9.36292 9.5533 9.43034 9.5467 9.48674 9.5335C9.54401 9.51929 9.58808 9.49949 9.61892 9.47394C9.64977 9.44839 9.6652 9.41895 9.6652 9.38545V9.3841C9.6652 9.34179 9.64625 9.311 9.60835 9.29154C9.57046 9.27208 9.50437 9.25719 9.41007 9.24653L8.92361 9.21083C8.67508 9.18714 8.49134 9.12843 8.37237 9.03503C8.25427 8.94078 8.19523 8.81032 8.19523 8.64382V8.64112C8.19523 8.50728 8.23577 8.39255 8.31684 8.29746C8.3988 8.20135 8.51557 8.12775 8.66714 8.07665C8.81874 8.02555 8.9994 8 9.20914 8C9.41977 8 9.59999 8.0242 9.7498 8.07276C9.9005 8.1203 10.0195 8.189 10.1067 8.27902C10.194 8.36887 10.2482 8.47682 10.2693 8.60288L10.2733 8.62403H9.64141L9.63875 8.61337C9.62906 8.57631 9.60659 8.54602 9.57134 8.52217C9.53698 8.49746 9.49026 8.47902 9.43122 8.46667C9.37217 8.45347 9.30122 8.44687 9.2184 8.44687C9.13643 8.44687 9.06857 8.45296 9.01481 8.46531C8.96105 8.47682 8.92051 8.49391 8.8932 8.51692C8.86588 8.53892 8.85222 8.56531 8.85222 8.59628V8.59746C8.85222 8.63976 8.87249 8.67157 8.91303 8.69272C8.95445 8.71387 9.02275 8.72927 9.11792 8.73892L9.61364 8.77597C9.77315 8.79188 9.90533 8.82217 10.0102 8.86717C10.1151 8.91134 10.1931 8.97208 10.2442 9.04958C10.2962 9.12623 10.3222 9.22064 10.3222 9.33249V9.33384C10.3222 9.47124 10.2808 9.59036 10.1979 9.69069C10.1151 9.79036 9.99567 9.867 9.83968 9.92081C9.68371 9.9736 9.49555 10 9.27523 10Z" fill="white"/>
<path d="M11.5457 10C11.3237 10 11.1324 9.97631 10.972 9.92877C10.8116 9.88105 10.6852 9.81151 10.5926 9.7198C10.5001 9.62724 10.4441 9.51489 10.4248 9.38274L10.4221 9.36295H11.0606L11.0632 9.37208C11.0721 9.40998 11.0963 9.44264 11.1359 9.47005C11.1765 9.49645 11.2316 9.51709 11.3012 9.53215C11.3708 9.54619 11.4554 9.5533 11.555 9.5533C11.6334 9.5533 11.7009 9.5467 11.7572 9.5335C11.8145 9.51929 11.8586 9.49949 11.8894 9.47394C11.9203 9.44839 11.9357 9.41895 11.9357 9.38545V9.3841C11.9357 9.34179 11.9168 9.311 11.8789 9.29154C11.841 9.27208 11.7749 9.25719 11.6806 9.24653L11.1941 9.21083C10.9456 9.18714 10.7618 9.12843 10.6429 9.03503C10.5248 8.94078 10.4657 8.81032 10.4657 8.64382V8.64112C10.4657 8.50728 10.5063 8.39255 10.5873 8.29746C10.6693 8.20135 10.7861 8.12775 10.9377 8.07665C11.0892 8.02555 11.2699 8 11.4796 8C11.6903 8 11.8705 8.0242 12.0203 8.07276C12.171 8.1203 12.29 8.189 12.3772 8.27902C12.4645 8.36887 12.5187 8.47682 12.5398 8.60288L12.5438 8.62403H11.9119L11.9093 8.61337C11.8996 8.57631 11.8771 8.54602 11.8418 8.52217C11.8075 8.49746 11.7608 8.47902 11.7017 8.46667C11.6427 8.45347 11.5717 8.44687 11.4889 8.44687C11.4069 8.44687 11.3391 8.45296 11.2853 8.46531C11.2316 8.47682 11.191 8.49391 11.1637 8.51692C11.1364 8.53892 11.1227 8.56531 11.1227 8.59628V8.59746C11.1227 8.63976 11.143 8.67157 11.1835 8.69272C11.225 8.71387 11.2933 8.72927 11.3884 8.73892L11.8842 8.77597C12.0437 8.79188 12.1758 8.82217 12.2807 8.86717C12.3856 8.91134 12.4636 8.97208 12.5147 9.04958C12.5667 9.12623 12.5927 9.22064 12.5927 9.33249V9.33384C12.5927 9.47124 12.5513 9.59036 12.4684 9.69069C12.3856 9.79036 12.2662 9.867 12.1102 9.92081C11.9542 9.9736 11.7661 10 11.5457 10Z" fill="white"/>
</svg>
