<svg width="16" height="16" viewBox="0 0 16 16" fill="none" xmlns="http://www.w3.org/2000/svg">
<path d="M13 14H3C1.89543 14 1 13.1046 1 12V4C1 2.89543 1.89543 2 3 2H5.67157C6.20201 2 6.71071 2.21071 7.08579 2.58579L7.91421 3.41421C8.28929 3.78929 8.79799 4 9.32843 4H13C14.1046 4 15 4.89543 15 6V12C15 13.1046 14.1046 14 13 14Z" fill="#CC499C"/>
<path d="M4.53402 10C4.31194 10 4.12071 9.97631 3.96032 9.92877C3.79991 9.88105 3.67346 9.81151 3.58093 9.7198C3.48839 9.62724 3.43243 9.51489 3.41304 9.38274L3.4104 9.36295H4.04888L4.05152 9.37208C4.06033 9.40998 4.08456 9.44264 4.12422 9.47005C4.16477 9.49645 4.21984 9.51709 4.28947 9.53215C4.35908 9.54619 4.44368 9.5533 4.54328 9.5533C4.6217 9.5533 4.68913 9.5467 4.74553 9.5335C4.8028 9.51929 4.84686 9.49949 4.87771 9.47394C4.90856 9.44839 4.92399 9.41895 4.92399 9.38545V9.3841C4.92399 9.34179 4.90504 9.311 4.86714 9.29154C4.82925 9.27208 4.76316 9.25719 4.66886 9.24653L4.1824 9.21083C3.93387 9.18714 3.75013 9.12843 3.63116 9.03503C3.51306 8.94078 3.45402 8.81032 3.45402 8.64382V8.64112C3.45402 8.50728 3.49456 8.39255 3.57563 8.29746C3.65759 8.20135 3.77436 8.12775 3.92593 8.07665C4.07752 8.02555 4.25818 8 4.46793 8C4.67856 8 4.85878 8.0242 5.00859 8.07276C5.15928 8.1203 5.27825 8.189 5.36551 8.27902C5.45275 8.36887 5.50695 8.47682 5.5281 8.60288L5.53206 8.62403H4.9002L4.89754 8.61337C4.88785 8.57631 4.86538 8.54602 4.83013 8.52217C4.79576 8.49746 4.74905 8.47902 4.69001 8.46667C4.63096 8.45347 4.56001 8.44687 4.47719 8.44687C4.39522 8.44687 4.32735 8.45296 4.2736 8.46531C4.21984 8.47682 4.1793 8.49391 4.15199 8.51692C4.12466 8.53892 4.11101 8.56531 4.11101 8.59628V8.59746C4.11101 8.63976 4.13128 8.67157 4.17182 8.69272C4.21324 8.71387 4.28153 8.72927 4.37671 8.73892L4.87243 8.77597C5.03194 8.79188 5.16412 8.82217 5.269 8.86717C5.37387 8.91134 5.45187 8.97208 5.50297 9.04958C5.55497 9.12623 5.58098 9.22064 5.58098 9.33249V9.33384C5.58098 9.47124 5.53956 9.59036 5.45671 9.69069C5.37387 9.79036 5.25446 9.867 5.09847 9.92081C4.9425 9.9736 4.75434 10 4.53402 10Z" fill="white"/>
<path d="M6.88196 10C6.6341 10 6.42026 9.95937 6.24046 9.87827C6.06134 9.79616 5.92335 9.68069 5.82634 9.5317C5.72933 9.38271 5.68091 9.20545 5.68091 8.99991V8.99737C5.68091 8.79268 5.72933 8.61593 5.82634 8.46694C5.92335 8.31795 6.06134 8.20283 6.24046 8.12173C6.42026 8.04063 6.6341 8 6.88196 8C7.09528 8 7.28626 8.03403 7.45455 8.10192C7.62385 8.16896 7.76014 8.26412 7.86342 8.38754C7.96652 8.51012 8.02731 8.6547 8.04593 8.82147L8.04847 8.84517H7.39648L7.39377 8.83196C7.37701 8.76153 7.34535 8.70143 7.29862 8.65216C7.25274 8.60272 7.19449 8.5648 7.12389 8.53839C7.05346 8.51198 6.97406 8.4986 6.88585 8.4986C6.77563 8.4986 6.68082 8.51892 6.60142 8.55955C6.52303 8.60002 6.46259 8.65792 6.42026 8.73275C6.37794 8.80691 6.35677 8.89511 6.35677 8.99737V8.99991C6.35677 9.10234 6.37794 9.19089 6.42026 9.26589C6.46259 9.34072 6.52337 9.39863 6.60277 9.43909C6.68218 9.47973 6.77699 9.49987 6.88721 9.49987C6.97457 9.49987 7.05296 9.48717 7.12271 9.46161C7.19229 9.4352 7.25054 9.39727 7.29726 9.34784C7.34399 9.29755 7.37616 9.23711 7.39377 9.16668L7.39648 9.15212H8.04847L8.04711 9.17328C8.02781 9.34174 7.96652 9.48768 7.86342 9.6111C7.76014 9.73453 7.62436 9.83019 7.4559 9.89808C7.28846 9.96597 7.09714 10 6.88196 10Z" fill="white"/>
<path d="M9.27206 10C9.04998 10 8.85874 9.97631 8.69835 9.92877C8.53795 9.88105 8.4115 9.81151 8.31896 9.7198C8.22642 9.62724 8.17047 9.51489 8.15108 9.38274L8.14844 9.36295H8.78691L8.78955 9.37208C8.79837 9.40998 8.8226 9.44264 8.86226 9.47005C8.9028 9.49645 8.95788 9.51709 9.02751 9.53215C9.09712 9.54619 9.18172 9.5533 9.28131 9.5533C9.35974 9.5533 9.42717 9.5467 9.48356 9.5335C9.54084 9.51929 9.5849 9.49949 9.61575 9.47394C9.64659 9.44839 9.66203 9.41895 9.66203 9.38545V9.3841C9.66203 9.34179 9.64307 9.311 9.60517 9.29154C9.56729 9.27208 9.5012 9.25719 9.4069 9.24653L8.92043 9.21083C8.67191 9.18714 8.48817 9.12843 8.3692 9.03503C8.25109 8.94078 8.19206 8.81032 8.19206 8.64382V8.64112C8.19206 8.50728 8.2326 8.39255 8.31367 8.29746C8.39563 8.20135 8.5124 8.12775 8.66397 8.07665C8.81556 8.02555 8.99622 8 9.20597 8C9.41659 8 9.59681 8.0242 9.74663 8.07276C9.89732 8.1203 10.0163 8.189 10.1035 8.27902C10.1908 8.36887 10.245 8.47682 10.2661 8.60288L10.2701 8.62403H9.63824L9.63558 8.61337C9.62588 8.57631 9.60341 8.54602 9.56817 8.52217C9.5338 8.49746 9.48708 8.47902 9.42805 8.46667C9.369 8.45347 9.29805 8.44687 9.21522 8.44687C9.13326 8.44687 9.06539 8.45296 9.01164 8.46531C8.95788 8.47682 8.91734 8.49391 8.89003 8.51692C8.8627 8.53892 8.84905 8.56531 8.84905 8.59628V8.59746C8.84905 8.63976 8.86932 8.67157 8.90986 8.69272C8.95128 8.71387 9.01957 8.72927 9.11475 8.73892L9.61047 8.77597C9.76998 8.79188 9.90216 8.82217 10.007 8.86717C10.1119 8.91134 10.1899 8.97208 10.241 9.04958C10.293 9.12623 10.319 9.22064 10.319 9.33249V9.33384C10.319 9.47124 10.2776 9.59036 10.1947 9.69069C10.1119 9.79036 9.9925 9.867 9.83651 9.92081C9.68054 9.9736 9.49238 10 9.27206 10Z" fill="white"/>
<path d="M11.5428 10C11.3207 10 11.1295 9.97631 10.9691 9.92877C10.8087 9.88105 10.6823 9.81151 10.5897 9.7198C10.4972 9.62724 10.4412 9.51489 10.4218 9.38274L10.4192 9.36295H11.0577L11.0603 9.37208C11.0691 9.40998 11.0934 9.44264 11.133 9.47005C11.1736 9.49645 11.2286 9.51709 11.2983 9.53215C11.3679 9.54619 11.4525 9.5533 11.5521 9.5533C11.6305 9.5533 11.6979 9.5467 11.7543 9.5335C11.8116 9.51929 11.8557 9.49949 11.8865 9.47394C11.9173 9.44839 11.9328 9.41895 11.9328 9.38545V9.3841C11.9328 9.34179 11.9138 9.311 11.8759 9.29154C11.838 9.27208 11.7719 9.25719 11.6777 9.24653L11.1912 9.21083C10.9427 9.18714 10.7589 9.12843 10.64 9.03503C10.5218 8.94078 10.4628 8.81032 10.4628 8.64382V8.64112C10.4628 8.50728 10.5034 8.39255 10.5844 8.29746C10.6664 8.20135 10.7831 8.12775 10.9347 8.07665C11.0863 8.02555 11.267 8 11.4767 8C11.6873 8 11.8676 8.0242 12.0174 8.07276C12.1681 8.1203 12.287 8.189 12.3743 8.27902C12.4615 8.36887 12.5157 8.47682 12.5369 8.60288L12.5408 8.62403H11.909L11.9063 8.61337C11.8966 8.57631 11.8742 8.54602 11.8389 8.52217C11.8046 8.49746 11.7578 8.47902 11.6988 8.46667C11.6397 8.45347 11.5688 8.44687 11.486 8.44687C11.404 8.44687 11.3361 8.45296 11.2824 8.46531C11.2286 8.47682 11.1881 8.49391 11.1608 8.51692C11.1335 8.53892 11.1198 8.56531 11.1198 8.59628V8.59746C11.1198 8.63976 11.1401 8.67157 11.1806 8.69272C11.222 8.71387 11.2903 8.72927 11.3855 8.73892L11.8812 8.77597C12.0407 8.79188 12.1729 8.82217 12.2778 8.86717C12.3827 8.91134 12.4607 8.97208 12.5118 9.04958C12.5638 9.12623 12.5898 9.22064 12.5898 9.33249V9.33384C12.5898 9.47124 12.5483 9.59036 12.4655 9.69069C12.3827 9.79036 12.2633 9.867 12.1073 9.92081C11.9513 9.9736 11.7631 10 11.5428 10Z" fill="white"/>
</svg>
