<svg width="16" height="16" viewBox="0 0 16 16" fill="none" xmlns="http://www.w3.org/2000/svg">
<path d="M14.5 6V12C14.5 12.8284 13.8284 13.5 13 13.5H3C2.17157 13.5 1.5 12.8284 1.5 12V4C1.5 3.17157 2.17157 2.5 3 2.5H5.67157C6.0694 2.5 6.45093 2.65803 6.73223 2.93934L7.56066 3.76777C8.0295 4.23661 8.66539 4.5 9.32843 4.5H13C13.8284 4.5 14.5 5.17157 14.5 6Z" fill="white" stroke="#CED0D6"/>
<path d="M10.8999 8.39809L10.8918 8.37652L10.0752 6.24642C10.0587 6.2046 10.0293 6.16912 9.99125 6.14512C9.96287 6.12695 9.93063 6.11569 9.89711 6.11223C9.8636 6.10876 9.82973 6.1132 9.79824 6.12519C9.76675 6.13717 9.7385 6.15636 9.71576 6.18123C9.69303 6.2061 9.67643 6.23594 9.66731 6.26838L9.1161 7.95589H6.88393L6.33272 6.26838C6.32353 6.23599 6.30689 6.2062 6.28414 6.18138C6.26139 6.15656 6.23316 6.1374 6.20169 6.12543C6.17022 6.11346 6.1364 6.109 6.1029 6.11242C6.06941 6.11584 6.03718 6.12704 6.00878 6.14512C5.97074 6.16912 5.94133 6.2046 5.92481 6.24642L5.10859 8.37691L5.10012 8.39809C4.9826 8.70521 4.96813 9.0422 5.05887 9.35826C5.14961 9.67432 5.34064 9.95231 5.60317 10.1503L5.60625 10.1526L5.61319 10.158L6.85542 11.089L7.47173 11.5547L7.84613 11.8378C7.89006 11.871 7.94361 11.889 7.99866 11.889C8.05372 11.889 8.10727 11.871 8.1512 11.8378L8.5256 11.5547L9.14191 11.089L10.393 10.1526L10.3965 10.1499C10.659 9.952 10.85 9.6741 10.9408 9.35812C11.0317 9.04213 11.0173 8.7052 10.8999 8.39809Z" fill="#E24329"/>
<path d="M10.8999 8.3981L10.8918 8.37653C10.494 8.45817 10.1191 8.6268 9.79403 8.87034L8.00098 10.2262L9.14268 11.089L10.3938 10.1526L10.3972 10.1499C10.6596 9.9519 10.8505 9.67396 10.9412 9.35798C11.0319 9.042 11.0174 8.70512 10.8999 8.3981Z" fill="#FC6D26"/>
<path d="M6.85547 11.089L7.47177 11.5547L7.84618 11.8378C7.8901 11.871 7.94366 11.889 7.99871 11.889C8.05376 11.889 8.10732 11.871 8.15125 11.8378L8.52565 11.5547L9.14195 11.089L8.00025 10.2262L6.85547 11.089Z" fill="#FCA326"/>
<path d="M6.20599 8.87032C5.88107 8.6269 5.50631 8.4584 5.10859 8.37689L5.10012 8.39808C4.9826 8.70519 4.96813 9.04219 5.05887 9.35825C5.14961 9.67431 5.34064 9.9523 5.60317 10.1503L5.60625 10.1526L5.61319 10.158L6.85542 11.089L7.9979 10.2262L6.20599 8.87032Z" fill="#FC6D26"/>
</svg>
