<svg width="16" height="16" viewBox="0 0 16 16" fill="none" xmlns="http://www.w3.org/2000/svg">
<path d="M3 13.5C2.17157 13.5 1.5 12.8284 1.5 12V4C1.5 3.17157 2.17157 2.5 3 2.5H5.67157C6.0694 2.5 6.45093 2.65803 6.73223 2.93934L7.56066 3.76777C8.0295 4.23661 8.66539 4.5 9.32843 4.5H13C13.8284 4.5 14.5 5.17157 14.5 6V12C14.5 12.8284 13.8284 13.5 13 13.5H3Z" fill="#0E0E0E" stroke="#252526"/>
<g clip-path="url(#clip0_58_193)">
<mask id="mask0_58_193" style="mask-type:alpha" maskUnits="userSpaceOnUse" x="5" y="6" width="6" height="6">
<path fill-rule="evenodd" clip-rule="evenodd" d="M9.25471 11.9591C9.34921 11.9959 9.45697 11.9935 9.55235 11.9476L10.7876 11.3532C10.9175 11.2908 11 11.1594 11 11.0153V6.98483C11 6.84071 10.9175 6.70934 10.7877 6.64688L9.55235 6.05246C9.42717 5.99222 9.28068 6.00698 9.17081 6.08685C9.15512 6.09826 9.14017 6.111 9.12614 6.12504L6.76131 8.28252L5.73123 7.50061C5.63534 7.42782 5.50122 7.43378 5.41216 7.5148L5.08178 7.81532C4.97285 7.91441 4.97272 8.08579 5.08151 8.18505L5.97483 9.00004L5.08151 9.81502C4.97272 9.91427 4.97285 10.0857 5.08178 10.1847L5.41216 10.4853C5.50122 10.5663 5.63534 10.5723 5.73123 10.4995L6.76131 9.71755L9.12614 11.875C9.16355 11.9125 9.20748 11.9407 9.25471 11.9591ZM9.50091 7.63796L7.70655 9.00004L9.50091 10.3621V7.63796Z" fill="white"/>
</mask>
<g mask="url(#mask0_58_193)">
<path d="M10.7874 6.64781L9.55115 6.05257C9.40805 5.98368 9.23704 6.01274 9.12474 6.12504L5.07766 9.81503C4.9688 9.91428 4.96892 10.0857 5.07793 10.1848L5.4085 10.4853C5.49762 10.5663 5.63182 10.5723 5.72777 10.4995L10.6014 6.80224C10.7649 6.6782 10.9997 6.79481 10.9997 7.00004V6.98569C10.9997 6.84163 10.9172 6.71031 10.7874 6.64781Z" fill="#0065A9"/>
<g filter="url(#filter0_d_58_193)">
<path d="M10.7874 11.3523L9.55115 11.9475C9.40805 12.0164 9.23704 11.9873 9.12474 11.875L5.07766 8.18504C4.9688 8.08579 4.96892 7.9144 5.07793 7.81531L5.4085 7.51478C5.49762 7.43377 5.63182 7.42781 5.72777 7.50059L10.6014 11.1978C10.7649 11.3219 10.9997 11.2053 10.9997 11V11.0144C10.9997 11.1584 10.9172 11.2898 10.7874 11.3523Z" fill="#007ACC"/>
</g>
<g filter="url(#filter1_d_58_193)">
<path d="M9.55147 11.9476C9.40833 12.0165 9.23731 11.9873 9.125 11.875C9.26338 12.0134 9.5 11.9154 9.5 11.7197V6.28037C9.5 6.08466 9.26338 5.98665 9.125 6.12504C9.23731 6.01272 9.40833 5.98362 9.55147 6.05246L10.7875 6.64688C10.9174 6.70934 11 6.84071 11 6.98483V11.0153C11 11.1594 10.9174 11.2908 10.7875 11.3532L9.55147 11.9476Z" fill="#1F9CF0"/>
</g>
<g style="mix-blend-mode:overlay" opacity="0.25">
<path fill-rule="evenodd" clip-rule="evenodd" d="M9.25081 11.9591C9.34531 11.9959 9.45307 11.9936 9.54844 11.9477L10.7837 11.3533C10.9135 11.2908 10.9961 11.1594 10.9961 11.0153V6.98489C10.9961 6.84077 10.9136 6.7094 10.7837 6.64694L9.54844 6.05252C9.42327 5.99228 9.27677 6.00704 9.1669 6.08691C9.15121 6.09832 9.13626 6.11106 9.12223 6.1251L6.7574 8.28258L5.72732 7.50067C5.63144 7.42788 5.49731 7.43385 5.40825 7.51486L5.07788 7.81538C4.96894 7.91448 4.96882 8.08586 5.07761 8.18511L5.97092 9.0001L5.07761 9.81509C4.96882 9.91434 4.96894 10.0857 5.07788 10.1848L5.40825 10.4853C5.49731 10.5663 5.63144 10.5723 5.72732 10.4995L6.7574 9.71761L9.12223 11.8751C9.15964 11.9125 9.20357 11.9407 9.25081 11.9591ZM9.497 7.63803L7.70264 9.0001L9.497 10.3622V7.63803Z" fill="url(#paint0_linear_58_193)"/>
</g>
</g>
</g>
<defs>
<filter id="filter0_d_58_193" x="-3.33725" y="-0.883572" width="22.6706" height="21.2014" filterUnits="userSpaceOnUse" color-interpolation-filters="sRGB">
<feFlood flood-opacity="0" result="BackgroundImageFix"/>
<feColorMatrix in="SourceAlpha" type="matrix" values="0 0 0 0 0 0 0 0 0 0 0 0 0 0 0 0 0 0 127 0" result="hardAlpha"/>
<feOffset/>
<feGaussianBlur stdDeviation="4.16667"/>
<feColorMatrix type="matrix" values="0 0 0 0 0 0 0 0 0 0 0 0 0 0 0 0 0 0 0.25 0"/>
<feBlend mode="overlay" in2="BackgroundImageFix" result="effect1_dropShadow_58_193"/>
<feBlend mode="normal" in="SourceGraphic" in2="effect1_dropShadow_58_193" result="shape"/>
</filter>
<filter id="filter1_d_58_193" x="0.79166" y="-2.31784" width="18.5417" height="22.6357" filterUnits="userSpaceOnUse" color-interpolation-filters="sRGB">
<feFlood flood-opacity="0" result="BackgroundImageFix"/>
<feColorMatrix in="SourceAlpha" type="matrix" values="0 0 0 0 0 0 0 0 0 0 0 0 0 0 0 0 0 0 127 0" result="hardAlpha"/>
<feOffset/>
<feGaussianBlur stdDeviation="4.16667"/>
<feColorMatrix type="matrix" values="0 0 0 0 0 0 0 0 0 0 0 0 0 0 0 0 0 0 0.25 0"/>
<feBlend mode="overlay" in2="BackgroundImageFix" result="effect1_dropShadow_58_193"/>
<feBlend mode="normal" in="SourceGraphic" in2="effect1_dropShadow_58_193" result="shape"/>
</filter>
<linearGradient id="paint0_linear_58_193" x1="7.99609" y1="6.01556" x2="7.99609" y2="11.9846" gradientUnits="userSpaceOnUse">
<stop stop-color="white"/>
<stop offset="1" stop-color="white" stop-opacity="0"/>
</linearGradient>
<clipPath id="clip0_58_193">
<rect width="6" height="6" fill="white" transform="translate(5 6)"/>
</clipPath>
</defs>
</svg>
